<svg width="78" height="115" viewBox="0 0 78 115" fill="none" xmlns="http://www.w3.org/2000/svg">
<path opacity="0.25" d="M1.752 34.352C2.15733 23.5093 5.704 15.1493 12.392 9.272C19.08 3.39466 28.1493 0.455994 39.6 0.455994C47.2 0.455994 53.6853 1.77333 59.056 4.408C64.528 7.04266 68.632 10.64 71.368 15.2C74.2053 19.76 75.624 24.8773 75.624 30.552C75.624 37.24 73.952 42.712 70.608 46.968C67.264 51.1227 63.3627 53.96 58.904 55.48V56.088C64.68 58.0133 69.24 61.2053 72.584 65.664C75.928 70.1227 77.6 75.848 77.6 82.84C77.6 89.1227 76.1307 94.696 73.192 99.56C70.3547 104.323 66.1493 108.072 60.576 110.808C55.104 113.544 48.568 114.912 40.968 114.912C28.808 114.912 19.08 111.923 11.784 105.944C4.58933 99.9653 0.789334 90.9467 0.384 78.888H25.616C25.7173 83.3467 26.984 86.8933 29.416 89.528C31.848 92.0613 35.3947 93.328 40.056 93.328C44.008 93.328 47.048 92.2133 49.176 89.984C51.4053 87.6533 52.52 84.6133 52.52 80.864C52.52 76 50.9493 72.504 47.808 70.376C44.768 68.1467 39.8533 67.032 33.064 67.032H28.2V45.904H33.064C38.232 45.904 42.3867 45.0427 45.528 43.32C48.7707 41.496 50.392 38.304 50.392 33.744C50.392 30.096 49.3787 27.2587 47.352 25.232C45.3253 23.2053 42.5387 22.192 38.992 22.192C35.1413 22.192 32.2533 23.3573 30.328 25.688C28.504 28.0187 27.44 30.9067 27.136 34.352H1.752Z" fill="#FFD84D"/>
</svg>
