<svg width="5" height="8" viewBox="0 0 5 8" fill="none" xmlns="http://www.w3.org/2000/svg">
<path d="M-2.48406e-05 1.425C-2.4821e-05 0.975 0.204308 0.662334 0.612975 0.487C1.02164 0.311667 1.38397 0.382666 1.69998 0.7L4.29998 3.3C4.39998 3.4 4.47497 3.50833 4.52497 3.625C4.57497 3.74167 4.59998 3.86667 4.59998 4C4.59998 4.13333 4.57497 4.25833 4.52497 4.375C4.47497 4.49167 4.39998 4.6 4.29998 4.7L1.69997 7.3C1.38331 7.61667 1.02064 7.68733 0.611975 7.512C0.203309 7.33667 -0.000691752 7.02433 -2.50657e-05 6.575L-2.48406e-05 1.425Z" fill="#656565"/>
</svg>
