<svg width="24" height="24" viewBox="0 0 24 24" fill="none" xmlns="http://www.w3.org/2000/svg">
<path d="M18.73 5.4101L17.45 6.4101L12 10.4601L6.55 6.3701L5.27 5.3701C4.96845 5.12064 4.60035 4.96514 4.21129 4.92285C3.82222 4.88056 3.42931 4.95334 3.08121 5.13218C2.73311 5.31102 2.44512 5.58806 2.25294 5.92897C2.06075 6.26988 1.97281 6.65969 2 7.0501V18.6401C2 19.0008 2.14328 19.3467 2.39833 19.6018C2.65338 19.8568 2.9993 20.0001 3.36 20.0001H6.55V12.2801L12 16.3701L17.45 12.2801V20.0001H20.64C21.0007 20.0001 21.3466 19.8568 21.6017 19.6018C21.8567 19.3467 22 19.0008 22 18.6401V7.0501C22.0188 6.66306 21.9247 6.2789 21.7292 5.94432C21.5338 5.60974 21.2453 5.33914 20.899 5.16543C20.5526 4.99171 20.1632 4.92235 19.7782 4.96579C19.3931 5.00923 19.029 5.16358 18.73 5.4101Z" fill="white"/>
</svg>
