<svg width="24" height="24" viewBox="0 0 24 24" fill="none" xmlns="http://www.w3.org/2000/svg">
<path d="M21.6485 16.3664L18.255 15.9789C17.856 15.9321 17.4515 15.9762 17.072 16.1081C16.6925 16.24 16.3478 16.4562 16.0639 16.7405L13.6056 19.1987C9.8129 17.2698 6.73015 14.187 4.80123 10.3943L7.27287 7.92266C7.84736 7.34816 8.12792 6.54655 8.0344 5.73157L7.64696 2.36477C7.57121 1.71303 7.25843 1.11189 6.76817 0.675829C6.27791 0.239764 5.6444 -0.00077791 4.98827 1.89006e-06H2.67695C1.16725 1.89006e-06 -0.0886137 1.25587 0.00490785 2.76558C0.713 14.1753 9.83803 23.287 21.2343 23.9951C22.744 24.0886 23.9999 22.8327 23.9999 21.323V19.0117C24.0132 17.6623 22.9979 16.5267 21.6485 16.3664Z" fill="white"/>
</svg>
