<svg width="223" height="62" viewBox="0 0 223 62" fill="none" xmlns="http://www.w3.org/2000/svg">
<path d="M2.332 27.436C2.332 24.988 2.896 22.792 4.024 20.848C5.176 18.904 6.724 17.392 8.668 16.312C10.636 15.208 12.784 14.656 15.112 14.656C17.776 14.656 20.14 15.316 22.204 16.636C24.292 17.932 25.804 19.78 26.74 22.18H21.808C21.16 20.86 20.26 19.876 19.108 19.228C17.956 18.58 16.624 18.256 15.112 18.256C13.456 18.256 11.98 18.628 10.684 19.372C9.388 20.116 8.368 21.184 7.624 22.576C6.904 23.968 6.544 25.588 6.544 27.436C6.544 29.284 6.904 30.904 7.624 32.296C8.368 33.688 9.388 34.768 10.684 35.536C11.98 36.28 13.456 36.652 15.112 36.652C16.624 36.652 17.956 36.328 19.108 35.68C20.26 35.032 21.16 34.048 21.808 32.728H26.74C25.804 35.128 24.292 36.976 22.204 38.272C20.14 39.568 17.776 40.216 15.112 40.216C12.76 40.216 10.612 39.676 8.668 38.596C6.724 37.492 5.176 35.968 4.024 34.024C2.896 32.08 2.332 29.884 2.332 27.436ZM40.1478 40.324C38.2758 40.324 36.5838 39.904 35.0718 39.064C33.5598 38.2 32.3718 37 31.5078 35.464C30.6438 33.904 30.2118 32.104 30.2118 30.064C30.2118 28.048 30.6558 26.26 31.5438 24.7C32.4318 23.14 33.6438 21.94 35.1798 21.1C36.7158 20.26 38.4318 19.84 40.3278 19.84C42.2238 19.84 43.9398 20.26 45.4758 21.1C47.0118 21.94 48.2238 23.14 49.1118 24.7C49.9998 26.26 50.4438 28.048 50.4438 30.064C50.4438 32.08 49.9878 33.868 49.0758 35.428C48.1638 36.988 46.9158 38.2 45.3318 39.064C43.7718 39.904 42.0438 40.324 40.1478 40.324ZM40.1478 36.76C41.2038 36.76 42.1878 36.508 43.0998 36.004C44.0358 35.5 44.7918 34.744 45.3678 33.736C45.9438 32.728 46.2318 31.504 46.2318 30.064C46.2318 28.624 45.9558 27.412 45.4038 26.428C44.8518 25.42 44.1198 24.664 43.2078 24.16C42.2958 23.656 41.3118 23.404 40.2558 23.404C39.1998 23.404 38.2158 23.656 37.3038 24.16C36.4158 24.664 35.7078 25.42 35.1798 26.428C34.6518 27.412 34.3878 28.624 34.3878 30.064C34.3878 32.2 34.9278 33.856 36.0078 35.032C37.1118 36.184 38.4918 36.76 40.1478 36.76ZM64.5088 19.84C66.0688 19.84 67.4608 20.164 68.6848 20.812C69.9328 21.46 70.9048 22.42 71.6008 23.692C72.2968 24.964 72.6448 26.5 72.6448 28.3V40H68.5768V28.912C68.5768 27.136 68.1328 25.78 67.2448 24.844C66.3568 23.884 65.1448 23.404 63.6088 23.404C62.0728 23.404 60.8488 23.884 59.9368 24.844C59.0488 25.78 58.6048 27.136 58.6048 28.912V40H54.5008V20.164H58.6048V22.432C59.2768 21.616 60.1288 20.98 61.1608 20.524C62.2168 20.068 63.3328 19.84 64.5088 19.84ZM82.6677 23.512V34.492C82.6677 35.236 82.8357 35.776 83.1717 36.112C83.5317 36.424 84.1317 36.58 84.9717 36.58H87.4917V40H84.2517C82.4037 40 80.9877 39.568 80.0037 38.704C79.0197 37.84 78.5277 36.436 78.5277 34.492V23.512H76.1877V20.164H78.5277V15.232H82.6677V20.164H87.4917V23.512H82.6677ZM89.9062 29.992C89.9062 28 90.3142 26.236 91.1302 24.7C91.9702 23.164 93.0982 21.976 94.5142 21.136C95.9542 20.272 97.5382 19.84 99.2662 19.84C100.826 19.84 102.182 20.152 103.334 20.776C104.51 21.376 105.446 22.132 106.142 23.044V20.164H110.282V40H106.142V37.048C105.446 37.984 104.498 38.764 103.298 39.388C102.098 40.012 100.73 40.324 99.1942 40.324C97.4902 40.324 95.9302 39.892 94.5142 39.028C93.0982 38.14 91.9702 36.916 91.1302 35.356C90.3142 33.772 89.9062 31.984 89.9062 29.992ZM106.142 30.064C106.142 28.696 105.854 27.508 105.278 26.5C104.726 25.492 103.994 24.724 103.082 24.196C102.17 23.668 101.186 23.404 100.13 23.404C99.0742 23.404 98.0902 23.668 97.1782 24.196C96.2662 24.7 95.5222 25.456 94.9462 26.464C94.3942 27.448 94.1182 28.624 94.1182 29.992C94.1182 31.36 94.3942 32.56 94.9462 33.592C95.5222 34.624 96.2662 35.416 97.1782 35.968C98.1142 36.496 99.0982 36.76 100.13 36.76C101.186 36.76 102.17 36.496 103.082 35.968C103.994 35.44 104.726 34.672 105.278 33.664C105.854 32.632 106.142 31.432 106.142 30.064ZM114.305 30.064C114.305 28.024 114.713 26.236 115.529 24.7C116.369 23.14 117.521 21.94 118.985 21.1C120.449 20.26 122.129 19.84 124.025 19.84C126.425 19.84 128.405 20.416 129.965 21.568C131.549 22.696 132.617 24.316 133.169 26.428H128.741C128.381 25.444 127.805 24.676 127.013 24.124C126.221 23.572 125.225 23.296 124.025 23.296C122.345 23.296 121.001 23.896 119.993 25.096C119.009 26.272 118.517 27.928 118.517 30.064C118.517 32.2 119.009 33.868 119.993 35.068C121.001 36.268 122.345 36.868 124.025 36.868C126.401 36.868 127.973 35.824 128.741 33.736H133.169C132.593 35.752 131.513 37.36 129.929 38.56C128.345 39.736 126.377 40.324 124.025 40.324C122.129 40.324 120.449 39.904 118.985 39.064C117.521 38.2 116.369 37 115.529 35.464C114.713 33.904 114.305 32.104 114.305 30.064ZM142.047 23.512V34.492C142.047 35.236 142.215 35.776 142.551 36.112C142.911 36.424 143.511 36.58 144.351 36.58H146.871V40H143.631C141.783 40 140.367 39.568 139.383 38.704C138.399 37.84 137.907 36.436 137.907 34.492V23.512H135.567V20.164H137.907V15.232H142.047V20.164H146.871V23.512H142.047ZM184.017 19.84C185.577 19.84 186.969 20.164 188.193 20.812C189.441 21.46 190.413 22.42 191.109 23.692C191.829 24.964 192.189 26.5 192.189 28.3V40H188.121V28.912C188.121 27.136 187.677 25.78 186.789 24.844C185.901 23.884 184.689 23.404 183.153 23.404C181.617 23.404 180.393 23.884 179.481 24.844C178.593 25.78 178.149 27.136 178.149 28.912V40H174.081V28.912C174.081 27.136 173.637 25.78 172.749 24.844C171.861 23.884 170.649 23.404 169.113 23.404C167.577 23.404 166.353 23.884 165.441 24.844C164.553 25.78 164.109 27.136 164.109 28.912V40H160.005V20.164H164.109V22.432C164.781 21.616 165.633 20.98 166.665 20.524C167.697 20.068 168.801 19.84 169.977 19.84C171.561 19.84 172.977 20.176 174.225 20.848C175.473 21.52 176.433 22.492 177.105 23.764C177.705 22.564 178.641 21.616 179.913 20.92C181.185 20.2 182.553 19.84 184.017 19.84ZM215.591 29.596C215.591 30.34 215.543 31.012 215.447 31.612H200.291C200.411 33.196 200.999 34.468 202.055 35.428C203.111 36.388 204.407 36.868 205.943 36.868C208.151 36.868 209.711 35.944 210.623 34.096H215.051C214.451 35.92 213.359 37.42 211.775 38.596C210.215 39.748 208.271 40.324 205.943 40.324C204.047 40.324 202.343 39.904 200.831 39.064C199.343 38.2 198.167 37 197.303 35.464C196.463 33.904 196.043 32.104 196.043 30.064C196.043 28.024 196.451 26.236 197.267 24.7C198.107 23.14 199.271 21.94 200.759 21.1C202.271 20.26 203.999 19.84 205.943 19.84C207.815 19.84 209.483 20.248 210.947 21.064C212.411 21.88 213.551 23.032 214.367 24.52C215.183 25.984 215.591 27.676 215.591 29.596ZM211.307 28.3C211.283 26.788 210.743 25.576 209.687 24.664C208.631 23.752 207.323 23.296 205.763 23.296C204.347 23.296 203.135 23.752 202.127 24.664C201.119 25.552 200.519 26.764 200.327 28.3H211.307Z" fill="white"/>
<path d="M1 60.4165C6.26788 58.7496 20.5761 54.8323 35.6661 52.4986C54.5285 49.5815 18.333 60.4165 25.98 60.4165C33.6269 60.4165 55.5481 50.415 68.293 52.4986C81.0379 54.5822 41.2738 58.7497 50.4501 60.4165C59.6265 62.0834 81.5477 52.9153 92.7632 53.7487C103.979 54.5822 73.9007 60.4165 79.5085 60.4165C85.1162 60.4165 120.292 54.1655 132.017 55.8324" stroke="#8F00FF"/>
</svg>
