<svg width="26" height="26" viewBox="0 0 26 26" fill="none" xmlns="http://www.w3.org/2000/svg">
<path d="M13 16.8728C12.8556 16.8728 12.7201 16.8504 12.5938 16.8057C12.4674 16.7609 12.35 16.684 12.2417 16.5749L8.34168 12.6749C8.14307 12.4763 8.04376 12.2235 8.04376 11.9166C8.04376 11.6096 8.14307 11.3569 8.34168 11.1583C8.54029 10.9596 8.79776 10.856 9.11409 10.8473C9.43043 10.8387 9.68754 10.9333 9.88543 11.1312L11.9167 13.1624V5.41659C11.9167 5.10964 12.0207 4.85217 12.2287 4.64417C12.4367 4.43617 12.6938 4.33253 13 4.33326C13.307 4.33326 13.5644 4.43726 13.7724 4.64526C13.9804 4.85326 14.0841 5.11037 14.0833 5.41659V13.1624L16.1146 11.1312C16.3132 10.9326 16.5707 10.8376 16.887 10.8463C17.2033 10.8549 17.4605 10.9589 17.6583 11.1583C17.857 11.3569 17.9563 11.6096 17.9563 11.9166C17.9563 12.2235 17.857 12.4763 17.6583 12.6749L13.7583 16.5749C13.65 16.6833 13.5326 16.7602 13.4063 16.8057C13.2799 16.8512 13.1445 16.8736 13 16.8728ZM6.50001 21.6666C5.90418 21.6666 5.39393 21.4543 4.96926 21.0296C4.5446 20.6049 4.33262 20.095 4.33335 19.4999V17.3333C4.33335 17.0263 4.43735 16.7688 4.64535 16.5608C4.85335 16.3528 5.11046 16.2492 5.41668 16.2499C5.72362 16.2499 5.98109 16.3539 6.18909 16.5619C6.39709 16.7699 6.50073 17.027 6.50001 17.3333V19.4999H19.5V17.3333C19.5 17.0263 19.604 16.7688 19.812 16.5608C20.02 16.3528 20.2771 16.2492 20.5833 16.2499C20.8903 16.2499 21.1478 16.3539 21.3558 16.5619C21.5638 16.7699 21.6674 17.027 21.6667 17.3333V19.4999C21.6667 20.0958 21.4543 20.606 21.0297 21.0307C20.605 21.4553 20.0951 21.6673 19.5 21.6666H6.50001Z" fill="white"/>
</svg>
