<svg width="26" height="26" viewBox="0 0 26 26" fill="none" xmlns="http://www.w3.org/2000/svg">
<path d="M12.9999 16.8728C12.8555 16.8728 12.7201 16.8504 12.5937 16.8057C12.4673 16.7609 12.3499 16.684 12.2416 16.5749L8.34159 12.6749C8.14297 12.4763 8.04367 12.2235 8.04367 11.9166C8.04367 11.6096 8.14297 11.3569 8.34159 11.1583C8.5402 10.9596 8.79767 10.856 9.114 10.8473C9.43034 10.8387 9.68745 10.9333 9.88534 11.1312L11.9166 13.1624V5.41659C11.9166 5.10964 12.0206 4.85217 12.2286 4.64417C12.4366 4.43617 12.6937 4.33253 12.9999 4.33326C13.3069 4.33326 13.5643 4.43726 13.7723 4.64526C13.9803 4.85326 14.084 5.11037 14.0833 5.41659V13.1624L16.1145 11.1312C16.3131 10.9326 16.5706 10.8376 16.8869 10.8463C17.2033 10.8549 17.4604 10.9589 17.6582 11.1583C17.8569 11.3569 17.9562 11.6096 17.9562 11.9166C17.9562 12.2235 17.8569 12.4763 17.6582 12.6749L13.7583 16.5749C13.6499 16.6833 13.5326 16.7602 13.4062 16.8057C13.2798 16.8512 13.1444 16.8736 12.9999 16.8728ZM6.49992 21.6666C5.90409 21.6666 5.39384 21.4543 4.96917 21.0296C4.5445 20.6049 4.33253 20.095 4.33325 19.4999V17.3333C4.33325 17.0263 4.43725 16.7688 4.64525 16.5608C4.85325 16.3528 5.11036 16.2492 5.41659 16.2499C5.72353 16.2499 5.981 16.3539 6.189 16.5619C6.397 16.7699 6.50064 17.027 6.49992 17.3333V19.4999H19.4999V17.3333C19.4999 17.0263 19.6039 16.7688 19.8119 16.5608C20.0199 16.3528 20.277 16.2492 20.5832 16.2499C20.8902 16.2499 21.1477 16.3539 21.3557 16.5619C21.5637 16.7699 21.6673 17.027 21.6666 17.3333V19.4999C21.6666 20.0958 21.4542 20.606 21.0296 21.0307C20.6049 21.4553 20.095 21.6673 19.4999 21.6666H6.49992Z" fill="black"/>
</svg>
