<svg width="24" height="24" viewBox="0 0 24 24" fill="none" xmlns="http://www.w3.org/2000/svg">
<path d="M12 17.3625C11.8 17.3625 11.6125 17.3315 11.4375 17.2695C11.2625 17.2075 11.1 17.101 10.95 16.95L5.55 11.55C5.275 11.275 5.1375 10.925 5.1375 10.5C5.1375 10.075 5.275 9.725 5.55 9.45C5.825 9.175 6.1815 9.0315 6.6195 9.0195C7.0575 9.0075 7.4135 9.1385 7.6875 9.4125L10.5 12.225V1.5C10.5 1.075 10.644 0.718505 10.932 0.430505C11.22 0.142505 11.576 -0.000994809 12 5.1903e-06C12.425 5.1903e-06 12.7815 0.144005 13.0695 0.432005C13.3575 0.720005 13.501 1.076 13.5 1.5V12.225L16.3125 9.4125C16.5875 9.1375 16.944 9.006 17.382 9.018C17.82 9.03 18.176 9.174 18.45 9.45C18.725 9.725 18.8625 10.075 18.8625 10.5C18.8625 10.925 18.725 11.275 18.45 11.55L13.05 16.95C12.9 17.1 12.7375 17.2065 12.5625 17.2695C12.3875 17.3325 12.2 17.3635 12 17.3625ZM3 24C2.175 24 1.4685 23.706 0.880502 23.118C0.292502 22.53 -0.000997453 21.824 2.54669e-06 21V18C2.54669e-06 17.575 0.144003 17.2185 0.432003 16.9305C0.720002 16.6425 1.076 16.499 1.5 16.5C1.925 16.5 2.2815 16.644 2.5695 16.932C2.8575 17.22 3.001 17.576 3 18V21H21V18C21 17.575 21.144 17.2185 21.432 16.9305C21.72 16.6425 22.076 16.499 22.5 16.5C22.925 16.5 23.2815 16.644 23.5695 16.932C23.8575 17.22 24.001 17.576 24 18V21C24 21.825 23.706 22.5315 23.118 23.1195C22.53 23.7075 21.824 24.001 21 24H3Z" fill="white"/>
</svg>
