<svg width="18" height="18" viewBox="0 0 18 18" fill="none" xmlns="http://www.w3.org/2000/svg">
<path d="M8.99992 12.8728C8.85547 12.8728 8.72006 12.8504 8.59367 12.8057C8.46728 12.7609 8.34992 12.684 8.24159 12.5749L4.34159 8.67492C4.14297 8.47631 4.04367 8.22353 4.04367 7.91659C4.04367 7.60964 4.14297 7.35686 4.34159 7.15825C4.5402 6.95964 4.79767 6.856 5.114 6.84734C5.43034 6.83867 5.68745 6.93328 5.88534 7.13117L7.91659 9.16242V1.41659C7.91659 1.10964 8.02059 0.852172 8.22859 0.644172C8.43659 0.436173 8.6937 0.332533 8.99992 0.333256C9.30686 0.333256 9.56433 0.437256 9.77233 0.645256C9.98033 0.853256 10.084 1.11037 10.0833 1.41659V9.16242L12.1145 7.13117C12.3131 6.93256 12.5706 6.83759 12.8869 6.84625C13.2033 6.85492 13.4604 6.95892 13.6582 7.15825C13.8569 7.35686 13.9562 7.60964 13.9562 7.91659C13.9562 8.22353 13.8569 8.47631 13.6582 8.67492L9.75825 12.5749C9.64992 12.6833 9.53256 12.7602 9.40617 12.8057C9.27978 12.8512 9.14436 12.8736 8.99992 12.8728ZM2.49992 17.6666C1.90409 17.6666 1.39384 17.4543 0.96917 17.0296C0.544504 16.6049 0.332532 16.095 0.333254 15.4999V13.3333C0.333254 13.0263 0.437254 12.7688 0.645254 12.5608C0.853254 12.3528 1.11036 12.2492 1.41659 12.2499C1.72353 12.2499 1.981 12.3539 2.189 12.5619C2.397 12.7699 2.50064 13.027 2.49992 13.3333V15.4999H15.4999V13.3333C15.4999 13.0263 15.6039 12.7688 15.8119 12.5608C16.0199 12.3528 16.277 12.2492 16.5832 12.2499C16.8902 12.2499 17.1477 12.3539 17.3557 12.5619C17.5637 12.7699 17.6673 13.027 17.6666 13.3333V15.4999C17.6666 16.0958 17.4542 16.606 17.0296 17.0307C16.6049 17.4553 16.095 17.6673 15.4999 17.6666H2.49992Z" fill="white"/>
</svg>
