<svg width="24" height="24" viewBox="0 0 24 24" fill="none" xmlns="http://www.w3.org/2000/svg">
<mask id="mask0_153_16" style="mask-type:luminance" maskUnits="userSpaceOnUse" x="0" y="0" width="24" height="24">
<path d="M23 12C23.0019 13.4489 22.7166 14.8838 22.1607 16.2217C21.6047 17.5597 20.7892 18.7743 19.7611 19.7952C18.7414 20.813 17.5311 21.62 16.1995 22.1699C14.8678 22.7198 13.4408 23.0019 12 23C5.92472 23 1.00001 18.0753 1.00001 12C0.996164 9.17949 2.07959 6.466 4.02501 4.42376C5.0515 3.34059 6.28822 2.47827 7.65949 1.88957C9.03075 1.30087 10.5077 0.998176 12 1.00001C13.4408 0.998143 14.8678 1.28023 16.1995 1.83013C17.5311 2.38004 18.7414 3.18699 19.7611 4.20486C20.7892 5.22579 21.6047 6.44033 22.1607 7.7783C22.7166 9.11627 23.0019 10.5511 23 12Z" fill="white" stroke="white" stroke-width="1.5" stroke-linecap="round" stroke-linejoin="round"/>
<path d="M23 12C21.3951 12 16.9676 11.395 13.0049 13.1347C8.70002 15.025 5.58317 17.9571 4.22467 19.7809" stroke="black" stroke-width="1.5" stroke-linecap="round" stroke-linejoin="round"/>
<path d="M7.87503 1.79974C9.59653 3.3887 13.353 7.43395 14.75 11.4501C16.147 15.4662 16.664 20.4041 16.983 21.8093" stroke="black" stroke-width="1.5" stroke-linecap="round" stroke-linejoin="round"/>
<path d="M1.08472 10.625C3.16262 10.7504 8.66317 10.8632 12.1832 9.36004C15.7032 7.85689 18.732 5.09203 19.771 4.21478" stroke="black" stroke-width="1.5" stroke-linecap="round" stroke-linejoin="round"/>
<path d="M1.82501 16.1872C2.79428 18.5334 4.5424 20.474 6.77502 21.6822M1.00001 12C0.996164 9.17949 2.07959 6.466 4.02501 4.42376C5.0515 3.34059 6.28822 2.47827 7.65949 1.88957C9.03075 1.30087 10.5077 0.998175 12 1.00001M16.4 1.91521C17.6527 2.46331 18.7925 3.23974 19.7611 4.20486C20.7892 5.22579 21.6047 6.44032 22.1607 7.7783C22.7166 9.11627 23.0019 10.5511 23 12C23 13.3541 22.7553 14.6516 22.307 15.85M12 23C13.4408 23.0019 14.8678 22.7198 16.1995 22.1699C17.5311 21.62 18.7414 20.813 19.7611 19.7952" stroke="white" stroke-width="1.5" stroke-linecap="round" stroke-linejoin="round"/>
</mask>
<g mask="url(#mask0_153_16)">
<path d="M-1.19995 -1.20001H25.2001V25.2H-1.19995V-1.20001Z" fill="#EA4C89"/>
</g>
</svg>
