<svg width="23" height="24" viewBox="0 0 23 24" fill="none" xmlns="http://www.w3.org/2000/svg">
<g clip-path="url(#clip0_12_13)">
<path d="M11.5 0.600006C5.47424 0.600006 0.575012 5.72545 0.575012 12.0293C1.17278 27.1922 21.8295 27.1879 22.425 12.0293C22.425 5.72545 17.5258 0.600006 11.5 0.600006ZM18.725 5.87281C20.0215 7.53385 20.8129 9.65209 20.8274 11.9582C20.5215 11.8872 17.4382 11.2368 14.3306 11.6434C14.0813 10.9963 13.8113 10.3478 13.5148 9.72313C16.9625 8.25001 18.5261 6.15217 18.725 5.87281ZM11.5 2.27641C13.8743 2.27641 16.04 3.20593 17.6861 4.74001C17.521 4.98889 16.1177 6.96481 12.7965 8.26537C11.267 5.32921 9.57238 2.91121 9.31501 2.55073C10.0142 2.37793 10.7475 2.28145 11.5 2.27641ZM7.53297 3.20593C7.78068 3.56161 9.45094 5.97937 10.9949 8.85457C6.62976 10.0634 2.78416 10.0483 2.36671 10.0433C2.96885 7.01569 4.92569 4.49617 7.53297 3.20593ZM2.16753 12.0497C2.16753 11.9482 2.16753 11.8464 2.17236 11.7499C2.58015 11.755 7.10563 11.8159 11.762 10.3582C12.029 10.9018 12.2864 11.4605 12.5194 12.0142C12.3931 12.0497 12.2717 12.0902 12.1502 12.131C7.33839 13.7566 4.77941 18.191 4.56597 18.5722C3.07557 16.8449 2.16753 14.5541 2.16753 12.0497ZM11.5048 21.8078C9.34905 21.8078 7.35817 21.0358 5.77531 19.7455C5.94045 19.3898 7.83404 15.57 13.0976 13.6498C13.1121 13.6447 13.1365 13.6397 13.1558 13.6294C14.4668 17.1902 15.0057 20.172 15.1467 21.0305C14.0298 21.5335 12.7965 21.8078 11.5048 21.8078ZM16.7196 20.1367C16.6177 19.5425 16.1223 16.6877 14.9038 13.1774C17.8269 12.6898 20.3955 13.4873 20.7159 13.5941C20.2982 16.3116 18.8076 18.6533 16.7196 20.1367Z" fill="black"/>
</g>
<defs>
<clipPath id="clip0_12_13">
<rect width="23" height="24" fill="white"/>
</clipPath>
</defs>
</svg>
