<svg width="345" height="164" viewBox="0 0 345 164" fill="none" xmlns="http://www.w3.org/2000/svg">
<mask id="mask0_34_84" style="mask-type:alpha" maskUnits="userSpaceOnUse" x="0" y="0" width="345" height="164">
<rect width="345" height="164" rx="20" fill="#BBFF86"/>
</mask>
<g mask="url(#mask0_34_84)">
<g opacity="0.25">
<mask id="mask1_34_84" style="mask-type:luminance" maskUnits="userSpaceOnUse" x="248" y="13" width="93" height="139">
<path d="M248 13.2326L340.249 13L340.597 151.345L248.349 151.578L248 13.2326Z" fill="white"/>
</mask>
<g mask="url(#mask1_34_84)">
<path d="M271.415 151.52C284.143 151.488 294.447 141.132 294.414 128.404L294.356 105.346L271.299 105.404C258.571 105.437 248.267 115.793 248.299 128.521C248.331 141.248 258.687 151.552 271.415 151.52Z" fill="#0ACF83"/>
<path d="M248.183 82.4054C248.151 69.6776 258.455 59.322 271.183 59.2899L294.24 59.2318L294.356 105.346L271.299 105.405C258.571 105.437 248.215 95.1332 248.183 82.4054Z" fill="#A259FF"/>
<path d="M248.068 36.29C248.036 23.5622 258.34 13.2066 271.068 13.1746L294.125 13.1164L294.242 59.2318L271.184 59.2899C258.457 59.322 248.1 49.0178 248.068 36.29Z" fill="#F24E1E"/>
<path d="M294.124 13.1164L317.181 13.0583C329.909 13.0262 340.265 23.3297 340.297 36.0575C340.329 48.7852 330.025 59.1415 317.297 59.1736L294.24 59.2318L294.124 13.1164Z" fill="#FF7262"/>
<path d="M340.413 82.1728C340.445 94.9006 330.141 105.256 317.413 105.288C304.686 105.32 294.33 95.0169 294.298 82.2891C294.266 69.5614 304.569 59.2058 317.297 59.1737C330.025 59.1416 340.381 69.4451 340.413 82.1728Z" fill="#1ABCFE"/>
</g>
</g>
</g>
</svg>
