<svg width="108" height="33" viewBox="0 0 108 33" fill="none" xmlns="http://www.w3.org/2000/svg">
<path d="M26.383 11.5101H13.863V14.9518H22.743C22.303 19.7693 17.97 21.8372 13.878 21.8372C12.5817 21.8424 11.2972 21.6084 10.0996 21.1487C8.90193 20.6891 7.81514 20.013 6.90264 19.1599C5.99014 18.3069 5.27021 17.2939 4.78489 16.1803C4.29958 15.0667 4.05859 13.8746 4.076 12.6737C4.076 7.46341 8.43 3.45192 13.89 3.45192C18.102 3.45192 20.584 5.93942 20.584 5.93942L23.184 3.44358C23.184 3.44358 19.844 0 13.754 0C5.999 0 0 6.06356 0 12.6126C0 19.03 5.643 25.2882 13.95 25.2882C21.257 25.2882 26.606 20.6504 26.606 13.7929C26.606 12.3458 26.379 11.5101 26.379 11.5101H26.383Z" fill="#4885ED"/>
<path d="M36.6401 9.01704C31.5021 9.01704 27.8201 12.7386 27.8201 17.0771C27.8201 21.4814 31.3901 25.2715 36.7001 25.2715C41.5061 25.2715 45.4431 21.8686 45.4431 17.1716C45.4431 11.7982 40.8631 9.01611 36.6401 9.01611V9.01704ZM36.6901 12.2096C39.2161 12.2096 41.6101 14.1023 41.6101 17.1512C41.6101 20.1343 39.2261 22.0817 36.6781 22.0817C33.8781 22.0817 31.6781 20.0046 31.6781 17.1271C31.6781 14.3107 33.8581 12.2096 36.6981 12.2096H36.6901Z" fill="#DB3236"/>
<path d="M55.8212 9.01704C50.6832 9.01704 47.0012 12.7386 47.0012 17.0771C47.0012 21.4814 50.5712 25.2715 55.8812 25.2715C60.6872 25.2715 64.6242 21.8686 64.6242 17.1716C64.6242 11.7982 60.0442 9.01611 55.8212 9.01611V9.01704ZM55.8712 12.2096C58.3972 12.2096 60.7912 14.1023 60.7912 17.1512C60.7912 20.1343 58.4072 22.0817 55.8592 22.0817C53.0592 22.0817 50.8592 20.0046 50.8592 17.1271C50.8592 14.3107 53.0392 12.2096 55.8792 12.2096H55.8712Z" fill="#F4C20D"/>
<path d="M74.6342 9.02625C69.9182 9.02625 66.2122 12.8524 66.2122 17.1474C66.2122 22.039 70.5092 25.2834 74.5522 25.2834C77.0522 25.2834 78.3822 24.3635 79.3522 23.3083V24.911C79.3522 27.7154 77.5142 29.395 74.7402 29.395C72.0602 29.395 70.7162 27.5486 70.2402 26.5017L66.8682 27.7987C68.0642 30.1426 70.4722 32.5857 74.7682 32.5857C79.4682 32.5857 83.0302 29.8499 83.0302 24.1115V9.51448H79.3662V10.8912C78.2362 9.76091 76.6882 9.02625 74.6362 9.02625H74.6342ZM74.9742 12.2132C77.2862 12.2132 79.6602 14.042 79.6602 17.165C79.6602 20.34 77.2902 22.0891 74.9232 22.0891C72.4092 22.0891 70.0702 20.1991 70.0702 17.1947C70.0702 14.0744 72.5002 12.2132 74.9742 12.2132Z" fill="#4885ED"/>
<path d="M99.4061 9.00684C94.9581 9.00684 91.2231 12.2864 91.2231 17.1225C91.2231 22.242 95.3861 25.2779 99.8231 25.2779C103.535 25.2779 105.823 23.3973 107.173 21.7111L104.14 19.8416C103.353 20.9718 102.037 22.0789 99.8421 22.0789C97.3761 22.0789 96.2421 20.8282 95.5391 19.6146L107.302 15.0936L106.702 13.7687C105.566 11.1747 102.914 9.00684 99.4061 9.00684ZM99.5591 12.1327C101.162 12.1327 102.315 12.922 102.805 13.8688L94.9491 16.9103C94.6091 14.5553 97.0191 12.1327 99.5491 12.1327H99.5591Z" fill="#DB3236"/>
<path d="M85.6062 24.7962H89.4702V0.841187H85.6062V24.7962Z" fill="#3CBA54"/>
</svg>
