<svg width="20" height="17" viewBox="0 0 20 17" fill="none" xmlns="http://www.w3.org/2000/svg">
<path d="M19.9908 0.936876C19.8035 0.239201 18.8171 0 16.5695 0H16.532C14.7715 0 12.2492 0.149502 8.7405 0.318937C2.07275 0.637874 0 0.837205 0 1.83388C0.00614845 1.97993 0.0398257 2.12441 0.0998938 2.26246C0.32465 2.83056 1.29859 3 3.28393 3C4.71987 3 6.69273 2.9103 9.31488 2.83056C16.6194 2.60133 19.9908 2.37209 19.9908 1.14618C20.0031 1.07675 20.0031 1.0063 19.9908 0.936876Z" fill="#8F00FF"/>
<path d="M19.9908 7.93688C19.8035 7.2392 18.8171 7 16.5695 7H16.532C14.7715 7 12.2492 7.1495 8.7405 7.31894C2.07275 7.63787 0 7.83721 0 8.83388C0.00614845 8.97993 0.0398257 9.12441 0.0998938 9.26246C0.32465 9.83056 1.29859 10 3.28393 10C4.71987 10 6.69273 9.9103 9.31488 9.83056C16.6194 9.60133 19.9908 9.37209 19.9908 8.14618C20.0031 8.07675 20.0031 8.0063 19.9908 7.93688Z" fill="#8F00FF"/>
<path d="M19.9908 14.9369C19.8035 14.2392 18.8171 14 16.5695 14H16.532C14.7715 14 12.2492 14.1495 8.7405 14.3189C2.07275 14.6379 0 14.8372 0 15.8339C0.00614845 15.9799 0.0398257 16.1244 0.0998938 16.2625C0.32465 16.8306 1.29859 17 3.28393 17C4.71987 17 6.69273 16.9103 9.31488 16.8306C16.6194 16.6013 19.9908 16.3721 19.9908 15.1462C20.0031 15.0768 20.0031 15.0063 19.9908 14.9369Z" fill="#8F00FF"/>
</svg>
