<svg width="27" height="27" viewBox="0 0 27 27" fill="none" xmlns="http://www.w3.org/2000/svg">
<g filter="url(#filter0_d_485_271)">
<path d="M14.5395 9.80377C17.1566 11.2892 18.9316 14.1528 18.9316 17.3475C18.9316 18.6515 18.6355 19.8791 18.1075 20.97H21.4999C22.1253 20.97 22.725 21.2185 23.1672 21.6607C23.6094 22.1029 23.8579 22.7026 23.8579 23.328C23.8579 23.9534 23.6094 24.5531 23.1672 24.9953C22.725 25.4375 22.1253 25.686 21.4999 25.686H11.3554C11.174 25.686 11.0007 25.6835 10.8347 25.6795C10.7209 25.6835 10.607 25.686 10.4914 25.686C4.84729 25.686 2 21.9837 2 17.3223C2 13.8372 4.14117 10.7596 7.17069 9.42874L7.19916 9.41247C8.36899 8.92029 10.6672 7.13138 12.6269 4.12138C13.6056 2.86288 15.087 2.68634 16.1218 3.47789C17.1557 4.26863 17.2477 5.74271 16.5993 6.79133C16.1551 7.50966 15.0292 9.10984 14.5395 9.80377Z" fill="url(#paint0_linear_485_271)"/>
<path d="M14.5395 9.80377C17.1566 11.2892 18.9316 14.1528 18.9316 17.3475C18.9316 18.6515 18.6355 19.8791 18.1075 20.97H21.4999C22.1253 20.97 22.725 21.2185 23.1672 21.6607C23.6094 22.1029 23.8579 22.7026 23.8579 23.328C23.8579 23.9534 23.6094 24.5531 23.1672 24.9953C22.725 25.4375 22.1253 25.686 21.4999 25.686H11.3554C11.174 25.686 11.0007 25.6835 10.8347 25.6795C10.7209 25.6835 10.607 25.686 10.4914 25.686C4.84729 25.686 2 21.9837 2 17.3223C2 13.8372 4.14117 10.7596 7.17069 9.42874L7.19916 9.41247C8.36899 8.92029 10.6672 7.13138 12.6269 4.12138C13.6056 2.86288 15.087 2.68634 16.1218 3.47789C17.1557 4.26863 17.2477 5.74271 16.5993 6.79133C16.1551 7.50966 15.0292 9.10984 14.5395 9.80377Z" fill="url(#paint1_radial_485_271)"/>
</g>
<g filter="url(#filter1_f_485_271)">
<path d="M11.8389 13.2977C11.8389 12.1271 12.7093 11.1777 13.7815 11.1777H16.6077C17.6807 11.1777 18.5503 12.1271 18.5503 13.2977C18.5503 14.0641 18.1786 14.7352 17.6205 15.107C18.1761 15.4568 18.5503 16.1117 18.5503 16.8617C18.5503 17.6216 18.1672 18.283 17.6002 18.6295C18.1688 18.9948 18.5503 19.6708 18.5503 20.4428C18.5503 21.053 18.4324 21.9674 17.4619 22.1919L13.7661 22.5458C12.702 22.5458 11.8389 21.6045 11.8389 20.4428C11.8389 19.67 12.2212 18.9948 12.7899 18.6287C12.2228 18.283 11.8389 17.6216 11.8389 16.8617C11.8389 16.1117 12.2131 15.4568 12.7687 15.107C12.2106 14.7352 11.8389 14.0641 11.8389 13.2977Z" fill="url(#paint2_radial_485_271)"/>
</g>
<path d="M21.5002 20.97H13.8092C12.5072 20.97 11.4517 22.0255 11.4517 23.3275V23.3283C11.4517 24.6304 12.5072 25.6859 13.8092 25.6859H21.5002C22.8022 25.6859 23.8577 24.6304 23.8577 23.3283V23.3275C23.8577 22.0255 22.8022 20.97 21.5002 20.97Z" fill="url(#paint3_radial_485_271)"/>
<path d="M21.5002 20.97H13.8092C12.5072 20.97 11.4517 22.0255 11.4517 23.3275V23.3283C11.4517 24.6304 12.5072 25.6859 13.8092 25.6859H21.5002C22.8022 25.6859 23.8577 24.6304 23.8577 23.3283V23.3275C23.8577 22.0255 22.8022 20.97 21.5002 20.97Z" fill="url(#paint4_radial_485_271)"/>
<path d="M18.3576 9.1106H14.8921C13.5828 9.1106 12.5215 10.1719 12.5215 11.4812C12.5215 12.7904 13.5828 13.8517 14.8921 13.8517H18.3576C19.6669 13.8517 20.7282 12.7904 20.7282 11.4812C20.7282 10.1719 19.6669 9.1106 18.3576 9.1106Z" fill="url(#paint5_radial_485_271)"/>
<path d="M18.3576 9.1106H14.8921C13.5828 9.1106 12.5215 10.1719 12.5215 11.4812C12.5215 12.7904 13.5828 13.8517 14.8921 13.8517H18.3576C19.6669 13.8517 20.7282 12.7904 20.7282 11.4812C20.7282 10.1719 19.6669 9.1106 18.3576 9.1106Z" fill="url(#paint6_linear_485_271)"/>
<path d="M18.3763 17.1191H14.8733C13.5745 17.1191 12.5215 18.1719 12.5215 19.4706C12.5215 20.7693 13.5745 21.8221 14.8733 21.8221H18.3763C19.6752 21.8221 20.7282 20.7693 20.7282 19.4706C20.7282 18.1719 19.6752 17.1191 18.3763 17.1191Z" fill="url(#paint7_radial_485_271)"/>
<path d="M18.3763 17.1191H14.8733C13.5745 17.1191 12.5215 18.1719 12.5215 19.4706C12.5215 20.7693 13.5745 21.8221 14.8733 21.8221H18.3763C19.6752 21.8221 20.7282 20.7693 20.7282 19.4706C20.7282 18.1719 19.6752 17.1191 18.3763 17.1191Z" fill="url(#paint8_linear_485_271)"/>
<path d="M18.3763 17.1191H14.8733C13.5745 17.1191 12.5215 18.1719 12.5215 19.4706C12.5215 20.7693 13.5745 21.8221 14.8733 21.8221H18.3763C19.6752 21.8221 20.7282 20.7693 20.7282 19.4706C20.7282 18.1719 19.6752 17.1191 18.3763 17.1191Z" fill="url(#paint9_radial_485_271)"/>
<g filter="url(#filter2_f_485_271)">
<path d="M19.1544 13.0833H14.17C14.0154 13.0833 13.8901 13.2085 13.8901 13.3631C13.8901 13.5177 14.0154 13.6429 14.17 13.6429H19.1544C19.3089 13.6429 19.4342 13.5177 19.4342 13.3631C19.4342 13.2085 19.3089 13.0833 19.1544 13.0833Z" fill="#C26B04"/>
</g>
<g filter="url(#filter3_f_485_271)">
<path d="M19.1544 17.2896H14.17C14.0154 17.2896 13.8901 17.4148 13.8901 17.5694C13.8901 17.724 14.0154 17.8492 14.17 17.8492H19.1544C19.3089 17.8492 19.4342 17.724 19.4342 17.5694C19.4342 17.4148 19.3089 17.2896 19.1544 17.2896Z" fill="#C26B04"/>
</g>
<path d="M18.4658 13.2034H14.7839C13.5344 13.2034 12.5215 14.2163 12.5215 15.4657V15.4666C12.5215 16.716 13.5344 17.7289 14.7839 17.7289H18.4658C19.7153 17.7289 20.7282 16.716 20.7282 15.4666V15.4657C20.7282 14.2163 19.7153 13.2034 18.4658 13.2034Z" fill="url(#paint10_radial_485_271)"/>
<path d="M18.4658 13.2034H14.7839C13.5344 13.2034 12.5215 14.2163 12.5215 15.4657V15.4666C12.5215 16.716 13.5344 17.7289 14.7839 17.7289H18.4658C19.7153 17.7289 20.7282 16.716 20.7282 15.4666V15.4657C20.7282 14.2163 19.7153 13.2034 18.4658 13.2034Z" fill="url(#paint11_linear_485_271)"/>
<path d="M18.4658 13.2034H14.7839C13.5344 13.2034 12.5215 14.2163 12.5215 15.4657V15.4666C12.5215 16.716 13.5344 17.7289 14.7839 17.7289H18.4658C19.7153 17.7289 20.7282 16.716 20.7282 15.4666V15.4657C20.7282 14.2163 19.7153 13.2034 18.4658 13.2034Z" fill="url(#paint12_radial_485_271)"/>
<path d="M8.58511 13.3328C7.72441 12.6738 6.61153 11.1282 6.71973 10.0315C6.7604 9.61015 6.82955 9.6191 7.19888 9.41328C8.36872 8.92029 10.6669 7.13138 12.6266 4.12138C13.6053 2.86288 15.0867 2.68634 16.1215 3.47789C17.1555 4.26863 17.2474 5.74271 16.599 6.79133C16.0239 7.72199 14.3049 10.1341 14.3049 10.1341L11.8904 12.8919C11.7024 13.1379 11.4677 13.3444 11.1998 13.4997C10.9319 13.6551 10.636 13.7561 10.3291 13.797C10.0222 13.838 9.71016 13.818 9.41092 13.7384C9.11169 13.6587 8.83107 13.5209 8.58511 13.3328Z" fill="url(#paint13_radial_485_271)"/>
<path d="M8.58511 13.3328C7.72441 12.6738 6.61153 11.1282 6.71973 10.0315C6.7604 9.61015 6.82955 9.6191 7.19888 9.41328C8.36872 8.92029 10.6669 7.13138 12.6266 4.12138C13.6053 2.86288 15.0867 2.68634 16.1215 3.47789C17.1555 4.26863 17.2474 5.74271 16.599 6.79133C16.0239 7.72199 14.3049 10.1341 14.3049 10.1341L11.8904 12.8919C11.7024 13.1379 11.4677 13.3444 11.1998 13.4997C10.9319 13.6551 10.636 13.7561 10.3291 13.797C10.0222 13.838 9.71016 13.818 9.41092 13.7384C9.11169 13.6587 8.83107 13.5209 8.58511 13.3328Z" fill="url(#paint14_radial_485_271)"/>
<defs>
<filter id="filter0_d_485_271" x="0.75" y="0.25" width="25.8579" height="26.686" filterUnits="userSpaceOnUse" color-interpolation-filters="sRGB">
<feFlood flood-opacity="0" result="BackgroundImageFix"/>
<feColorMatrix in="SourceAlpha" type="matrix" values="0 0 0 0 0 0 0 0 0 0 0 0 0 0 0 0 0 0 127 0" result="hardAlpha"/>
<feOffset dx="0.75" dy="-0.75"/>
<feGaussianBlur stdDeviation="1"/>
<feComposite in2="hardAlpha" operator="out"/>
<feColorMatrix type="matrix" values="0 0 0 0 0.898039 0 0 0 0 0.470588 0 0 0 0 0.364706 0 0 0 1 0"/>
<feBlend mode="normal" in2="BackgroundImageFix" result="effect1_dropShadow_485_271"/>
<feBlend mode="normal" in="SourceGraphic" in2="effect1_dropShadow_485_271" result="shape"/>
</filter>
<filter id="filter1_f_485_271" x="10.3389" y="9.67773" width="9.71143" height="14.3679" filterUnits="userSpaceOnUse" color-interpolation-filters="sRGB">
<feFlood flood-opacity="0" result="BackgroundImageFix"/>
<feBlend mode="normal" in="SourceGraphic" in2="BackgroundImageFix" result="shape"/>
<feGaussianBlur stdDeviation="0.75" result="effect1_foregroundBlur_485_271"/>
</filter>
<filter id="filter2_f_485_271" x="13.1401" y="12.3333" width="7.04395" height="2.05981" filterUnits="userSpaceOnUse" color-interpolation-filters="sRGB">
<feFlood flood-opacity="0" result="BackgroundImageFix"/>
<feBlend mode="normal" in="SourceGraphic" in2="BackgroundImageFix" result="shape"/>
<feGaussianBlur stdDeviation="0.375" result="effect1_foregroundBlur_485_271"/>
</filter>
<filter id="filter3_f_485_271" x="13.1401" y="16.5396" width="7.04395" height="2.05981" filterUnits="userSpaceOnUse" color-interpolation-filters="sRGB">
<feFlood flood-opacity="0" result="BackgroundImageFix"/>
<feBlend mode="normal" in="SourceGraphic" in2="BackgroundImageFix" result="shape"/>
<feGaussianBlur stdDeviation="0.375" result="effect1_foregroundBlur_485_271"/>
</filter>
<linearGradient id="paint0_linear_485_271" x1="11.5816" y1="26.8168" x2="24.8125" y2="10.9533" gradientUnits="userSpaceOnUse">
<stop stop-color="#FDB033"/>
<stop offset="1" stop-color="#FFCB25"/>
</linearGradient>
<radialGradient id="paint1_radial_485_271" cx="0" cy="0" r="1" gradientUnits="userSpaceOnUse" gradientTransform="translate(6.12288 10.3106) scale(7.03261 3.72503)">
<stop stop-color="#FFD337"/>
<stop offset="1" stop-color="#FFC42A" stop-opacity="0"/>
</radialGradient>
<radialGradient id="paint2_radial_485_271" cx="0" cy="0" r="1" gradientUnits="userSpaceOnUse" gradientTransform="translate(12.6817 21.3361) rotate(-56.922) scale(6.98742 5.81504)">
<stop stop-color="#E47938"/>
<stop offset="1" stop-color="#A95A0C"/>
</radialGradient>
<radialGradient id="paint3_radial_485_271" cx="0" cy="0" r="1" gradientUnits="userSpaceOnUse" gradientTransform="translate(22.8213 22.7711) rotate(180) scale(8.22079 1.34871)">
<stop stop-color="#FFD230"/>
<stop offset="1" stop-color="#FFD230" stop-opacity="0"/>
</radialGradient>
<radialGradient id="paint4_radial_485_271" cx="0" cy="0" r="1" gradientUnits="userSpaceOnUse" gradientTransform="translate(23.5919 22.1924) rotate(149.897) scale(2.26424 2.7063)">
<stop stop-color="#FFEA4A"/>
<stop offset="1" stop-color="#FFEA4A" stop-opacity="0"/>
</radialGradient>
<radialGradient id="paint5_radial_485_271" cx="0" cy="0" r="1" gradientUnits="userSpaceOnUse" gradientTransform="translate(19.2623 10.967) rotate(180) scale(4.77939 2.31261)">
<stop stop-color="#FFE949"/>
<stop offset="1" stop-color="#FFBE3E"/>
</radialGradient>
<linearGradient id="paint6_linear_485_271" x1="12.0301" y1="12.1409" x2="15.5526" y2="12.1409" gradientUnits="userSpaceOnUse">
<stop stop-color="#E08C16"/>
<stop offset="1" stop-color="#E08C16" stop-opacity="0"/>
</linearGradient>
<radialGradient id="paint7_radial_485_271" cx="0" cy="0" r="1" gradientUnits="userSpaceOnUse" gradientTransform="translate(19.2623 18.9601) rotate(180) scale(4.77939 2.29401)">
<stop stop-color="#FFE949"/>
<stop offset="1" stop-color="#FFBE3E"/>
</radialGradient>
<linearGradient id="paint8_linear_485_271" x1="12.0301" y1="20.1251" x2="15.5526" y2="20.1251" gradientUnits="userSpaceOnUse">
<stop stop-color="#E08C16"/>
<stop offset="1" stop-color="#E08C16" stop-opacity="0"/>
</linearGradient>
<radialGradient id="paint9_radial_485_271" cx="0" cy="0" r="1" gradientUnits="userSpaceOnUse" gradientTransform="translate(14.0859 21.9124) scale(5.33947 1.50091)">
<stop stop-color="#F27C5B"/>
<stop offset="1" stop-color="#F27C5B" stop-opacity="0"/>
</radialGradient>
<radialGradient id="paint10_radial_485_271" cx="0" cy="0" r="1" gradientUnits="userSpaceOnUse" gradientTransform="translate(19.2623 14.9752) rotate(180) scale(4.77939 2.20721)">
<stop stop-color="#FFE949"/>
<stop offset="1" stop-color="#FFBE3E"/>
</radialGradient>
<linearGradient id="paint11_linear_485_271" x1="12.5215" y1="15.9628" x2="15.4998" y2="15.9628" gradientUnits="userSpaceOnUse">
<stop stop-color="#E08C16"/>
<stop offset="1" stop-color="#E08C16" stop-opacity="0"/>
</linearGradient>
<radialGradient id="paint12_radial_485_271" cx="0" cy="0" r="1" gradientUnits="userSpaceOnUse" gradientTransform="translate(14.0859 17.8152) scale(5.33947 1.13464)">
<stop stop-color="#E9842F"/>
<stop offset="1" stop-color="#E9842F" stop-opacity="0"/>
</radialGradient>
<radialGradient id="paint13_radial_485_271" cx="0" cy="0" r="1" gradientUnits="userSpaceOnUse" gradientTransform="translate(10.466 6.51717) rotate(44.029) scale(2.1215 6.1342)">
<stop stop-color="#D6983B"/>
<stop offset="0.858" stop-color="#D6983B" stop-opacity="0"/>
</radialGradient>
<radialGradient id="paint14_radial_485_271" cx="0" cy="0" r="1" gradientUnits="userSpaceOnUse" gradientTransform="translate(17.0098 3.82245) rotate(143.588) scale(3.29774 3.40485)">
<stop stop-color="#FFEA4A"/>
<stop offset="1" stop-color="#FFEA4A" stop-opacity="0"/>
</radialGradient>
</defs>
</svg>
