<svg width="40" height="40" viewBox="0 0 40 40" fill="none" xmlns="http://www.w3.org/2000/svg">
<g clip-path="url(#clip0_150_2)">
<g filter="url(#filter0_d_150_2)">
<path d="M36.2437 17.0075C35.37 15.9975 33.665 15.3962 32.1225 16.1975C30.5787 16.9975 29.3625 17.9175 28.9 18.3512C28.9 18.3512 28.0887 18.9062 28.0887 17.87V6.29499C28.0887 4.20499 26.6825 2.58374 24.8075 2.58374C23.05 2.58374 21.5262 3.98999 21.5262 6.29624L21.4787 15.6787H11.1362V10.7087C11.1362 8.63874 9.68998 7.10874 7.89373 7.10874C6.09623 7.10874 4.62623 8.86874 4.62623 10.5675C4.62623 12.2675 4.60498 24.5912 4.60498 24.5912C4.60498 33.47 10.015 37.4162 16.6712 37.4162C20.0575 37.4162 23.4337 35.8912 25.6575 33.5512C28.48 30.5825 27.6112 29.41 30.6087 26.2175C32.1212 24.4887 34.5325 22.8337 35.8525 21.7437C37.1737 20.6562 37.425 18.375 36.2437 17.0075Z" fill="#FFBF40"/>
<path d="M36.2437 17.0075C35.37 15.9975 33.665 15.3962 32.1225 16.1975C30.5787 16.9975 29.3625 17.9175 28.9 18.3512C28.9 18.3512 28.0887 18.9062 28.0887 17.87V6.29499C28.0887 4.20499 26.6825 2.58374 24.8075 2.58374C23.05 2.58374 21.5262 3.98999 21.5262 6.29624L21.4787 15.6787H11.1362V10.7087C11.1362 8.63874 9.68998 7.10874 7.89373 7.10874C6.09623 7.10874 4.62623 8.86874 4.62623 10.5675C4.62623 12.2675 4.60498 24.5912 4.60498 24.5912C4.60498 33.47 10.015 37.4162 16.6712 37.4162C20.0575 37.4162 23.4337 35.8912 25.6575 33.5512C28.48 30.5825 27.6112 29.41 30.6087 26.2175C32.1212 24.4887 34.5325 22.8337 35.8525 21.7437C37.1737 20.6562 37.425 18.375 36.2437 17.0075Z" fill="url(#paint0_radial_150_2)"/>
<path d="M36.2437 17.0075C35.37 15.9975 33.665 15.3962 32.1225 16.1975C30.5787 16.9975 29.3625 17.9175 28.9 18.3512C28.9 18.3512 28.0887 18.9062 28.0887 17.87V6.29499C28.0887 4.20499 26.6825 2.58374 24.8075 2.58374C23.05 2.58374 21.5262 3.98999 21.5262 6.29624L21.4787 15.6787H11.1362V10.7087C11.1362 8.63874 9.68998 7.10874 7.89373 7.10874C6.09623 7.10874 4.62623 8.86874 4.62623 10.5675C4.62623 12.2675 4.60498 24.5912 4.60498 24.5912C4.60498 33.47 10.015 37.4162 16.6712 37.4162C20.0575 37.4162 23.4337 35.8912 25.6575 33.5512C28.48 30.5825 27.6112 29.41 30.6087 26.2175C32.1212 24.4887 34.5325 22.8337 35.8525 21.7437C37.1737 20.6562 37.425 18.375 36.2437 17.0075Z" fill="url(#paint1_radial_150_2)"/>
</g>
<g filter="url(#filter1_f_150_2)">
<path d="M20 16.715C20 15.4392 18.9658 14.405 17.69 14.405C16.4142 14.405 15.38 15.4392 15.38 16.715V19.5525C15.38 20.8283 16.4142 21.8625 17.69 21.8625C18.9658 21.8625 20 20.8283 20 19.5525V16.715Z" fill="#B44B10"/>
</g>
<g filter="url(#filter2_f_150_2)">
<path d="M12.3762 12.7925H12.375C10.8535 12.7925 9.62 14.0259 9.62 15.5475V19.1075C9.62 20.629 10.8535 21.8625 12.375 21.8625H12.3762C13.8978 21.8625 15.1312 20.629 15.1312 19.1075V15.5475C15.1312 14.0259 13.8978 12.7925 12.3762 12.7925Z" fill="#B44B10"/>
</g>
<path d="M32.1225 16.1975C33.665 15.3975 35.37 15.9975 36.2438 17.0075C37.425 18.375 37.1738 20.655 35.8525 21.745C35.505 22.0325 35.0813 22.3575 34.6175 22.715C33.3238 23.7112 31.7238 24.9437 30.6088 26.2175C29.6175 27.2737 29.0488 28.1087 28.63 28.86C26.765 24.2475 27.3338 20.3875 28.1713 18.3137C28.3775 18.7087 28.9 18.3512 28.9 18.3512C29.3625 17.9175 30.5788 16.9987 32.1225 16.1975Z" fill="#F4B616"/>
<path d="M32.1225 16.1975C33.665 15.3975 35.37 15.9975 36.2438 17.0075C37.425 18.375 37.1738 20.655 35.8525 21.745C35.505 22.0325 35.0813 22.3575 34.6175 22.715C33.3238 23.7112 31.7238 24.9437 30.6088 26.2175C29.6175 27.2737 29.0488 28.1087 28.63 28.86C26.765 24.2475 27.3338 20.3875 28.1713 18.3137C28.3775 18.7087 28.9 18.3512 28.9 18.3512C29.3625 17.9175 30.5788 16.9987 32.1225 16.1975Z" fill="url(#paint2_radial_150_2)"/>
<path d="M32.1225 16.1975C33.665 15.3975 35.37 15.9975 36.2438 17.0075C37.425 18.375 37.1738 20.655 35.8525 21.745C35.505 22.0325 35.0813 22.3575 34.6175 22.715C33.3238 23.7112 31.7238 24.9437 30.6088 26.2175C29.6175 27.2737 29.0488 28.1087 28.63 28.86C26.765 24.2475 27.3338 20.3875 28.1713 18.3137C28.3775 18.7087 28.9 18.3512 28.9 18.3512C29.3625 17.9175 30.5788 16.9987 32.1225 16.1975Z" fill="url(#paint3_radial_150_2)"/>
<path d="M32.1225 16.1975C33.665 15.3975 35.37 15.9975 36.2438 17.0075C37.425 18.375 37.1738 20.655 35.8525 21.745C35.505 22.0325 35.0813 22.3575 34.6175 22.715C33.3238 23.7112 31.7238 24.9437 30.6088 26.2175C29.6175 27.2737 29.0488 28.1087 28.63 28.86C26.765 24.2475 27.3338 20.3875 28.1713 18.3137C28.3775 18.7087 28.9 18.3512 28.9 18.3512C29.3625 17.9175 30.5788 16.9987 32.1225 16.1975Z" fill="url(#paint4_radial_150_2)"/>
<path d="M32.1225 16.1975C33.665 15.3975 35.37 15.9975 36.2438 17.0075C37.425 18.375 37.1738 20.655 35.8525 21.745C35.505 22.0325 35.0813 22.3575 34.6175 22.715C33.3238 23.7112 31.7238 24.9437 30.6088 26.2175C29.6175 27.2737 29.0488 28.1087 28.63 28.86C26.765 24.2475 27.3338 20.3875 28.1713 18.3137C28.3775 18.7087 28.9 18.3512 28.9 18.3512C29.3625 17.9175 30.5788 16.9987 32.1225 16.1975Z" fill="url(#paint5_radial_150_2)"/>
<path d="M28.095 15.675H21.485L21.5325 6.29499C21.5325 3.98999 23.0562 2.58374 24.8137 2.58374C26.6887 2.58374 28.095 4.20499 28.095 6.29624V15.675Z" fill="url(#paint6_linear_150_2)"/>
<path d="M28.095 15.675H21.485L21.5325 6.29499C21.5325 3.98999 23.0562 2.58374 24.8137 2.58374C26.6887 2.58374 28.095 4.20499 28.095 6.29624V15.675Z" fill="url(#paint7_linear_150_2)"/>
<path d="M28.095 15.675H21.485L21.5325 6.29499C21.5325 3.98999 23.0562 2.58374 24.8137 2.58374C26.6887 2.58374 28.095 4.20499 28.095 6.29624V15.675Z" fill="url(#paint8_radial_150_2)"/>
<path d="M28.095 15.675H21.485L21.5325 6.29499C21.5325 3.98999 23.0562 2.58374 24.8137 2.58374C26.6887 2.58374 28.095 4.20499 28.095 6.29624V15.675Z" fill="url(#paint9_radial_150_2)"/>
<g filter="url(#filter3_d_150_2)">
<path d="M13.46 11.1487H13.3425C11.5896 11.1487 10.1687 12.5697 10.1687 14.3225V18.19C10.1687 19.9428 11.5896 21.3637 13.3425 21.3637H13.46C15.2128 21.3637 16.6337 19.9428 16.6337 18.19V14.3225C16.6337 12.5697 15.2128 11.1487 13.46 11.1487Z" fill="url(#paint10_linear_150_2)"/>
<path d="M13.46 11.1487H13.3425C11.5896 11.1487 10.1687 12.5697 10.1687 14.3225V18.19C10.1687 19.9428 11.5896 21.3637 13.3425 21.3637H13.46C15.2128 21.3637 16.6337 19.9428 16.6337 18.19V14.3225C16.6337 12.5697 15.2128 11.1487 13.46 11.1487Z" fill="url(#paint11_linear_150_2)"/>
<path d="M13.46 11.1487H13.3425C11.5896 11.1487 10.1687 12.5697 10.1687 14.3225V18.19C10.1687 19.9428 11.5896 21.3637 13.3425 21.3637H13.46C15.2128 21.3637 16.6337 19.9428 16.6337 18.19V14.3225C16.6337 12.5697 15.2128 11.1487 13.46 11.1487Z" fill="url(#paint12_radial_150_2)"/>
</g>
<g filter="url(#filter4_d_150_2)">
<path d="M22.22 12.3687C22.22 10.6159 20.7991 9.19498 19.0462 9.19498C17.2934 9.19498 15.8725 10.6159 15.8725 12.3687V18.1887C15.8725 19.9415 17.2934 21.3625 19.0462 21.3625C20.7991 21.3625 22.22 19.9415 22.22 18.1887V12.3687Z" fill="url(#paint13_linear_150_2)"/>
</g>
<g filter="url(#filter5_f_150_2)">
<path d="M26.835 5.64375C26.835 5.07903 26.3772 4.62125 25.8125 4.62125C25.2478 4.62125 24.79 5.07903 24.79 5.64375V16.6537C24.79 17.2185 25.2478 17.6762 25.8125 17.6762C26.3772 17.6762 26.835 17.2185 26.835 16.6537V5.64375Z" fill="url(#paint14_linear_150_2)"/>
</g>
<g filter="url(#filter6_f_150_2)">
<path d="M21.2337 12.2825C21.2337 11.7758 20.823 11.365 20.3162 11.365C19.8095 11.365 19.3987 11.7758 19.3987 12.2825V18.2775C19.3987 18.7842 19.8095 19.195 20.3162 19.195C20.823 19.195 21.2337 18.7842 21.2337 18.2775V12.2825Z" fill="#FFE948"/>
</g>
</g>
<defs>
<filter id="filter0_d_150_2" x="3.25498" y="-0.0662597" width="36.3969" height="38.8325" filterUnits="userSpaceOnUse" color-interpolation-filters="sRGB">
<feFlood flood-opacity="0" result="BackgroundImageFix"/>
<feColorMatrix in="SourceAlpha" type="matrix" values="0 0 0 0 0 0 0 0 0 0 0 0 0 0 0 0 0 0 127 0" result="hardAlpha"/>
<feOffset dx="0.65" dy="-0.65"/>
<feGaussianBlur stdDeviation="1"/>
<feComposite in2="hardAlpha" operator="out"/>
<feColorMatrix type="matrix" values="0 0 0 0 0.94902 0 0 0 0 0.486275 0 0 0 0 0.380392 0 0 0 1 0"/>
<feBlend mode="normal" in2="BackgroundImageFix" result="effect1_dropShadow_150_2"/>
<feBlend mode="normal" in="SourceGraphic" in2="effect1_dropShadow_150_2" result="shape"/>
</filter>
<filter id="filter1_f_150_2" x="13.88" y="12.905" width="7.62" height="10.4575" filterUnits="userSpaceOnUse" color-interpolation-filters="sRGB">
<feFlood flood-opacity="0" result="BackgroundImageFix"/>
<feBlend mode="normal" in="SourceGraphic" in2="BackgroundImageFix" result="shape"/>
<feGaussianBlur stdDeviation="0.75" result="effect1_foregroundBlur_150_2"/>
</filter>
<filter id="filter2_f_150_2" x="7.62" y="10.7925" width="9.51123" height="13.07" filterUnits="userSpaceOnUse" color-interpolation-filters="sRGB">
<feFlood flood-opacity="0" result="BackgroundImageFix"/>
<feBlend mode="normal" in="SourceGraphic" in2="BackgroundImageFix" result="shape"/>
<feGaussianBlur stdDeviation="1" result="effect1_foregroundBlur_150_2"/>
</filter>
<filter id="filter3_d_150_2" x="8.9187" y="8.39874" width="10.465" height="14.215" filterUnits="userSpaceOnUse" color-interpolation-filters="sRGB">
<feFlood flood-opacity="0" result="BackgroundImageFix"/>
<feColorMatrix in="SourceAlpha" type="matrix" values="0 0 0 0 0 0 0 0 0 0 0 0 0 0 0 0 0 0 127 0" result="hardAlpha"/>
<feOffset dx="0.75" dy="-0.75"/>
<feGaussianBlur stdDeviation="1"/>
<feComposite in2="hardAlpha" operator="out"/>
<feColorMatrix type="matrix" values="0 0 0 0 0.921569 0 0 0 0 0.533333 0 0 0 0 0.223529 0 0 0 1 0"/>
<feBlend mode="normal" in2="BackgroundImageFix" result="effect1_dropShadow_150_2"/>
<feBlend mode="normal" in="SourceGraphic" in2="effect1_dropShadow_150_2" result="shape"/>
</filter>
<filter id="filter4_d_150_2" x="14.6225" y="6.44498" width="10.3475" height="16.1675" filterUnits="userSpaceOnUse" color-interpolation-filters="sRGB">
<feFlood flood-opacity="0" result="BackgroundImageFix"/>
<feColorMatrix in="SourceAlpha" type="matrix" values="0 0 0 0 0 0 0 0 0 0 0 0 0 0 0 0 0 0 127 0" result="hardAlpha"/>
<feOffset dx="0.75" dy="-0.75"/>
<feGaussianBlur stdDeviation="1"/>
<feComposite in2="hardAlpha" operator="out"/>
<feColorMatrix type="matrix" values="0 0 0 0 0.921569 0 0 0 0 0.533333 0 0 0 0 0.223529 0 0 0 1 0"/>
<feBlend mode="normal" in2="BackgroundImageFix" result="effect1_dropShadow_150_2"/>
<feBlend mode="normal" in="SourceGraphic" in2="effect1_dropShadow_150_2" result="shape"/>
</filter>
<filter id="filter5_f_150_2" x="23.29" y="3.12125" width="5.04498" height="16.055" filterUnits="userSpaceOnUse" color-interpolation-filters="sRGB">
<feFlood flood-opacity="0" result="BackgroundImageFix"/>
<feBlend mode="normal" in="SourceGraphic" in2="BackgroundImageFix" result="shape"/>
<feGaussianBlur stdDeviation="0.75" result="effect1_foregroundBlur_150_2"/>
</filter>
<filter id="filter6_f_150_2" x="17.3987" y="9.36499" width="5.83502" height="11.83" filterUnits="userSpaceOnUse" color-interpolation-filters="sRGB">
<feFlood flood-opacity="0" result="BackgroundImageFix"/>
<feBlend mode="normal" in="SourceGraphic" in2="BackgroundImageFix" result="shape"/>
<feGaussianBlur stdDeviation="1" result="effect1_foregroundBlur_150_2"/>
</filter>
<radialGradient id="paint0_radial_150_2" cx="0" cy="0" r="1" gradientUnits="userSpaceOnUse" gradientTransform="translate(12.315 14.985) rotate(162.775) scale(8.07222 4.35897)">
<stop stop-color="#E79330"/>
<stop offset="1" stop-color="#E79330" stop-opacity="0"/>
</radialGradient>
<radialGradient id="paint1_radial_150_2" cx="0" cy="0" r="1" gradientUnits="userSpaceOnUse" gradientTransform="translate(29.5275 22.9175) rotate(161.288) scale(11.7875 15.995)">
<stop stop-color="#FFE542"/>
<stop offset="1" stop-color="#FFE542" stop-opacity="0"/>
</radialGradient>
<radialGradient id="paint2_radial_150_2" cx="0" cy="0" r="1" gradientUnits="userSpaceOnUse" gradientTransform="translate(38.0809 22.3428) rotate(170.185) scale(10.2338 16.0689)">
<stop offset="0.693" stop-color="#FFDC42" stop-opacity="0"/>
<stop offset="1" stop-color="#FFDC42"/>
</radialGradient>
<radialGradient id="paint3_radial_150_2" cx="0" cy="0" r="1" gradientUnits="userSpaceOnUse" gradientTransform="translate(33.4455 24.6735) rotate(135.167) scale(10.9186 2.4189)">
<stop stop-color="#F2A159"/>
<stop offset="1" stop-color="#F2A159" stop-opacity="0"/>
</radialGradient>
<radialGradient id="paint4_radial_150_2" cx="0" cy="0" r="1" gradientUnits="userSpaceOnUse" gradientTransform="translate(37.0013 17.2) rotate(152.247) scale(3.86708 4.41394)">
<stop offset="0.103" stop-color="#FFE847"/>
<stop offset="1" stop-color="#FFE847" stop-opacity="0"/>
</radialGradient>
<radialGradient id="paint5_radial_150_2" cx="0" cy="0" r="1" gradientUnits="userSpaceOnUse" gradientTransform="translate(30.5845 16.7632) rotate(59.5) scale(1.07959 3.39715)">
<stop stop-color="#D4A33C"/>
<stop offset="1" stop-color="#D4A33C" stop-opacity="0"/>
</radialGradient>
<linearGradient id="paint6_linear_150_2" x1="21.0925" y1="10.4925" x2="23.4962" y2="10.4925" gradientUnits="userSpaceOnUse">
<stop stop-color="#E3961F"/>
<stop offset="1" stop-color="#E3961F" stop-opacity="0"/>
</linearGradient>
<linearGradient id="paint7_linear_150_2" x1="24.1712" y1="15.985" x2="24.1712" y2="13.0137" gradientUnits="userSpaceOnUse">
<stop stop-color="#FEC942"/>
<stop offset="1" stop-color="#FEC942" stop-opacity="0"/>
</linearGradient>
<radialGradient id="paint8_radial_150_2" cx="0" cy="0" r="1" gradientUnits="userSpaceOnUse" gradientTransform="translate(28.5375 2.58374) rotate(131.001) scale(4.87182 8.26484)">
<stop stop-color="#FFE645"/>
<stop offset="1" stop-color="#FFE645" stop-opacity="0"/>
</radialGradient>
<radialGradient id="paint9_radial_150_2" cx="0" cy="0" r="1" gradientUnits="userSpaceOnUse" gradientTransform="translate(21.8287 12.3987) scale(1.09375 3.82812)">
<stop offset="0.216" stop-color="#D17703"/>
<stop offset="1" stop-color="#D17703" stop-opacity="0"/>
</radialGradient>
<linearGradient id="paint10_linear_150_2" x1="11.8175" y1="14.4275" x2="15.3525" y2="14.5687" gradientUnits="userSpaceOnUse">
<stop stop-color="#FABB25"/>
<stop offset="1" stop-color="#FFD43E"/>
</linearGradient>
<linearGradient id="paint11_linear_150_2" x1="16.1475" y1="16.2562" x2="15.51" y2="16.2562" gradientUnits="userSpaceOnUse">
<stop stop-color="#E59617"/>
<stop offset="1" stop-color="#E59617" stop-opacity="0"/>
</linearGradient>
<radialGradient id="paint12_radial_150_2" cx="0" cy="0" r="1" gradientUnits="userSpaceOnUse" gradientTransform="translate(16.6338 12.9475) rotate(149.179) scale(1.34689 2.81214)">
<stop offset="0.215" stop-color="#AD690C"/>
<stop offset="1" stop-color="#AD690C" stop-opacity="0"/>
</radialGradient>
<linearGradient id="paint13_linear_150_2" x1="16.9375" y1="13.27" x2="22.22" y2="13.27" gradientUnits="userSpaceOnUse">
<stop stop-color="#FABB25"/>
<stop offset="1" stop-color="#FFD43E"/>
</linearGradient>
<linearGradient id="paint14_linear_150_2" x1="25.8125" y1="4.62125" x2="25.8125" y2="17.6762" gradientUnits="userSpaceOnUse">
<stop stop-color="#FFE948"/>
<stop offset="1" stop-color="#FFE948" stop-opacity="0"/>
</linearGradient>
<clipPath id="clip0_150_2">
<rect width="40" height="40" fill="white"/>
</clipPath>
</defs>
</svg>
