<svg width="162" height="156" viewBox="0 0 162 156" fill="none" xmlns="http://www.w3.org/2000/svg">
<g opacity="0.25">
<path d="M37.9187 122.385C36.5741 122.116 35.4984 121.847 34.1537 121.309C32.8091 120.771 31.7334 120.502 30.6577 119.964C28.2373 118.889 26.0859 117.544 23.9345 115.93C19.6317 112.972 16.1356 108.938 13.4463 104.098C10.7571 99.5259 9.14352 94.1474 8.87459 89.0378C8.60566 86.3485 8.87459 83.9281 9.14352 81.2389C9.41244 79.8942 9.68137 78.8185 9.9503 77.4739C10.2192 76.1292 10.7571 75.0535 11.026 73.7089L11.2949 77.4739C11.2949 78.8185 11.5639 79.8942 11.8328 81.2389C12.1017 83.6592 12.6396 86.0796 13.1774 88.231C14.2531 92.8027 15.8667 97.1056 18.287 101.139C20.7074 105.173 23.3966 108.938 26.8927 112.434C28.5063 114.048 30.3887 115.662 32.2712 117.275C33.078 118.082 34.1537 118.889 35.2294 119.695L37.9187 122.385ZM37.1119 132.066C36.3051 132.604 35.2294 132.873 34.1537 133.142C33.078 133.411 32.2712 133.68 31.1955 133.68C29.313 133.949 27.1616 134.217 25.0102 133.949C20.9763 133.68 16.6735 132.604 13.1774 130.721C9.41244 128.839 6.18532 125.881 4.0339 122.385C2.9582 120.771 1.88249 118.889 1.07571 117.006C0.806781 116.199 0.537854 115.124 0.268927 114.048C0.268927 113.241 0 112.434 0 111.359C0.806781 112.165 1.34463 112.972 1.88249 113.51C2.68927 114.317 3.22712 115.124 3.76498 115.662C5.10961 117.006 6.18532 118.351 7.52996 119.427C10.2192 121.847 12.9085 123.998 16.1356 125.612C19.0938 127.225 22.5899 128.57 25.817 129.646C27.4305 130.184 29.313 130.453 31.1955 130.99C32.0023 131.259 33.078 131.259 33.8848 131.528C35.2294 131.797 36.0362 131.797 37.1119 132.066ZM97.8894 1.36756C99.234 1.63648 100.31 2.17434 101.654 2.71219C102.999 3.25004 104.075 3.7879 105.15 4.32575C107.571 5.67039 109.722 7.01502 111.874 8.62858C116.176 11.8557 119.673 16.1585 122.093 20.9992C124.513 25.8399 125.858 31.2184 125.858 36.3281C125.858 39.0173 125.589 41.4377 125.051 44.1269C124.782 45.4716 124.513 46.5473 123.975 47.8919C123.437 49.2366 123.169 50.3123 122.631 51.388L122.362 47.623C122.362 46.2784 122.362 45.2026 122.093 43.858L121.286 36.597C120.479 32.0252 118.866 27.4535 116.714 23.1506C114.563 18.8478 111.874 15.0828 108.646 11.5868C107.033 9.70429 105.15 8.09073 103.537 6.20824C102.73 5.40146 101.654 4.59468 100.579 3.7879L97.8894 1.36756ZM121.286 0.291847C122.362 0.560774 123.169 0.829701 123.975 1.36756C124.782 1.63648 125.858 2.17434 126.665 2.71219C128.278 3.7879 129.892 4.86361 131.505 6.20824C134.463 8.89751 136.884 12.1246 138.228 15.8896C139.842 19.6546 140.38 23.6885 139.842 27.7224C139.573 29.6049 139.035 31.4874 138.497 33.3699C138.228 34.1766 137.691 35.2524 137.422 36.0591C136.884 36.8659 136.615 37.6727 135.808 38.4795V35.7902V33.1009C135.808 31.2185 135.539 29.6049 135.539 27.9913C135.001 24.4953 134.463 21.2682 133.119 18.31C131.774 15.0828 130.161 12.3936 128.278 9.43536C127.202 8.09073 126.127 6.47717 125.051 5.13253C124.513 4.32575 123.975 3.7879 123.169 2.98112C122.631 1.63648 121.824 0.829701 121.286 0.291847Z" fill="#42ADE2"/>
<path d="M21.5141 40.362C16.1356 42.7823 14.2531 49.2366 16.6734 54.6151L50.5582 125.343L69.3831 116.468L35.4983 45.4716C33.078 40.093 26.8927 37.6727 21.5141 40.362ZM110.529 96.5677L130.43 87.1553L91.7041 6.47717C89.0148 1.09863 82.5606 -1.32171 76.9131 1.36756C71.5345 4.05683 69.1142 10.5111 71.8035 16.1585L110.529 96.5677Z" fill="#FFDD67"/>
<path d="M77.182 1.09863C76.6442 1.36756 76.1063 1.63648 75.5685 2.17434C80.6781 0.829701 86.0566 3.25004 88.477 8.09073L127.202 88.7688L130.699 87.1553L91.973 6.47717C89.2838 0.829702 82.8295 -1.59064 77.182 1.09863Z" fill="#EBA352"/>
<path d="M69.3832 116.199L90.0906 106.249L50.5583 23.9574C47.869 18.31 40.8769 15.6207 35.2295 18.31C29.582 20.9992 27.1616 27.9913 29.8509 33.6388L69.3832 116.199Z" fill="#FFDD67"/>
<path d="M35.2294 18.5789C34.6916 18.8478 34.1537 19.1167 33.6159 19.6546C38.7255 18.31 44.6419 20.7303 47.0622 25.8399L71.5346 77.205L77.451 80.701L50.5583 24.2264C47.869 18.31 41.1458 15.8896 35.2294 18.5789Z" fill="#EBA352"/>
<path d="M86.8634 99.7948L107.571 89.8445L68.0385 7.55288C65.3493 1.90541 58.3572 -0.78386 52.7097 2.17434C47.0622 4.86361 44.6419 11.8557 47.3312 17.5032L86.8634 99.7948Z" fill="#FFDD67"/>
<path d="M52.7097 1.90541C52.1718 2.17433 51.634 2.71219 51.0961 2.98112C56.2057 1.63648 62.1221 4.05682 64.5425 9.16644L92.2419 67.2547L98.1583 70.7507L68.0385 7.55287C65.3492 1.63648 58.3571 -0.783862 52.7097 1.90541ZM21.5141 40.362C20.9763 40.6309 20.4384 40.8998 19.9006 41.4377C24.7413 40.093 29.8509 42.5134 32.0023 47.3541L52.1718 89.5756L58.0882 93.0716L35.4983 45.7405C33.078 40.093 26.8927 37.6727 21.5141 40.362Z" fill="#EBA352"/>
<path d="M158.129 32.2942C150.868 26.6467 139.035 32.832 133.119 52.1948C129.085 65.6411 128.547 69.675 119.941 73.7089L115.101 63.7586C115.101 63.7586 38.7255 100.602 41.6837 106.518C41.6837 106.518 50.8272 135.024 66.425 148.202C89.5527 168.102 143.607 146.857 146.027 95.492C147.372 65.6411 165.928 38.4795 158.129 32.2942Z" fill="#FFDD67"/>
<path d="M158.129 32.2942C156.784 31.2184 155.171 30.6806 153.557 30.4117C153.826 30.6806 154.364 30.6806 154.633 30.9495C162.701 37.1348 154.364 51.388 149.792 64.2965C146.027 74.5157 142.8 85.0039 143.338 95.2231C145.49 139.865 100.579 161.11 73.686 153.042C100.041 164.068 148.986 143.092 146.834 96.5677C146.296 86.3485 149.254 76.3982 153.288 65.6411C157.591 52.7326 165.928 38.4795 158.129 32.2942Z" fill="#EBA352"/>
<path d="M122.362 72.6332C105.688 74.5157 81.216 98.4502 98.4273 124.536C85.7877 98.1813 106.495 80.4321 119.673 74.2468C121.017 73.1711 122.362 72.6332 122.362 72.6332Z" fill="#EBA352"/>
</g>
</svg>
