<svg width="18" height="18" viewBox="0 0 18 18" fill="none" xmlns="http://www.w3.org/2000/svg">
<path d="M14.4225 11.4451L12.5175 11.2276C12.2935 11.2013 12.0665 11.2261 11.8534 11.3001C11.6404 11.3741 11.4469 11.4955 11.2875 11.6551L9.9075 13.0351C7.77839 11.9522 6.04783 10.2217 4.965 8.09257L6.3525 6.70507C6.675 6.38257 6.8325 5.93257 6.78 5.47507L6.5625 3.58507C6.51998 3.2192 6.34439 2.88175 6.06918 2.63695C5.79396 2.39216 5.43833 2.25713 5.07 2.25757H3.7725C2.925 2.25757 2.22 2.96257 2.2725 3.81007C2.67 10.2151 7.7925 15.3301 14.19 15.7276C15.0375 15.7801 15.7425 15.0751 15.7425 14.2276V12.9301C15.75 12.1726 15.18 11.5351 14.4225 11.4451Z" fill="white"/>
</svg>
