<svg width="19" height="19" viewBox="0 0 19 19" fill="none" xmlns="http://www.w3.org/2000/svg">
<path d="M15.4761 0.392914H3.4405C1.78844 0.392914 0.449188 1.76431 0.449188 3.45602V15.3192C0.449188 17.011 1.78844 18.3824 3.4405 18.3824H15.4761C17.1282 18.3824 18.4675 17.011 18.4675 15.3192V3.45602C18.4675 1.76431 17.1282 0.392914 15.4761 0.392914Z" fill="#330000"/>
<path d="M9.18057 11.1887H6.38844L5.8203 12.9958C5.81257 13.0288 5.79385 13.0579 5.76737 13.0783C5.74089 13.0986 5.70831 13.1089 5.67524 13.1072H4.26102C4.18043 13.1072 4.1522 13.0618 4.17642 12.971L6.59389 5.8417C6.61803 5.76746 6.64224 5.68292 6.66638 5.588C6.69806 5.42281 6.71425 5.25502 6.71474 5.08673C6.71309 5.07496 6.71415 5.06296 6.71782 5.05167C6.72148 5.04039 6.72767 5.03014 6.73588 5.02173C6.74408 5.01331 6.75409 5.00697 6.76511 5.00321C6.77612 4.99944 6.78784 4.99835 6.79934 5.00003H8.72124C8.77755 5.00003 8.80978 5.02071 8.81795 5.06201L11.5617 12.9834C11.5859 13.066 11.5617 13.1073 11.4892 13.1072H9.91784C9.89085 13.1103 9.8637 13.1032 9.84146 13.0873C9.81922 13.0713 9.80341 13.0476 9.79699 13.0206L9.18057 11.1887ZM6.82355 9.62921H8.73335L8.70611 9.53717L8.6624 9.39144L8.63122 9.28909L8.58146 9.12794L8.47567 8.78869L8.38262 8.48793L8.141 7.7045C8.08086 7.50975 8.02314 7.31422 7.96785 7.11797L7.92365 6.95868L7.87199 6.77036L7.79316 6.47846L7.77838 6.42347H7.76634C7.70587 6.72056 7.63221 7.01469 7.54562 7.30492L7.36628 7.89563L7.2676 8.22198L7.16801 8.55236C7.14999 8.61204 7.13211 8.67107 7.11417 8.72938L7.06067 8.90221L7.00747 9.071L6.95454 9.23562L6.90189 9.39612C6.88443 9.44895 6.86698 9.50106 6.84959 9.55252L6.82355 9.62921ZM13.1934 6.31205C13.0701 6.31711 12.9471 6.29548 12.8326 6.24856C12.718 6.20164 12.6144 6.13048 12.5286 6.03975C12.443 5.94508 12.3764 5.83402 12.3329 5.71294C12.2893 5.59186 12.2695 5.46316 12.2747 5.33423C12.2703 5.2066 12.2923 5.07945 12.3391 4.9611C12.386 4.84274 12.4567 4.73584 12.5467 4.64737C12.7202 4.47682 12.9512 4.38138 13.1917 4.38092L13.2175 4.38121C13.5076 4.38121 13.7353 4.46986 13.9005 4.6473C13.9839 4.7395 14.0487 4.84763 14.0912 4.9655C14.1337 5.08337 14.1531 5.20867 14.1483 5.33423C14.1533 5.46367 14.1329 5.59283 14.0883 5.71405C14.0437 5.83526 13.9757 5.94605 13.8884 6.03983C13.8003 6.12876 13.6957 6.19875 13.5808 6.24566C13.4658 6.29257 13.3429 6.31546 13.2192 6.31298L13.1934 6.31205ZM12.3593 12.9834V7.06708C12.3593 6.99285 12.3914 6.95566 12.456 6.95566H13.9428C14.0072 6.95566 14.0394 6.99278 14.0395 7.06708V12.9834C14.0395 13.066 14.0073 13.1073 13.9428 13.1072H12.4681C12.3994 13.1072 12.3633 13.0702 12.3597 12.9961L12.3593 12.9834Z" fill="#FF9A00"/>
</svg>
