<svg width="20" height="19" viewBox="0 0 20 19" fill="none" xmlns="http://www.w3.org/2000/svg">
<path d="M16.3953 0.392914H3.69104C1.9472 0.392914 0.533539 1.76431 0.533539 3.45602V15.3192C0.533539 17.011 1.9472 18.3824 3.69104 18.3824H16.3953C18.1392 18.3824 19.5528 17.011 19.5528 15.3192V3.45602C19.5528 1.76431 18.1392 0.392914 16.3953 0.392914Z" fill="#49021F"/>
<path d="M7.44055 5.09907V12.9834C7.44055 13.066 7.40229 13.1072 7.32569 13.1072H5.78186C5.71373 13.1072 5.67971 13.0659 5.67986 12.9834V5.09907C5.67986 5.03312 5.71812 5.00011 5.79464 5.00004H7.33847C7.35145 4.99825 7.36468 4.99924 7.37723 5.00291C7.38978 5.00659 7.40136 5.01288 7.41115 5.02134C7.42094 5.02979 7.42872 5.04022 7.43394 5.05189C7.43916 5.06356 7.44169 5.07619 7.44137 5.0889L7.44055 5.09907ZM12.0903 13.2302L12.0081 13.231C11.4209 13.2397 10.8391 13.1213 10.3049 12.8845C9.80725 12.661 9.39126 12.2963 9.11194 11.8385C8.8297 11.3838 8.6852 10.8171 8.67836 10.1383L8.67814 10.0872C8.67336 9.5191 8.82302 8.95983 9.11202 8.46574C9.4017 7.97596 9.82421 7.57256 10.3336 7.29938L10.3751 7.27747C10.9278 6.98046 11.5956 6.83192 12.3782 6.83192L12.3947 6.83199L12.4313 6.83278L12.4728 6.83437L12.5191 6.83667L12.5701 6.83977L12.6259 6.84374L12.752 6.85376L12.7865 6.85664V4.41841C12.7865 4.36075 12.812 4.3317 12.863 4.3317H14.4706C14.481 4.33026 14.4916 4.33118 14.5016 4.3344C14.5116 4.33762 14.5206 4.34304 14.528 4.35025C14.5355 4.35745 14.5411 4.36624 14.5444 4.3759C14.5477 4.38557 14.5486 4.39585 14.5471 4.40594V11.721C14.5477 11.8738 14.5541 12.0266 14.5663 12.1789L14.5784 12.3385L14.589 12.4871L14.5982 12.6245C14.5998 12.6502 14.5933 12.6758 14.5797 12.6979C14.566 12.72 14.5458 12.7376 14.5217 12.7483C14.1069 12.9161 13.6749 13.0406 13.233 13.1196C12.856 13.1871 12.4738 13.2241 12.0904 13.2302H12.0903ZM12.7865 11.6962V8.3172C12.7175 8.29909 12.6471 8.28667 12.576 8.28008C12.4891 8.2716 12.4017 8.26746 12.3144 8.26769C12.0047 8.26473 11.6988 8.33255 11.4213 8.46574C11.151 8.59609 10.9202 8.79228 10.7515 9.03512C10.577 9.28262 10.4898 9.6086 10.4899 10.0129C10.4837 10.2827 10.5291 10.5513 10.6238 10.805C10.7009 11.0095 10.8228 11.1953 10.9811 11.3497C11.1326 11.4917 11.3161 11.5976 11.517 11.6591C11.7292 11.7257 11.951 11.7592 12.174 11.7582C12.2931 11.7582 12.4036 11.754 12.5058 11.7457C12.5872 11.7398 12.668 11.7267 12.7471 11.7068L12.7865 11.6962Z" fill="#FF3366"/>
</svg>
