<svg width="23" height="24" viewBox="0 0 23 24" fill="none" xmlns="http://www.w3.org/2000/svg">
<path d="M17.5075 4.37001C17.2405 4.37001 16.9795 4.45212 16.7575 4.60595C16.5355 4.75979 16.3624 4.97844 16.2603 5.23425C16.1581 5.49007 16.1313 5.77156 16.1834 6.04314C16.2355 6.31471 16.3641 6.56417 16.5529 6.75996C16.7417 6.95575 16.9823 7.08909 17.2441 7.14311C17.506 7.19713 17.7774 7.1694 18.0241 7.06344C18.2708 6.95748 18.4816 6.77804 18.63 6.54781C18.7783 6.31758 18.8575 6.0469 18.8575 5.77001C18.8575 5.39871 18.7153 5.04261 18.4621 4.78006C18.2089 4.51751 17.8655 4.37001 17.5075 4.37001ZM22.6825 7.19334C22.6606 6.22536 22.4858 5.26765 22.165 4.35834C21.8789 3.58033 21.4337 2.87584 20.86 2.29334C20.3029 1.69534 19.622 1.23655 18.8687 0.951677C17.9942 0.608864 17.0697 0.423422 16.135 0.403343C14.9425 0.333343 14.56 0.333344 11.5 0.333344C8.44 0.333344 8.0575 0.333343 6.865 0.403343C5.9303 0.423422 5.00576 0.608864 4.13125 0.951677C3.37939 1.23943 2.69905 1.69783 2.14 2.29334C1.56335 2.87105 1.12095 3.57719 0.84625 4.35834C0.515681 5.26524 0.336861 6.22402 0.3175 7.19334C0.25 8.43001 0.25 8.82668 0.25 12C0.25 15.1733 0.25 15.57 0.3175 16.8067C0.336861 17.776 0.515681 18.7348 0.84625 19.6417C1.12095 20.4228 1.56335 21.129 2.14 21.7067C2.69905 22.3022 3.37939 22.7606 4.13125 23.0483C5.00576 23.3912 5.9303 23.5766 6.865 23.5967C8.0575 23.6667 8.44 23.6667 11.5 23.6667C14.56 23.6667 14.9425 23.6667 16.135 23.5967C17.0697 23.5766 17.9942 23.3912 18.8687 23.0483C19.622 22.7635 20.3029 22.3047 20.86 21.7067C21.4363 21.1264 21.8819 20.4212 22.165 19.6417C22.4858 18.7324 22.6606 17.7747 22.6825 16.8067C22.6825 15.57 22.75 15.1733 22.75 12C22.75 8.82668 22.75 8.43001 22.6825 7.19334ZM20.6575 16.6667C20.6493 17.4072 20.52 18.141 20.275 18.8367C20.0954 19.3444 19.8069 19.8032 19.4312 20.1783C19.0664 20.5639 18.6249 20.8625 18.1375 21.0533C17.4667 21.3074 16.7591 21.4415 16.045 21.45C14.92 21.5083 14.5038 21.52 11.545 21.52C8.58625 21.52 8.17 21.52 7.045 21.45C6.3035 21.4644 5.56517 21.346 4.8625 21.1C4.3965 20.8994 3.97528 20.6016 3.625 20.225C3.2516 19.8502 2.9667 19.3911 2.7925 18.8833C2.51784 18.1777 2.3655 17.4273 2.3425 16.6667C2.3425 15.5 2.275 15.0683 2.275 12C2.275 8.93168 2.275 8.50001 2.3425 7.33334C2.34754 6.57624 2.48082 5.82595 2.73625 5.11668C2.9343 4.62424 3.2383 4.18528 3.625 3.83334C3.96679 3.43221 4.3892 3.11362 4.8625 2.90001C5.54824 2.64339 6.271 2.50927 7 2.50334C8.125 2.50334 8.54125 2.43334 11.5 2.43334C14.4588 2.43334 14.875 2.43334 16 2.50334C16.7141 2.51184 17.4217 2.64596 18.0925 2.90001C18.6037 3.09677 19.0626 3.41666 19.4312 3.83334C19.7999 4.19172 20.088 4.62987 20.275 5.11668C20.525 5.8271 20.6544 6.57709 20.6575 7.33334C20.7137 8.50001 20.725 8.93168 20.725 12C20.725 15.0683 20.7137 15.5 20.6575 16.6667ZM11.5 6.01501C10.359 6.01732 9.24433 6.37029 8.29674 7.02933C7.34914 7.68837 6.61118 8.62391 6.17609 9.71772C5.741 10.8115 5.62831 12.0146 5.85227 13.1748C6.07622 14.335 6.62677 15.4003 7.43434 16.2362C8.24191 17.072 9.27026 17.6409 10.3895 17.8709C11.5087 18.1008 12.6685 17.9816 13.7224 17.5283C14.7763 17.075 15.677 16.3079 16.3106 15.3239C16.9443 14.3399 17.2825 13.1832 17.2825 12C17.284 11.2126 17.1354 10.4327 16.8451 9.70513C16.5549 8.97753 16.1289 8.31662 15.5915 7.7604C15.0541 7.20418 14.4159 6.76363 13.7138 6.46409C13.0116 6.16455 12.2593 6.01193 11.5 6.01501ZM11.5 15.885C10.7591 15.885 10.0348 15.6572 9.41869 15.2303C8.80263 14.8034 8.32246 14.1966 8.03892 13.4867C7.75537 12.7768 7.68118 11.9957 7.82573 11.2421C7.97028 10.4885 8.32708 9.79623 8.851 9.2529C9.37492 8.70957 10.0424 8.33956 10.7691 8.18966C11.4958 8.03976 12.2491 8.11669 12.9336 8.41074C13.6182 8.70479 14.2033 9.20274 14.6149 9.84162C15.0265 10.4805 15.2462 11.2316 15.2462 12C15.2462 12.5102 15.1494 13.0154 14.9611 13.4867C14.7728 13.9581 14.4969 14.3864 14.149 14.7471C13.8011 15.1079 13.3881 15.394 12.9336 15.5893C12.4791 15.7845 11.992 15.885 11.5 15.885Z" fill="black"/>
</svg>
