<svg width="358" height="296" viewBox="0 0 358 296" fill="none" xmlns="http://www.w3.org/2000/svg">
<rect width="358" height="296" fill="#372846"/>
<g opacity="0.49">
<path d="M75.948 129.112V135.14H67.764V160H60.24V135.14H52.056V129.112H75.948ZM94.8161 135.184C97.6321 135.184 99.8908 136.123 101.592 138C103.293 139.848 104.144 142.4 104.144 145.656V160H96.6641V146.668C96.6641 145.025 96.2388 143.749 95.3881 142.84C94.5374 141.931 93.3934 141.476 91.9561 141.476C90.5188 141.476 89.3748 141.931 88.5241 142.84C87.6734 143.749 87.2481 145.025 87.2481 146.668V160H79.7241V127.44H87.2481V138.748C88.0108 137.663 89.0521 136.797 90.3721 136.152C91.6921 135.507 93.1734 135.184 94.8161 135.184ZM132.517 147.328C132.517 148.032 132.473 148.765 132.385 149.528H115.357C115.474 151.053 115.958 152.227 116.809 153.048C117.689 153.84 118.759 154.236 120.021 154.236C121.898 154.236 123.203 153.444 123.937 151.86H131.945C131.534 153.473 130.786 154.925 129.701 156.216C128.645 157.507 127.31 158.519 125.697 159.252C124.083 159.985 122.279 160.352 120.285 160.352C117.879 160.352 115.738 159.839 113.861 158.812C111.983 157.785 110.517 156.319 109.461 154.412C108.405 152.505 107.877 150.276 107.877 147.724C107.877 145.172 108.39 142.943 109.417 141.036C110.473 139.129 111.939 137.663 113.817 136.636C115.694 135.609 117.85 135.096 120.285 135.096C122.661 135.096 124.773 135.595 126.621 136.592C128.469 137.589 129.906 139.012 130.933 140.86C131.989 142.708 132.517 144.864 132.517 147.328ZM124.817 145.348C124.817 144.057 124.377 143.031 123.497 142.268C122.617 141.505 121.517 141.124 120.197 141.124C118.935 141.124 117.865 141.491 116.985 142.224C116.134 142.957 115.606 143.999 115.401 145.348H124.817ZM149.55 132.896C148.23 132.896 147.145 132.515 146.294 131.752C145.473 130.96 145.062 129.992 145.062 128.848C145.062 127.675 145.473 126.707 146.294 125.944C147.145 125.152 148.23 124.756 149.55 124.756C150.841 124.756 151.897 125.152 152.718 125.944C153.569 126.707 153.994 127.675 153.994 128.848C153.994 129.992 153.569 130.96 152.718 131.752C151.897 132.515 150.841 132.896 149.55 132.896ZM153.334 163.168C153.334 166.189 152.571 168.36 151.046 169.68C149.521 171.029 147.394 171.704 144.666 171.704H141.718V165.324H143.522C144.343 165.324 144.93 165.163 145.282 164.84C145.634 164.517 145.81 163.989 145.81 163.256V135.448H153.334V163.168ZM169.92 160.352C167.514 160.352 165.344 159.839 163.408 158.812C161.501 157.785 159.99 156.319 158.876 154.412C157.79 152.505 157.248 150.276 157.248 147.724C157.248 145.201 157.805 142.987 158.92 141.08C160.034 139.144 161.56 137.663 163.496 136.636C165.432 135.609 167.602 135.096 170.008 135.096C172.413 135.096 174.584 135.609 176.52 136.636C178.456 137.663 179.981 139.144 181.096 141.08C182.21 142.987 182.768 145.201 182.768 147.724C182.768 150.247 182.196 152.476 181.052 154.412C179.937 156.319 178.397 157.785 176.432 158.812C174.496 159.839 172.325 160.352 169.92 160.352ZM169.92 153.84C171.357 153.84 172.574 153.312 173.572 152.256C174.598 151.2 175.112 149.689 175.112 147.724C175.112 145.759 174.613 144.248 173.616 143.192C172.648 142.136 171.445 141.608 170.008 141.608C168.541 141.608 167.324 142.136 166.356 143.192C165.388 144.219 164.904 145.729 164.904 147.724C164.904 149.689 165.373 151.2 166.312 152.256C167.28 153.312 168.482 153.84 169.92 153.84ZM211.003 135.448V160H203.479V156.656C202.717 157.741 201.675 158.621 200.355 159.296C199.065 159.941 197.627 160.264 196.043 160.264C194.166 160.264 192.509 159.853 191.071 159.032C189.634 158.181 188.519 156.964 187.727 155.38C186.935 153.796 186.539 151.933 186.539 149.792V135.448H194.019V148.78C194.019 150.423 194.445 151.699 195.295 152.608C196.146 153.517 197.29 153.972 198.727 153.972C200.194 153.972 201.353 153.517 202.203 152.608C203.054 151.699 203.479 150.423 203.479 148.78V135.448H211.003ZM223.932 139.54C224.812 138.191 225.912 137.135 227.232 136.372C228.552 135.58 230.018 135.184 231.632 135.184V143.148H229.564C227.686 143.148 226.278 143.559 225.34 144.38C224.401 145.172 223.932 146.58 223.932 148.604V160H216.408V135.448H223.932V139.54ZM250.188 135.184C253.063 135.184 255.351 136.123 257.052 138C258.783 139.848 259.648 142.4 259.648 145.656V160H252.168V146.668C252.168 145.025 251.743 143.749 250.892 142.84C250.041 141.931 248.897 141.476 247.46 141.476C246.023 141.476 244.879 141.931 244.028 142.84C243.177 143.749 242.752 145.025 242.752 146.668V160H235.228V135.448H242.752V138.704C243.515 137.619 244.541 136.768 245.832 136.152C247.123 135.507 248.575 135.184 250.188 135.184ZM288.02 147.328C288.02 148.032 287.976 148.765 287.888 149.528H270.86C270.978 151.053 271.462 152.227 272.312 153.048C273.192 153.84 274.263 154.236 275.524 154.236C277.402 154.236 278.707 153.444 279.44 151.86H287.448C287.038 153.473 286.29 154.925 285.204 156.216C284.148 157.507 282.814 158.519 281.2 159.252C279.587 159.985 277.783 160.352 275.788 160.352C273.383 160.352 271.242 159.839 269.364 158.812C267.487 157.785 266.02 156.319 264.964 154.412C263.908 152.505 263.38 150.276 263.38 147.724C263.38 145.172 263.894 142.943 264.92 141.036C265.976 139.129 267.443 137.663 269.32 136.636C271.198 135.609 273.354 135.096 275.788 135.096C278.164 135.096 280.276 135.595 282.124 136.592C283.972 137.589 285.41 139.012 286.436 140.86C287.492 142.708 288.02 144.864 288.02 147.328ZM280.32 145.348C280.32 144.057 279.88 143.031 279 142.268C278.12 141.505 277.02 141.124 275.7 141.124C274.439 141.124 273.368 141.491 272.488 142.224C271.638 142.957 271.11 143.999 270.904 145.348H280.32ZM317.07 135.448L301.67 171.66H293.574L299.206 159.164L289.218 135.448H297.622L303.298 150.804L308.93 135.448H317.07Z" fill="black"/>
</g>
</svg>
