<svg width="583" height="133" viewBox="0 0 583 133" fill="none" xmlns="http://www.w3.org/2000/svg">
<path d="M54.432 38.608V51.76H36.576V106H20.16V51.76H2.304V38.608H54.432ZM95.5988 51.856C101.743 51.856 106.671 53.904 110.383 58C114.095 62.032 115.951 67.6 115.951 74.704V106H99.6308V76.912C99.6308 73.328 98.7028 70.544 96.8468 68.56C94.9908 66.576 92.4948 65.584 89.3588 65.584C86.2228 65.584 83.7268 66.576 81.8708 68.56C80.0148 70.544 79.0868 73.328 79.0868 76.912V106H62.6708V34.96H79.0868V59.632C80.7508 57.264 83.0228 55.376 85.9028 53.968C88.7828 52.56 92.0148 51.856 95.5988 51.856ZM177.854 78.352C177.854 79.888 177.758 81.488 177.566 83.152H140.414C140.67 86.48 141.726 89.04 143.582 90.832C145.502 92.56 147.838 93.424 150.59 93.424C154.686 93.424 157.534 91.696 159.134 88.24H176.606C175.71 91.76 174.078 94.928 171.71 97.744C169.406 100.56 166.494 102.768 162.974 104.368C159.454 105.968 155.518 106.768 151.166 106.768C145.918 106.768 141.246 105.648 137.15 103.408C133.054 101.168 129.854 97.968 127.55 93.808C125.246 89.648 124.094 84.784 124.094 79.216C124.094 73.648 125.214 68.784 127.454 64.624C129.758 60.464 132.958 57.264 137.054 55.024C141.15 52.784 145.854 51.664 151.166 51.664C156.35 51.664 160.958 52.752 164.99 54.928C169.022 57.104 172.158 60.208 174.398 64.24C176.702 68.272 177.854 72.976 177.854 78.352ZM161.054 74.032C161.054 71.216 160.094 68.976 158.174 67.312C156.254 65.648 153.854 64.816 150.974 64.816C148.222 64.816 145.886 65.616 143.966 67.216C142.11 68.816 140.958 71.088 140.51 74.032H161.054ZM215.018 46.864C212.138 46.864 209.77 46.032 207.914 44.368C206.122 42.64 205.226 40.528 205.226 38.032C205.226 35.472 206.122 33.36 207.914 31.696C209.77 29.968 212.138 29.104 215.018 29.104C217.834 29.104 220.138 29.968 221.93 31.696C223.786 33.36 224.714 35.472 224.714 38.032C224.714 40.528 223.786 42.64 221.93 44.368C220.138 46.032 217.834 46.864 215.018 46.864ZM223.274 112.912C223.274 119.504 221.61 124.24 218.282 127.12C214.954 130.064 210.314 131.536 204.362 131.536H197.93V117.616H201.866C203.658 117.616 204.938 117.264 205.706 116.56C206.474 115.856 206.858 114.704 206.858 113.104V52.432H223.274V112.912ZM259.461 106.768C254.213 106.768 249.477 105.648 245.253 103.408C241.093 101.168 237.797 97.968 235.365 93.808C232.997 89.648 231.813 84.784 231.813 79.216C231.813 73.712 233.029 68.88 235.461 64.72C237.893 60.496 241.221 57.264 245.445 55.024C249.669 52.784 254.405 51.664 259.653 51.664C264.901 51.664 269.637 52.784 273.861 55.024C278.085 57.264 281.413 60.496 283.845 64.72C286.277 68.88 287.493 73.712 287.493 79.216C287.493 84.72 286.245 89.584 283.749 93.808C281.317 97.968 277.957 101.168 273.669 103.408C269.445 105.648 264.709 106.768 259.461 106.768ZM259.461 92.56C262.597 92.56 265.253 91.408 267.429 89.104C269.669 86.8 270.789 83.504 270.789 79.216C270.789 74.928 269.701 71.632 267.525 69.328C265.413 67.024 262.789 65.872 259.653 65.872C256.453 65.872 253.797 67.024 251.685 69.328C249.573 71.568 248.517 74.864 248.517 79.216C248.517 83.504 249.541 86.8 251.589 89.104C253.701 91.408 256.325 92.56 259.461 92.56ZM349.098 52.432V106H332.682V98.704C331.018 101.072 328.746 102.992 325.866 104.464C323.05 105.872 319.914 106.576 316.458 106.576C312.362 106.576 308.746 105.68 305.61 103.888C302.474 102.032 300.042 99.376 298.314 95.92C296.586 92.464 295.722 88.4 295.722 83.728V52.432H312.042V81.52C312.042 85.104 312.97 87.888 314.826 89.872C316.682 91.856 319.178 92.848 322.314 92.848C325.514 92.848 328.042 91.856 329.898 89.872C331.754 87.888 332.682 85.104 332.682 81.52V52.432H349.098ZM377.306 61.36C379.226 58.416 381.626 56.112 384.506 54.448C387.386 52.72 390.586 51.856 394.106 51.856V69.232H389.594C385.498 69.232 382.426 70.128 380.378 71.92C378.33 73.648 377.306 76.72 377.306 81.136V106H360.89V52.432H377.306V61.36ZM434.592 51.856C440.864 51.856 445.856 53.904 449.568 58C453.344 62.032 455.232 67.6 455.232 74.704V106H438.912V76.912C438.912 73.328 437.984 70.544 436.128 68.56C434.272 66.576 431.776 65.584 428.64 65.584C425.504 65.584 423.008 66.576 421.152 68.56C419.296 70.544 418.368 73.328 418.368 76.912V106H401.952V52.432H418.368V59.536C420.032 57.168 422.272 55.312 425.088 53.968C427.904 52.56 431.072 51.856 434.592 51.856ZM517.135 78.352C517.135 79.888 517.04 81.488 516.848 83.152H479.696C479.952 86.48 481.008 89.04 482.864 90.832C484.784 92.56 487.12 93.424 489.872 93.424C493.968 93.424 496.816 91.696 498.416 88.24H515.888C514.992 91.76 513.36 94.928 510.992 97.744C508.688 100.56 505.776 102.768 502.256 104.368C498.736 105.968 494.8 106.768 490.448 106.768C485.2 106.768 480.528 105.648 476.432 103.408C472.336 101.168 469.136 97.968 466.832 93.808C464.528 89.648 463.376 84.784 463.376 79.216C463.376 73.648 464.496 68.784 466.736 64.624C469.04 60.464 472.24 57.264 476.336 55.024C480.432 52.784 485.136 51.664 490.448 51.664C495.632 51.664 500.24 52.752 504.272 54.928C508.304 57.104 511.44 60.208 513.68 64.24C515.984 68.272 517.135 72.976 517.135 78.352ZM500.336 74.032C500.336 71.216 499.376 68.976 497.456 67.312C495.536 65.648 493.136 64.816 490.256 64.816C487.504 64.816 485.168 65.616 483.248 67.216C481.392 68.816 480.24 71.088 479.792 74.032H500.336ZM580.516 52.432L546.916 131.44H529.252L541.54 104.176L519.748 52.432H538.084L550.468 85.936L562.756 52.432H580.516Z" fill="black"/>
<path d="M582.941 26.1827C581.742 20.8339 575.429 19 561.045 19H560.805C549.537 19 533.395 20.1462 510.939 21.4452C468.266 23.8904 455 25.4186 455 33.0598C455.039 34.1795 455.255 35.2872 455.639 36.3455C457.078 40.701 463.311 42 476.017 42C485.207 42 497.833 41.3123 514.615 40.701C561.364 38.9435 582.941 37.186 582.941 27.7874C583.02 27.2551 583.02 26.715 582.941 26.1827Z" fill="#8F00FF"/>
</svg>
