<svg width="193" height="42" viewBox="0 0 193 42" fill="none" xmlns="http://www.w3.org/2000/svg">
<g clip-path="url(#clip0_947_17)">
<path d="M193 18.8805V15.4423H188.785V10.0976L188.643 10.1415L184.684 11.3686L184.606 11.3927V15.4423H178.358V13.1865C178.358 12.1361 178.59 11.332 179.047 10.7963C179.501 10.2663 180.15 9.99714 180.977 9.99714C181.573 9.99714 182.189 10.1392 182.809 10.4191L182.965 10.4893V6.8689L182.892 6.84218C182.313 6.63103 181.526 6.52527 180.551 6.52527C179.321 6.52527 178.204 6.79598 177.23 7.3332C176.27 7.85623 175.479 8.6484 174.951 9.61494C174.416 10.5901 174.144 11.7161 174.144 12.9623V15.4426H171.21V18.8809H174.144V33.3644H178.358V18.8805H184.606V28.0846C184.606 31.8753 186.371 33.7966 189.853 33.7966C190.455 33.7931 191.054 33.7255 191.642 33.595C192.268 33.4587 192.694 33.3224 192.945 33.1769L193 33.1437V29.6738L192.829 29.7887C192.6 29.9433 192.315 30.0693 191.982 30.1629C191.646 30.2583 191.366 30.3064 191.149 30.3064C190.333 30.3064 189.73 30.0838 189.356 29.6444C188.977 29.2015 188.785 28.426 188.785 27.3416V18.8805H193ZM161.8 30.3068C160.271 30.3068 159.066 29.7929 158.216 28.7814C157.361 27.7643 156.928 26.3149 156.928 24.4726C156.928 22.5723 157.361 21.0851 158.216 20.05C159.066 19.0222 160.261 18.5002 161.766 18.5002C163.227 18.5002 164.39 18.9985 165.223 19.9824C166.06 20.971 166.485 22.4463 166.485 24.3688C166.485 26.3149 166.085 27.8101 165.297 28.8101C164.515 29.8028 163.339 30.3068 161.8 30.3068ZM161.988 15.0104C159.07 15.0104 156.753 15.8764 155.101 17.5843C153.45 19.2925 152.613 21.656 152.613 24.6105C152.613 27.4165 153.43 29.6734 155.042 31.3179C156.653 32.9627 158.847 33.7959 161.561 33.7959C164.389 33.7959 166.66 32.9181 168.312 31.1865C169.963 29.4569 170.8 27.1156 170.8 24.2298C170.8 21.3803 170.015 19.1066 168.466 17.4731C166.916 15.839 164.736 15.0104 161.988 15.0104ZM145.819 15.0104C143.834 15.0104 142.193 15.5247 140.939 16.5384C139.677 17.5583 139.037 18.8962 139.037 20.5147C139.037 21.3559 139.175 22.1031 139.447 22.7369C139.721 23.373 140.144 23.9327 140.706 24.4028C141.264 24.869 142.126 25.3573 143.267 25.8537C144.227 26.2538 144.943 26.5925 145.397 26.859C145.842 27.1205 146.157 27.3832 146.335 27.639C146.508 27.8891 146.596 28.232 146.596 28.6547C146.596 29.8589 145.706 30.4447 143.874 30.4447C143.195 30.4447 142.42 30.3011 141.571 30.0178C140.728 29.7386 139.933 29.33 139.212 28.8063L139.037 28.6795V32.7879L139.101 32.8184C139.698 33.0971 140.449 33.332 141.335 33.5171C142.22 33.7019 143.022 33.7962 143.721 33.7962C145.874 33.7962 147.608 33.2796 148.874 32.2598C150.148 31.2327 150.793 29.8639 150.793 28.1889C150.793 26.9812 150.445 25.9449 149.76 25.1095C149.08 24.281 147.9 23.52 146.253 22.8476C144.942 22.3142 144.101 21.8717 143.755 21.5319C143.42 21.2035 143.251 20.7392 143.251 20.1516C143.251 19.63 143.46 19.2127 143.89 18.8744C144.324 18.5346 144.927 18.3616 145.683 18.3616C146.385 18.3616 147.103 18.4739 147.818 18.6938C148.532 18.9141 149.158 19.2093 149.682 19.5697L149.854 19.6888V15.7912L149.788 15.7626C149.305 15.5526 148.668 15.3731 147.895 15.2281C147.125 15.0837 146.426 15.0104 145.819 15.0104ZM128.053 30.3068C126.524 30.3068 125.318 29.7929 124.469 28.7814C123.614 27.7643 123.182 26.3149 123.182 24.4726C123.182 22.5723 123.614 21.0851 124.47 20.05C125.319 19.0222 126.513 18.5002 128.019 18.5002C129.48 18.5002 130.643 18.9985 131.476 19.9824C132.313 20.971 132.738 22.4463 132.738 24.3688C132.738 26.3149 132.338 27.8101 131.551 28.8101C130.768 29.8028 129.592 30.3068 128.053 30.3068ZM128.241 15.0104C125.323 15.0104 123.006 15.8764 121.354 17.5843C119.703 19.2925 118.865 21.656 118.865 24.6105C118.865 27.4176 119.683 29.6734 121.295 31.3179C122.907 32.9627 125.1 33.7959 127.815 33.7959C130.642 33.7959 132.914 32.9181 134.566 31.1865C136.217 29.4569 137.054 27.1156 137.054 24.2298C137.054 21.3803 136.268 19.1066 134.719 17.4731C133.169 15.839 130.989 15.0104 128.241 15.0104ZM112.47 18.5461V15.4423H108.308V33.3636H112.469V24.1958C112.469 22.6369 112.818 21.3562 113.507 20.3891C114.187 19.4334 115.093 18.9489 116.198 18.9489C116.574 18.9489 116.994 19.0115 117.45 19.1356C117.901 19.2585 118.228 19.3922 118.421 19.5327L118.596 19.6613V15.4117L118.528 15.3823C118.141 15.2154 117.592 15.1315 116.898 15.1315C115.852 15.1315 114.916 15.4717 114.115 16.1417C113.411 16.7309 112.902 17.5388 112.514 18.5461H112.47ZM100.855 15.0104C98.9453 15.0104 97.2419 15.4255 95.7933 16.2429C94.342 17.0619 93.219 18.2322 92.4553 19.7194C91.695 21.2035 91.309 22.937 91.309 24.8701C91.309 26.5631 91.6833 28.1171 92.4229 29.4863C93.1633 30.8582 94.2112 31.9315 95.5373 32.676C96.8619 33.4194 98.3927 33.7962 100.087 33.7962C102.065 33.7962 103.754 33.3957 105.108 32.6061L105.162 32.5741V28.712L104.988 28.8414C104.365 29.2987 103.679 29.6605 102.952 29.9151C102.216 30.1751 101.546 30.3064 100.958 30.3064C99.3242 30.3064 98.0135 29.7891 97.0617 28.7689C96.108 27.7467 95.6244 26.3122 95.6244 24.5066C95.6244 22.6899 96.1287 21.2184 97.1224 20.1321C98.1134 19.0497 99.4267 18.5006 101.026 18.5006C102.394 18.5006 103.727 18.9699 104.988 19.8965L105.162 20.0248V15.9554L105.106 15.9233C104.631 15.6542 103.984 15.4319 103.181 15.2636C102.381 15.0956 101.598 15.0104 100.855 15.0104ZM88.4427 15.4423H84.2804V33.3636H88.4427V15.4423ZM86.4041 7.8078C85.7192 7.8078 85.1217 8.04414 84.6309 8.51187C84.1379 8.9815 83.8876 9.57256 83.8876 10.2698C83.8876 10.9563 84.1348 11.5363 84.6226 11.9933C85.1078 12.4488 85.7071 12.6798 86.4041 12.6798C87.1007 12.6798 87.7023 12.4488 88.1931 11.9941C88.6869 11.5363 88.9376 10.9563 88.9376 10.2698C88.9376 9.597 88.6937 9.01167 88.2135 8.53096C87.7336 8.05101 87.1245 7.8078 86.4041 7.8078ZM76.0198 14.1204V33.3633H80.2673V8.35647H74.3887L66.9164 26.9308L59.6653 8.35647H53.5474V33.3636H57.5389V14.1185H57.6761L65.3332 33.3636H68.345L75.8826 14.12L76.0198 14.1204Z" fill="#706D6E"/>
<path d="M19.5786 19.8313H0V0H19.5786V19.8313Z" fill="#F1511B"/>
<path d="M41.196 19.8313H21.6174V0H41.196V19.8313Z" fill="#80CC28"/>
<path d="M19.5782 41.7354H0V21.9042H19.5782V41.7354Z" fill="#00ADEF"/>
<path d="M41.196 41.7354H21.6174V21.9042H41.196V41.7354Z" fill="#FBBC09"/>
</g>
<defs>
<clipPath id="clip0_947_17">
<rect width="193" height="42" fill="white"/>
</clipPath>
</defs>
</svg>
