<svg width="26" height="36" viewBox="0 0 26 36" fill="none" xmlns="http://www.w3.org/2000/svg">
<g clip-path="url(#clip0_878_85)">
<path d="M25.9548 7.05701L23.5944 33.0209L12.9841 35.9091L2.40314 33.0249L0.045166 7.05701H25.9548Z" fill="#E44D26"/>
<path d="M13 33.7014L21.5736 31.3675L23.5906 9.18018H13V33.7014Z" fill="#F16529"/>
<path d="M8.41129 15.55H12.9999V12.3652H4.86646L4.94405 13.2196L5.74131 21.9962H12.9999V18.8114H8.70775L8.41129 15.55ZM9.14234 23.5887H5.88624L6.34063 28.5894L12.985 30.4004L12.9999 30.3964V27.0828L12.9857 27.0865L9.37329 26.1287L9.14234 23.5887Z" fill="#EBEBEB"/>
<path d="M2.45581 0H4.10417V1.59906H5.61207V0H7.26053V4.84235H5.61217V3.22085H4.10427V4.84235H2.45591L2.45581 0ZM9.42808 1.60584H7.97715V0H12.5286V1.60584H11.0767V4.84235H9.42838V1.60584H9.42808ZM13.2509 0H14.9696L16.0269 1.70147L17.0831 0H18.8026V4.84235H17.1609V2.44222L16.0269 4.16393H15.9985L14.8637 2.44222V4.84235H13.2509V0ZM19.6229 0H21.2718V3.2418H23.5898V4.84235H19.6228V0H19.6229Z" fill="black"/>
<path d="M12.9889 21.9962H16.983L16.6064 26.1267L12.9888 27.0855V30.3989L19.6384 28.5894L19.6871 28.0513L20.4495 19.6666L20.5286 18.8114H12.9889V21.9962ZM12.9889 15.5422V15.55H20.8237L20.8887 14.8342L21.0366 13.2196L21.1141 12.3652H12.9889V15.5422Z" fill="white"/>
</g>
<defs>
<clipPath id="clip0_878_85">
<rect width="26" height="36" fill="white"/>
</clipPath>
</defs>
</svg>
