<svg width="24" height="36" viewBox="0 0 24 36" fill="none" xmlns="http://www.w3.org/2000/svg">
<g clip-path="url(#clip0_878_91)">
<path d="M11.9854 35.9091L2.21834 33.0249L0.041748 7.05701H23.9583L21.7795 33.0209L11.9854 35.9091Z" fill="#264DE4"/>
<path d="M19.9141 31.3675L21.776 9.18018H12V33.7014L19.9141 31.3675Z" fill="#2965F1"/>
<path d="M5.03144 18.8114L5.29975 21.9962H12V18.8114H5.03144ZM4.49219 12.3652L4.76434 15.55H12V12.3652H4.49219ZM12 27.0828L11.9868 27.0865L8.65234 26.1287L8.43916 23.5887H5.43353L5.85297 28.5894L11.9862 30.4004L12 30.3964V27.0828Z" fill="#EBEBEB"/>
<path d="M5.67041 0H9.29666V1.61312H7.18691V3.22624H9.29685V4.83926H5.67041V0ZM10.022 0H13.6483V1.4027H11.5385V1.68322H13.6483V4.90946H10.0221V3.43645H12.1319V3.15593H10.0219L10.022 0ZM14.3737 0H18V1.4027H15.8902V1.68322H18V4.90946H14.3737V3.43645H16.4835V3.15593H14.3738V0H14.3737Z" fill="black"/>
<path d="M18.9493 18.8114L19.4898 12.3652H11.9896V15.55H16.2085L15.9361 18.8114H11.9896V21.9962H15.6765L15.3289 26.1267L11.9895 27.0855V30.3989L18.1276 28.5894L18.1726 28.0513L18.8763 19.6666L18.9493 18.8114Z" fill="white"/>
</g>
<defs>
<clipPath id="clip0_878_91">
<rect width="24" height="36" fill="white"/>
</clipPath>
</defs>
</svg>
