<svg width="56" height="56" viewBox="0 0 56 56" fill="none" xmlns="http://www.w3.org/2000/svg">
<g clip-path="url(#clip0_947_23)">
<path d="M50.5312 41.6719C49.7875 42.0656 49.0218 42.4156 48.2343 42.7C45.7187 43.6406 43.0718 44.1219 40.3812 44.1219C30.0343 44.1219 21.0218 37.0125 21.0218 27.8687C21.0437 25.375 22.4218 23.0781 24.6093 21.8969C15.2468 22.2906 12.8406 32.0469 12.8406 37.7562C12.8406 53.9219 27.7375 55.5625 30.9531 55.5625C32.6812 55.5625 35.2843 55.0593 36.8593 54.5562L37.1437 54.4687C43.1812 52.3906 48.2999 48.3218 51.7125 42.9187C51.9749 42.5031 51.8437 41.9781 51.45 41.7156C51.1656 41.5406 50.8156 41.5187 50.5312 41.6719Z" fill="url(#paint0_linear_947_23)"/>
<path opacity="0.35" d="M50.5312 41.6719C49.7875 42.0656 49.0218 42.4156 48.2343 42.7C45.7187 43.6406 43.0718 44.1219 40.3812 44.1219C30.0343 44.1219 21.0218 37.0125 21.0218 27.8687C21.0437 25.375 22.4218 23.0781 24.6093 21.8969C15.2468 22.2906 12.8406 32.0469 12.8406 37.7562C12.8406 53.9219 27.7375 55.5625 30.9531 55.5625C32.6812 55.5625 35.2843 55.0593 36.8593 54.5562L37.1437 54.4687C43.1812 52.3906 48.2999 48.3218 51.7125 42.9187C51.9749 42.5031 51.8437 41.9781 51.45 41.7156C51.1656 41.5406 50.8156 41.5187 50.5312 41.6719Z" fill="url(#paint1_radial_947_23)"/>
<path d="M23.1218 52.8062C21.1749 51.6031 19.4905 50.0062 18.1561 48.1468C12.403 40.2718 14.1311 29.225 22.0061 23.4718C22.8374 22.8812 23.6905 22.3343 24.6093 21.8968C25.2874 21.5687 26.4468 21 27.9999 21.0218C30.2093 21.0437 32.2874 22.0937 33.6218 23.8656C34.4968 25.0468 34.9999 26.4687 35.0218 27.9562C35.0218 27.9125 40.3811 10.5437 17.5218 10.5437C7.91863 10.5437 0.0217564 19.6656 0.0217564 27.65C-0.0219936 31.8718 0.896756 36.0718 2.66863 39.9C8.70613 52.7625 23.4061 59.0625 36.8811 54.5781C32.2655 56.0218 27.2343 55.3875 23.1218 52.8062Z" fill="url(#paint2_linear_947_23)"/>
<path opacity="0.41" d="M23.1218 52.8062C21.1749 51.6031 19.4905 50.0062 18.1561 48.1468C12.403 40.2718 14.1311 29.225 22.0061 23.4718C22.8374 22.8812 23.6905 22.3343 24.6093 21.8968C25.2874 21.5687 26.4468 21 27.9999 21.0218C30.2093 21.0437 32.2874 22.0937 33.6218 23.8656C34.4968 25.0468 34.9999 26.4687 35.0218 27.9562C35.0218 27.9125 40.3811 10.5437 17.5218 10.5437C7.91863 10.5437 0.0217564 19.6656 0.0217564 27.65C-0.0219936 31.8718 0.896756 36.0718 2.66863 39.9C8.70613 52.7625 23.4061 59.0625 36.8811 54.5781C32.2655 56.0218 27.2343 55.3875 23.1218 52.8062Z" fill="url(#paint3_radial_947_23)"/>
<path d="M33.3156 32.5719C33.1406 32.7906 32.5938 33.1187 32.5938 33.8187C32.5938 34.3875 32.9656 34.9344 33.6219 35.3937C36.7719 37.5812 42.7 37.2969 42.7219 37.2969C45.0625 37.2969 47.3375 36.6625 49.35 35.4812C53.4625 33.075 56 28.6781 56 23.9094C56.0656 19.0094 54.25 15.75 53.5281 14.3062C48.8906 5.22813 38.8719 0 28 0C12.6875 0 0.21875 12.2937 0 27.6062C0.109375 19.6219 8.05 13.1687 17.5 13.1687C18.2656 13.1687 22.6406 13.2344 26.6875 15.3781C30.2531 17.2594 32.1344 19.5125 33.425 21.7656C34.7812 24.1062 35.0219 27.0375 35.0219 28.2187C35.0219 29.3781 34.4313 31.1281 33.3156 32.5719Z" fill="url(#paint4_radial_947_23)"/>
<path d="M33.3156 32.5719C33.1406 32.7906 32.5938 33.1187 32.5938 33.8187C32.5938 34.3875 32.9656 34.9344 33.6219 35.3937C36.7719 37.5812 42.7 37.2969 42.7219 37.2969C45.0625 37.2969 47.3375 36.6625 49.35 35.4812C53.4625 33.075 56 28.6781 56 23.9094C56.0656 19.0094 54.25 15.75 53.5281 14.3062C48.8906 5.22813 38.8719 0 28 0C12.6875 0 0.21875 12.2937 0 27.6062C0.109375 19.6219 8.05 13.1687 17.5 13.1687C18.2656 13.1687 22.6406 13.2344 26.6875 15.3781C30.2531 17.2594 32.1344 19.5125 33.425 21.7656C34.7812 24.1062 35.0219 27.0375 35.0219 28.2187C35.0219 29.3781 34.4313 31.1281 33.3156 32.5719Z" fill="url(#paint5_radial_947_23)"/>
</g>
<defs>
<linearGradient id="paint0_linear_947_23" x1="12.8415" y1="38.7231" x2="51.8409" y2="38.7231" gradientUnits="userSpaceOnUse">
<stop stop-color="#0C59A4"/>
<stop offset="1" stop-color="#114A8B"/>
</linearGradient>
<radialGradient id="paint1_radial_947_23" cx="0" cy="0" r="1" gradientUnits="userSpaceOnUse" gradientTransform="translate(34.3857 39.0329) scale(20.8623 19.817)">
<stop offset="0.72" stop-opacity="0"/>
<stop offset="0.95" stop-opacity="0.53"/>
<stop offset="1"/>
</radialGradient>
<linearGradient id="paint2_linear_947_23" x1="33.4185" y1="21.8194" x2="9.0557" y2="48.3564" gradientUnits="userSpaceOnUse">
<stop stop-color="#1B9DE2"/>
<stop offset="0.16" stop-color="#1595DF"/>
<stop offset="0.67" stop-color="#0680D7"/>
<stop offset="1" stop-color="#0078D4"/>
</linearGradient>
<radialGradient id="paint3_radial_947_23" cx="0" cy="0" r="1" gradientUnits="userSpaceOnUse" gradientTransform="translate(15.4455 43.5333) rotate(-81.3826) scale(31.3683 25.3474)">
<stop offset="0.76" stop-opacity="0"/>
<stop offset="0.95" stop-opacity="0.5"/>
<stop offset="1"/>
</radialGradient>
<radialGradient id="paint4_radial_947_23" cx="0" cy="0" r="1" gradientUnits="userSpaceOnUse" gradientTransform="translate(5.65504 10.3672) rotate(92.2911) scale(44.3081 94.3815)">
<stop stop-color="#35C1F1"/>
<stop offset="0.11" stop-color="#34C1ED"/>
<stop offset="0.23" stop-color="#2FC2DF"/>
<stop offset="0.31" stop-color="#2BC3D2"/>
<stop offset="0.67" stop-color="#36C752"/>
</radialGradient>
<radialGradient id="paint5_radial_947_23" cx="0" cy="0" r="1" gradientUnits="userSpaceOnUse" gradientTransform="translate(52.5132 16.9325) rotate(73.7366) scale(21.289 17.3156)">
<stop stop-color="#66EB6E"/>
<stop offset="1" stop-color="#66EB6E" stop-opacity="0"/>
</radialGradient>
<clipPath id="clip0_947_23">
<rect width="56" height="56" fill="white"/>
</clipPath>
</defs>
</svg>
