<svg width="120" height="32" viewBox="0 0 120 32" fill="none" xmlns="http://www.w3.org/2000/svg">
<g clip-path="url(#clip0_1052_2)">
<path d="M79.8412 0V23.2355C82.7381 23.3688 85.6272 23.53 88.5084 23.7201V28.6465C83.9388 28.345 79.3646 28.1163 74.7876 27.9603V0H79.8412ZM120 0.00278261L113.419 15.097L119.998 31.8943L119.991 31.8973C118.073 31.6273 116.153 31.3704 114.231 31.1267L110.536 21.6992L106.807 30.2516C105.037 30.0582 103.267 29.8758 101.495 29.7043L107.91 14.9959L102.035 0.00301449H107.502L110.792 8.39351L114.449 0.00278261H120ZM57.4434 27.7162V0.00255072H71.5504V4.97322H62.497V11.415H69.3471V16.3413H62.497V27.7152L57.4434 27.7162ZM38.5732 4.97345V0.00231884H54.2037V4.97322H48.915V27.8509C47.2282 27.895 45.5433 27.9464 43.8619 28.0093V4.97345H38.5732ZM21.2969 29.4414V0.00324638H35.3337V4.97368H26.3498V11.7067C28.4137 11.6805 31.3483 11.651 33.1741 11.6552V16.582C30.8887 16.5542 28.309 16.6131 26.3498 16.6323V24.0907C29.3422 23.8574 32.337 23.6548 35.3337 23.4831V28.41C30.6493 28.6773 25.9698 29.0214 21.2969 29.4419V29.4414ZM11.3836 18.0531L11.3833 0.00231884H16.4369V29.9061C14.5896 30.0939 12.7455 30.294 10.905 30.5053L5.05287 13.8722V31.2176C3.36707 31.4347 1.68259 31.6616 -0.000488281 31.8984V0.00278261H4.80209L11.3836 18.0531ZM92.6775 28.9435V0.00278261H97.7313V29.3565C96.0487 29.2081 94.3647 29.0711 92.6775 28.9435Z" fill="#DB202C"/>
</g>
<defs>
<clipPath id="clip0_1052_2">
<rect width="120" height="32" fill="white"/>
</clipPath>
</defs>
</svg>
