<svg width="79" height="35" viewBox="0 0 79 35" fill="none" xmlns="http://www.w3.org/2000/svg">
<path d="M0 24.0755C0 22.7083 0.0633253 20.9144 0.168868 18.6225C0.496049 11.7708 1.22429 8.87836 2.58579 8.47532C2.84812 8.39908 3.12765 8.36151 3.40902 8.36468C3.97733 8.36515 4.5312 8.49875 4.99301 8.74676C5.45482 8.99477 5.80142 9.34475 5.98425 9.74767C6.16367 10.1981 6.78637 12.0079 7.38797 13.7544C9.26662 19.2864 11.6097 24.7156 12.0529 24.7156C13.1084 19.8159 13.4567 13.707 13.8155 9.11545C14.3327 2.41385 14.6809 0.872795 15.7047 0.825378H15.7891C16.8446 0.825378 16.9501 1.56034 16.9501 3.42541C16.9501 3.6941 16.9501 3.97861 16.9501 4.28682C16.8868 9.91363 15.7153 22.3606 15.3353 23.8384C14.7337 26.1539 13.4355 27.1418 12.1163 27.1418C11.615 27.1061 11.1323 26.9813 10.7082 26.7779C10.2842 26.5745 9.93112 26.2983 9.67824 25.9722C8.90777 25.1819 6.0898 19.7368 4.89717 16.8681C4.63331 20.1557 4.8444 23.0481 4.475 26.8573C4.29558 28.7224 3.8734 28.9753 2.70188 29.1412C2.51922 29.1518 2.33573 29.1518 2.15306 29.1412C1.87239 29.1466 1.59529 29.0932 1.3529 28.9871C1.11052 28.881 0.912469 28.7264 0.781013 28.5406C0.232193 27.9163 0 26.802 0 24.0755Z" fill="black"/>
<path d="M23.061 9.65288C24.6336 9.65288 24.718 10.4432 24.9185 15.3903C25.0135 17.9983 25.1402 20.6062 25.1402 23.2062C25.1402 24.6366 25.1402 26.075 25.003 27.5133C24.8447 29.7498 24.5914 30.3899 23.2721 30.6744C23.0969 30.7124 22.9161 30.7336 22.7338 30.7376C21.6784 30.7376 21.3723 29.9473 20.9713 28.1692C20.5528 25.4069 20.3765 22.6271 20.4435 19.8475C20.4108 17.586 20.5483 15.3248 20.8552 13.0748C21.2351 10.8778 21.7628 9.7003 22.966 9.68449H23.1243L23.061 9.65288ZM23.2826 4.65829C23.7167 4.68066 24.1216 4.82994 24.4099 5.07391C24.6982 5.31788 24.8468 5.63696 24.8236 5.96226C24.8213 6.34422 24.6227 6.71086 24.2689 6.98605C23.9152 7.26124 23.4334 7.42384 22.9238 7.44009C22.6379 7.44811 22.3544 7.39797 22.1035 7.295C21.8527 7.19202 21.6437 7.04007 21.499 6.85528C21.3383 6.64008 21.2513 6.39844 21.2457 6.15193C21.2699 5.825 21.4292 5.51177 21.7014 5.25553C21.9737 4.9993 22.3455 4.8127 22.7655 4.72152C22.9182 4.68138 23.0786 4.66003 23.2404 4.65829H23.2826Z" fill="black"/>
<path d="M29.9423 28.7777C29.9423 28.3035 31.3672 27.7741 33.3936 26.7309C37.7419 24.4944 39.4623 23.1667 39.4623 21.515C39.4623 21.4281 39.4623 21.3491 39.4623 21.2621C39.2828 19.563 36.8131 19.0019 33.9318 18.3302C31.0505 17.6584 28.6547 16.6943 28.6547 14.7739C28.7712 13.6455 29.2687 12.5577 30.1007 11.6128C32.317 8.72034 35.2406 7.4954 37.6892 7.4954C38.3072 7.4867 38.9214 7.57027 39.4958 7.74124C40.0702 7.91221 40.5934 8.16714 41.0348 8.49115C42.0903 9.28144 42.9557 9.81093 42.9557 10.2851C42.953 10.3614 42.928 10.4363 42.8824 10.5046C42.8368 10.5729 42.7718 10.6328 42.6919 10.6802C42.4726 10.8423 42.1768 10.9332 41.8686 10.9331C41.056 10.9331 40.1694 10.3246 39.3039 9.76351C38.9928 9.55703 38.5904 9.44438 38.1746 9.4474C37.6902 9.48168 37.2203 9.58981 36.7938 9.76514C36.3672 9.94046 35.9931 10.1793 35.6944 10.4669C33.4886 12.2687 32.5915 13.7386 32.5915 14.7423C32.5915 15.5326 33.4675 15.9514 35.2195 16.4809C40.4333 18.0615 42.6074 18.7806 42.808 20.9381V21.112C42.808 23.3406 39.8 26.2172 35.6944 28.0586C33.5836 28.9911 32.3698 29.5127 31.4727 29.5127C31.0447 29.5112 30.6321 29.3933 30.3117 29.1808C30.2091 29.143 30.1211 29.0861 30.0564 29.0155C29.9917 28.9449 29.9524 28.863 29.9423 28.7777Z" fill="black"/>
<path d="M57.9427 28.8014C59.8425 28.8014 60.6763 28.9911 60.8346 29.5443C60.845 29.5993 60.845 29.6552 60.8346 29.7102C60.8346 30.6823 57.985 30.864 51.8107 31.0458C49.5943 31.109 47.9268 31.1802 46.713 31.1802C45.0349 31.1802 44.2117 31.0458 44.0217 30.5953C43.9709 30.4859 43.9425 30.3713 43.9373 30.2555C43.9373 29.4652 45.6893 29.3072 51.3252 29.0543C54.291 28.9199 56.4229 28.8014 57.9111 28.8014H57.9427ZM56.5707 8.1118C57.7317 9.50269 59.5786 20.5034 59.5786 24.8342C59.6087 25.3511 59.552 25.8689 59.4098 26.3752C59.2303 26.8099 58.766 27.0154 57.9744 27.0154H57.7844C56.5601 26.9679 56.4018 26.7704 55.7897 24.5813L55.1142 22.2104C53.3559 22.5299 51.5602 22.7205 49.7526 22.7794C49.3952 24.4167 48.8225 26.0235 48.0429 27.5765C47.903 27.7851 47.6845 27.9585 47.4143 28.0751C47.1442 28.1917 46.8343 28.2464 46.523 28.2324C46.2191 28.2362 45.9185 28.1846 45.647 28.0822C45.4254 27.9953 45.3093 27.7977 45.3093 27.3631C45.4584 25.9851 45.7585 24.6186 46.2064 23.2773C48.0851 16.5046 50.0271 11.3362 51.5574 8.87837C51.9374 8.26195 52.6128 7.25039 53.9005 7.19507H54.0904C54.5728 7.1827 55.0517 7.25995 55.4845 7.41991C55.9173 7.57987 56.2904 7.81757 56.5707 8.1118ZM51.6946 17.0657L50.2065 21.3727L54.6709 21.1515L54.4493 19.1679C54.3226 18.0773 53.9849 16.1885 53.6999 14.9715L53.1617 12.735L51.6946 17.0657Z" fill="black"/>
<path d="M70.439 6.41269C72.095 6.44086 73.6775 6.93011 74.8777 7.78494C76.0778 8.63977 76.8095 9.79882 76.9298 11.0358C76.9846 11.353 77.0128 11.6723 77.0143 11.9921C77.0143 14.4104 75.5261 17.0104 72.6448 19.5709L69.4785 22.0998C69.9029 22.5992 70.4022 23.0606 70.9667 23.4749C72.3071 24.2652 73.3836 24.7552 74.5129 24.7552C75.279 24.7366 76.0177 24.5374 76.6238 24.1862C77.0963 23.8661 77.6646 23.6358 78.2808 23.5144C78.354 23.514 78.4266 23.5251 78.4938 23.5469C78.561 23.5686 78.6215 23.6006 78.6713 23.6409C78.7529 23.6974 78.8184 23.7658 78.8637 23.8419C78.9091 23.918 78.9334 24.0001 78.9351 24.0834C78.9351 24.3995 78.608 24.8026 77.8269 25.3558C76.7812 26.0783 75.4081 26.4766 73.9852 26.4701C73.0706 26.4695 72.1682 26.3127 71.3466 26.0117C70.0895 25.4887 68.941 24.8311 67.9376 24.0597C67.9376 24.1308 67.9376 24.3521 67.9376 24.684C67.9376 26.8178 67.7688 33.4957 67.5999 33.7486C67.5038 33.8701 67.366 33.9701 67.2008 34.0382C67.0356 34.1063 66.8491 34.14 66.6606 34.1358C66.1828 34.1282 65.7281 33.9807 65.394 33.7249C64.7713 32.0732 64.3386 25.6008 64.3386 19.4998C64.3386 14.9319 64.5919 10.5696 65.2252 8.58597C65.7634 6.85525 66.9455 6.63397 69.7952 6.4443L70.439 6.41269ZM69.9535 7.60602C69.463 7.59723 68.975 7.66171 68.5181 7.79568C68.3176 10.6249 68.1909 13.8334 68.1909 16.8207C68.1909 18.1642 68.1909 19.4682 68.2754 20.6615C70.1751 18.5435 72.2649 17.0262 73.6264 14.442C74.0586 13.5916 74.2769 12.6886 74.2702 11.7787C74.3691 10.5028 73.7884 9.24947 72.6554 8.29356C71.8858 7.84216 70.9308 7.60474 69.9535 7.62182V7.60602Z" fill="black"/>
</svg>
