<svg width="164" height="83" viewBox="0 0 164 83" fill="none" xmlns="http://www.w3.org/2000/svg">
<path d="M1 81.4165C6.26788 79.7496 20.5761 75.8323 35.6661 73.4986C54.5285 70.5815 18.333 81.4165 25.98 81.4165C33.6269 81.4165 55.5481 71.415 68.293 73.4986C81.0379 75.5822 41.2738 79.7497 50.4501 81.4165C59.6265 83.0834 81.5477 73.9153 92.7632 74.7487C103.979 75.5822 73.9007 81.4165 79.5085 81.4165C85.1162 81.4165 120.292 75.1655 132.017 76.8324" stroke="#8F00FF"/>
<path d="M37.176 62H30.792L11.584 32.936V62H5.2V23.024H11.584L30.792 52.032V23.024H37.176V62ZM48.8074 27.056C47.65 27.056 46.6794 26.664 45.8954 25.88C45.1114 25.096 44.7194 24.1253 44.7194 22.968C44.7194 21.8107 45.1114 20.84 45.8954 20.056C46.6794 19.272 47.65 18.88 48.8074 18.88C49.9274 18.88 50.8794 19.272 51.6634 20.056C52.4474 20.84 52.8394 21.8107 52.8394 22.968C52.8394 24.1253 52.4474 25.096 51.6634 25.88C50.8794 26.664 49.9274 27.056 48.8074 27.056ZM51.9434 31.144V62H45.5594V31.144H51.9434ZM71.525 62.504C69.0983 62.504 66.9143 62.0747 64.973 61.216C63.069 60.32 61.557 59.1253 60.437 57.632C59.317 56.1013 58.7197 54.4027 58.645 52.536H65.253C65.365 53.8427 65.981 54.944 67.101 55.84C68.2583 56.6987 69.6957 57.128 71.413 57.128C73.205 57.128 74.5863 56.792 75.557 56.12C76.565 55.4107 77.069 54.5147 77.069 53.432C77.069 52.2747 76.509 51.416 75.389 50.856C74.3063 50.296 72.5703 49.68 70.181 49.008C67.8663 48.3733 65.981 47.7573 64.525 47.16C63.069 46.5627 61.7997 45.648 60.717 44.416C59.6717 43.184 59.149 41.56 59.149 39.544C59.149 37.9013 59.6343 36.408 60.605 35.064C61.5757 33.6827 62.957 32.6 64.749 31.816C66.5783 31.032 68.669 30.64 71.021 30.64C74.5303 30.64 77.349 31.536 79.477 33.328C81.6423 35.0827 82.7997 37.4907 82.949 40.552H76.565C76.453 39.1707 75.893 38.0693 74.885 37.248C73.877 36.4267 72.5143 36.016 70.797 36.016C69.117 36.016 67.829 36.3333 66.933 36.968C66.037 37.6027 65.589 38.4427 65.589 39.488C65.589 40.3093 65.8877 41 66.485 41.56C67.0823 42.12 67.8103 42.568 68.669 42.904C69.5277 43.2027 70.797 43.5947 72.477 44.08C74.717 44.6773 76.5463 45.2933 77.965 45.928C79.421 46.5253 80.6717 47.4213 81.717 48.616C82.7623 49.8107 83.3037 51.3973 83.341 53.376C83.341 55.1307 82.8557 56.6987 81.885 58.08C80.9143 59.4613 79.533 60.544 77.741 61.328C75.9863 62.112 73.9143 62.504 71.525 62.504ZM88.1111 46.432C88.1111 43.3333 88.7457 40.5893 90.0151 38.2C91.3217 35.8107 93.0764 33.9627 95.2791 32.656C97.5191 31.312 99.9831 30.64 102.671 30.64C105.098 30.64 107.207 31.1253 108.999 32.096C110.828 33.0293 112.284 34.2053 113.367 35.624V31.144H119.807V62H113.367V57.408C112.284 58.864 110.81 60.0773 108.943 61.048C107.076 62.0187 104.948 62.504 102.559 62.504C99.9084 62.504 97.4817 61.832 95.2791 60.488C93.0764 59.1067 91.3217 57.2027 90.0151 54.776C88.7457 52.312 88.1111 49.5307 88.1111 46.432ZM113.367 46.544C113.367 44.416 112.919 42.568 112.023 41C111.164 39.432 110.026 38.2373 108.607 37.416C107.188 36.5947 105.658 36.184 104.015 36.184C102.372 36.184 100.842 36.5947 99.4231 37.416C98.0044 38.2 96.8471 39.376 95.9511 40.944C95.0924 42.4747 94.6631 44.304 94.6631 46.432C94.6631 48.56 95.0924 50.4267 95.9511 52.032C96.8471 53.6373 98.0044 54.8693 99.4231 55.728C100.879 56.5493 102.41 56.96 104.015 56.96C105.658 56.96 107.188 56.5493 108.607 55.728C110.026 54.9067 111.164 53.712 112.023 52.144C112.919 50.5387 113.367 48.672 113.367 46.544ZM134.576 35.624C135.51 34.056 136.742 32.8427 138.272 31.984C139.84 31.088 141.688 30.64 143.816 30.64V37.248H142.192C139.691 37.248 137.787 37.8827 136.48 39.152C135.211 40.4213 134.576 42.624 134.576 45.76V62H128.192V31.144H134.576V35.624ZM156.684 54.328L149.908 69.784H145.764L149.74 54.328H156.684Z" fill="white"/>
</svg>
