<svg width="77" height="77" viewBox="0 0 77 77" fill="none" xmlns="http://www.w3.org/2000/svg">
<path d="M77 30.5121C76.996 29.143 76.4525 27.8306 75.4871 26.8595L50.1379 1.51269C49.1668 0.547446 47.8543 0.00392106 46.485 0C45.1173 0.0117647 43.8076 0.554112 42.8321 1.51269L33.4599 10.884L11.8743 19.0009C11.0275 19.3218 10.279 19.8582 9.70307 20.5571C9.12711 21.2559 8.74357 22.093 8.59039 22.9856L0.0299684 74.4171C-0.0281601 74.7638 -0.00146482 75.1194 0.107772 75.4535C0.217009 75.7876 0.405538 76.0903 0.65724 76.3356C0.854348 76.5491 1.09425 76.7185 1.36128 76.8329C1.62832 76.9474 1.91648 77.0042 2.20697 76.9998H2.57596L54.0123 68.4401C54.9104 68.3015 55.7545 67.9233 56.4557 67.3455C57.157 66.7676 57.6896 66.0114 57.9973 65.1565L66.1149 43.5729L75.4871 34.2016C75.9696 33.7163 76.3515 33.1407 76.6111 32.5076C76.8707 31.8745 77.0028 31.1964 77 30.5121ZM53.8647 63.57C53.8201 63.6863 53.7453 63.7886 53.648 63.8665C53.5507 63.9443 53.4345 63.9948 53.3112 64.0127L8.66419 71.4655L28.1834 51.9481C29.6844 52.897 31.4258 53.3963 33.2016 53.387C35.099 53.387 36.9538 52.8244 38.5315 51.7703C40.1092 50.7163 41.3388 49.2181 42.0649 47.4653C42.791 45.7124 42.981 43.7837 42.6108 41.9229C42.2407 40.0621 41.327 38.3528 39.9853 37.0113C38.6436 35.6697 36.9342 34.7561 35.0732 34.3859C33.2122 34.0158 31.2833 34.2058 29.5303 34.9318C27.7773 35.6579 26.279 36.8874 25.2248 38.4649C24.1707 40.0424 23.608 41.897 23.608 43.7943C23.5987 45.57 24.098 47.3112 25.0471 48.812L5.52782 68.3294L12.9813 23.6866C12.9993 23.5633 13.0498 23.447 13.1276 23.3498C13.2054 23.2525 13.3078 23.1777 13.4241 23.1331L34.1241 15.3852L61.6133 42.8719L53.8647 63.57ZM28.0358 43.7943C28.0358 42.7727 28.3388 41.774 28.9064 40.9246C29.474 40.0752 30.2808 39.4131 31.2247 39.0222C32.1687 38.6312 33.2073 38.529 34.2094 38.7283C35.2115 38.9276 36.1319 39.4195 36.8544 40.1419C37.5768 40.8643 38.0688 41.7846 38.2681 42.7866C38.4674 43.7886 38.3651 44.8271 37.9741 45.771C37.5832 46.7148 36.9211 47.5215 36.0715 48.0891C35.222 48.6567 34.2233 48.9596 33.2016 48.9596C31.8316 48.9596 30.5176 48.4154 29.5488 47.4467C28.5801 46.478 28.0358 45.1642 28.0358 43.7943ZM72.3508 31.0287L64.1962 39.1824L37.8139 12.8025L45.9684 4.64876C46.0341 4.57719 46.1139 4.52005 46.2029 4.48096C46.2918 4.44187 46.3879 4.42168 46.485 4.42168C46.5822 4.42168 46.6782 4.44187 46.7672 4.48096C46.8561 4.52005 46.9359 4.57719 47.0016 4.64876L72.3508 29.9956C72.4223 30.0613 72.4795 30.1411 72.5186 30.23C72.5577 30.3189 72.5779 30.415 72.5779 30.5121C72.5779 30.6093 72.5577 30.7053 72.5186 30.7942C72.4795 30.8832 72.4223 30.963 72.3508 31.0287Z" fill="white"/>
</svg>
