<svg width="150" height="66" viewBox="0 0 150 66" fill="none" xmlns="http://www.w3.org/2000/svg">
<path d="M21.196 22.432C21.196 23.704 20.896 24.904 20.296 26.032C19.696 27.16 18.736 28.084 17.416 28.804C16.096 29.5 14.404 29.848 12.34 29.848H7.804V40H3.7V14.98H12.34C14.26 14.98 15.88 15.316 17.2 15.988C18.544 16.636 19.54 17.524 20.188 18.652C20.86 19.78 21.196 21.04 21.196 22.432ZM12.34 26.5C13.9 26.5 15.064 26.152 15.832 25.456C16.6 24.736 16.984 23.728 16.984 22.432C16.984 19.696 15.436 18.328 12.34 18.328H7.804V26.5H12.34ZM29.2142 23.044C29.8142 22.036 30.6062 21.256 31.5902 20.704C32.5982 20.128 33.7862 19.84 35.1542 19.84V24.088H34.1102C32.5022 24.088 31.2782 24.496 30.4382 25.312C29.6222 26.128 29.2142 27.544 29.2142 29.56V40H25.1102V20.164H29.2142V23.044ZM47.5306 40.324C45.6586 40.324 43.9666 39.904 42.4546 39.064C40.9426 38.2 39.7546 37 38.8906 35.464C38.0266 33.904 37.5946 32.104 37.5946 30.064C37.5946 28.048 38.0386 26.26 38.9266 24.7C39.8146 23.14 41.0266 21.94 42.5626 21.1C44.0986 20.26 45.8146 19.84 47.7106 19.84C49.6066 19.84 51.3226 20.26 52.8586 21.1C54.3946 21.94 55.6066 23.14 56.4946 24.7C57.3826 26.26 57.8266 28.048 57.8266 30.064C57.8266 32.08 57.3706 33.868 56.4586 35.428C55.5466 36.988 54.2986 38.2 52.7146 39.064C51.1546 39.904 49.4266 40.324 47.5306 40.324ZM47.5306 36.76C48.5866 36.76 49.5706 36.508 50.4826 36.004C51.4186 35.5 52.1746 34.744 52.7506 33.736C53.3266 32.728 53.6146 31.504 53.6146 30.064C53.6146 28.624 53.3386 27.412 52.7866 26.428C52.2346 25.42 51.5026 24.664 50.5906 24.16C49.6786 23.656 48.6946 23.404 47.6386 23.404C46.5826 23.404 45.5986 23.656 44.6866 24.16C43.7986 24.664 43.0906 25.42 42.5626 26.428C42.0346 27.412 41.7706 28.624 41.7706 30.064C41.7706 32.2 42.3106 33.856 43.3906 35.032C44.4946 36.184 45.8746 36.76 47.5306 36.76ZM63.9716 17.536C63.2276 17.536 62.6036 17.284 62.0996 16.78C61.5956 16.276 61.3436 15.652 61.3436 14.908C61.3436 14.164 61.5956 13.54 62.0996 13.036C62.6036 12.532 63.2276 12.28 63.9716 12.28C64.6916 12.28 65.3036 12.532 65.8076 13.036C66.3116 13.54 66.5636 14.164 66.5636 14.908C66.5636 15.652 66.3116 16.276 65.8076 16.78C65.3036 17.284 64.6916 17.536 63.9716 17.536ZM65.9876 43.888C65.9876 45.832 65.4956 47.236 64.5116 48.1C63.5516 48.988 62.1476 49.432 60.2996 49.432H58.1756V45.976H59.5796C60.4196 45.976 61.0076 45.808 61.3436 45.472C61.7036 45.16 61.8836 44.632 61.8836 43.888V20.164H65.9876V43.888ZM89.5558 29.596C89.5558 30.34 89.5078 31.012 89.4118 31.612H74.2558C74.3758 33.196 74.9638 34.468 76.0198 35.428C77.0758 36.388 78.3718 36.868 79.9078 36.868C82.1158 36.868 83.6758 35.944 84.5878 34.096H89.0158C88.4158 35.92 87.3238 37.42 85.7398 38.596C84.1798 39.748 82.2358 40.324 79.9078 40.324C78.0118 40.324 76.3078 39.904 74.7958 39.064C73.3078 38.2 72.1318 37 71.2678 35.464C70.4278 33.904 70.0078 32.104 70.0078 30.064C70.0078 28.024 70.4158 26.236 71.2318 24.7C72.0718 23.14 73.2358 21.94 74.7238 21.1C76.2358 20.26 77.9638 19.84 79.9078 19.84C81.7798 19.84 83.4478 20.248 84.9118 21.064C86.3758 21.88 87.5158 23.032 88.3318 24.52C89.1478 25.984 89.5558 27.676 89.5558 29.596ZM85.2718 28.3C85.2478 26.788 84.7078 25.576 83.6518 24.664C82.5958 23.752 81.2878 23.296 79.7278 23.296C78.3118 23.296 77.0998 23.752 76.0918 24.664C75.0838 25.552 74.4838 26.764 74.2918 28.3H85.2718ZM92.2265 30.064C92.2265 28.024 92.6345 26.236 93.4505 24.7C94.2905 23.14 95.4425 21.94 96.9065 21.1C98.3705 20.26 100.051 19.84 101.947 19.84C104.347 19.84 106.327 20.416 107.887 21.568C109.471 22.696 110.539 24.316 111.091 26.428H106.663C106.303 25.444 105.727 24.676 104.935 24.124C104.143 23.572 103.147 23.296 101.947 23.296C100.267 23.296 98.9225 23.896 97.9145 25.096C96.9305 26.272 96.4385 27.928 96.4385 30.064C96.4385 32.2 96.9305 33.868 97.9145 35.068C98.9225 36.268 100.267 36.868 101.947 36.868C104.323 36.868 105.895 35.824 106.663 33.736H111.091C110.515 35.752 109.435 37.36 107.851 38.56C106.267 39.736 104.299 40.324 101.947 40.324C100.051 40.324 98.3705 39.904 96.9065 39.064C95.4425 38.2 94.2905 37 93.4505 35.464C92.6345 33.904 92.2265 32.104 92.2265 30.064ZM119.968 23.512V34.492C119.968 35.236 120.136 35.776 120.472 36.112C120.832 36.424 121.432 36.58 122.272 36.58H124.792V40H121.552C119.704 40 118.288 39.568 117.304 38.704C116.32 37.84 115.828 36.436 115.828 34.492V23.512H113.488V20.164H115.828V15.232H119.968V20.164H124.792V23.512H119.968ZM135.775 40.324C134.215 40.324 132.811 40.048 131.563 39.496C130.339 38.92 129.367 38.152 128.647 37.192C127.927 36.208 127.543 35.116 127.495 33.916H131.743C131.815 34.756 132.211 35.464 132.931 36.04C133.675 36.592 134.599 36.868 135.703 36.868C136.855 36.868 137.743 36.652 138.367 36.22C139.015 35.764 139.339 35.188 139.339 34.492C139.339 33.748 138.979 33.196 138.259 32.836C137.563 32.476 136.447 32.08 134.911 31.648C133.423 31.24 132.211 30.844 131.275 30.46C130.339 30.076 129.523 29.488 128.827 28.696C128.155 27.904 127.819 26.86 127.819 25.564C127.819 24.508 128.131 23.548 128.755 22.684C129.379 21.796 130.267 21.1 131.419 20.596C132.595 20.092 133.939 19.84 135.451 19.84C137.707 19.84 139.519 20.416 140.887 21.568C142.279 22.696 143.023 24.244 143.119 26.212H139.015C138.943 25.324 138.583 24.616 137.935 24.088C137.287 23.56 136.411 23.296 135.307 23.296C134.227 23.296 133.399 23.5 132.823 23.908C132.247 24.316 131.959 24.856 131.959 25.528C131.959 26.056 132.151 26.5 132.535 26.86C132.919 27.22 133.387 27.508 133.939 27.724C134.491 27.916 135.307 28.168 136.387 28.48C137.827 28.864 139.003 29.26 139.915 29.668C140.851 30.052 141.655 30.628 142.327 31.396C142.999 32.164 143.347 33.184 143.371 34.456C143.371 35.584 143.059 36.592 142.435 37.48C141.811 38.368 140.923 39.064 139.771 39.568C138.643 40.072 137.311 40.324 135.775 40.324Z" fill="white"/>
<path d="M1 64.4165C6.26788 62.7496 20.5761 58.8323 35.6661 56.4986C54.5285 53.5815 18.333 64.4165 25.98 64.4165C33.6269 64.4165 55.5481 54.415 68.293 56.4986C81.0379 58.5822 41.2738 62.7497 50.4501 64.4165C59.6265 66.0834 81.5477 56.9153 92.7632 57.7487C103.979 58.5822 73.9007 64.4165 79.5085 64.4165C85.1162 64.4165 120.292 58.1655 132.017 59.8324" stroke="#8F00FF"/>
</svg>
