<svg width="34" height="34" viewBox="0 0 34 34" fill="none" xmlns="http://www.w3.org/2000/svg">
<path d="M10.625 15.5833C11.3764 15.5833 12.0971 15.2848 12.6285 14.7535C13.1598 14.2221 13.4583 13.5015 13.4583 12.75C13.4583 11.9986 13.1598 11.2779 12.6285 10.7465C12.0971 10.2152 11.3764 9.91668 10.625 9.91668H4.24999V15.5833H10.625ZM12.0417 18.4167H4.24999V24.0833H12.0417C12.7931 24.0833 13.5138 23.7848 14.0451 23.2535C14.5765 22.7221 14.875 22.0015 14.875 21.25C14.875 20.4986 14.5765 19.7779 14.0451 19.2465C13.5138 18.7152 12.7931 18.4167 12.0417 18.4167ZM14.9642 16.3937C16.0261 17.0322 16.8494 18.0011 17.3081 19.152C17.7668 20.303 17.8357 21.5726 17.5041 22.7664C17.1725 23.9603 16.4588 25.0125 15.4723 25.7621C14.4857 26.5116 13.2807 26.9172 12.0417 26.9167H1.41666V7.08334H10.625C11.7037 7.08347 12.7601 7.39151 13.6698 7.97127C14.5795 8.55103 15.3048 9.37841 15.7605 10.3562C16.2163 11.334 16.3834 12.4215 16.2423 13.491C16.1013 14.5605 15.6579 15.5675 14.9642 16.3937ZM21.9583 8.50001H29.75V10.625H21.9583V8.50001ZM32.5833 20.5417H21.9583V20.8958C21.958 21.771 22.2523 22.6207 22.7939 23.3081C23.3355 23.9956 24.0927 24.4806 24.9436 24.6852C25.7945 24.8897 26.6895 24.8018 27.4843 24.4356C28.2791 24.0695 28.9275 23.4463 29.325 22.6667H32.3482C31.9165 24.2367 30.9305 25.5971 29.5727 26.4959C28.2149 27.3946 26.5773 27.7708 24.9634 27.5546C23.3495 27.3385 21.8686 26.5447 20.7952 25.3204C19.7217 24.0961 19.1283 22.5241 19.125 20.8958V18.7708C19.125 16.9862 19.834 15.2746 21.0959 14.0126C22.3579 12.7506 24.0695 12.0417 25.8542 12.0417C27.6388 12.0417 29.3504 12.7506 30.6124 14.0126C31.8744 15.2746 32.5833 16.9862 32.5833 18.7708V20.5417ZM29.6027 17.7083C29.3707 16.893 28.8793 16.1756 28.2028 15.6647C27.5264 15.1539 26.7018 14.8775 25.8542 14.8775C25.0065 14.8775 24.1819 15.1539 23.5055 15.6647C22.8291 16.1756 22.3376 16.893 22.1057 17.7083H29.6027Z" fill="black"/>
</svg>
