<svg width="24" height="24" viewBox="0 0 24 24" fill="none" xmlns="http://www.w3.org/2000/svg">
<path d="M5.86356 3.9414L11.5695 3.3434L17.2754 3.94212L21.6928 9.82737L11.5695 21.5176L1.44618 9.82737L5.86356 3.9414Z" fill="#FDB300"/>
<path d="M5.54684 9.82376L11.5695 21.5176L1.44618 9.82376H5.54684ZM17.5921 9.82376L11.5695 21.5176L21.6928 9.82376H17.5921Z" fill="#EA6C00"/>
<path d="M5.54684 9.82376H17.5921L11.5695 21.5176L5.54684 9.82376Z" fill="#FDAD00"/>
<path d="M11.5695 3.3434L5.86356 3.9414L5.54684 9.82376L11.5695 3.3434ZM11.5695 3.3434L17.2754 3.9414L17.5921 9.82376L11.5695 3.3434Z" fill="#FDD231"/>
<path d="M21.6928 9.82377L17.2754 3.94141L17.5921 9.82377H21.6928ZM1.44618 9.82377L5.86356 3.94141L5.54684 9.82377H1.44618Z" fill="#FDAD00"/>
<path d="M11.5695 3.3434L5.54684 9.82376H17.5921L11.5695 3.3434Z" fill="#FEEEB7"/>
</svg>
