<svg width="133" height="62" viewBox="0 0 133 62" fill="none" xmlns="http://www.w3.org/2000/svg">
<path d="M11.944 40.252C10.264 40.252 8.752 39.964 7.408 39.388C6.064 38.788 5.008 37.948 4.24 36.868C3.472 35.788 3.088 34.528 3.088 33.088H7.48C7.576 34.168 7.996 35.056 8.74 35.752C9.508 36.448 10.576 36.796 11.944 36.796C13.36 36.796 14.464 36.46 15.256 35.788C16.048 35.092 16.444 34.204 16.444 33.124C16.444 32.284 16.192 31.6 15.688 31.072C15.208 30.544 14.596 30.136 13.852 29.848C13.132 29.56 12.124 29.248 10.828 28.912C9.196 28.48 7.864 28.048 6.832 27.616C5.824 27.16 4.96 26.464 4.24 25.528C3.52 24.592 3.16 23.344 3.16 21.784C3.16 20.344 3.52 19.084 4.24 18.004C4.96 16.924 5.968 16.096 7.264 15.52C8.56 14.944 10.06 14.656 11.764 14.656C14.188 14.656 16.168 15.268 17.704 16.492C19.264 17.692 20.128 19.348 20.296 21.46H15.76C15.688 20.548 15.256 19.768 14.464 19.12C13.672 18.472 12.628 18.148 11.332 18.148C10.156 18.148 9.196 18.448 8.452 19.048C7.708 19.648 7.336 20.512 7.336 21.64C7.336 22.408 7.564 23.044 8.02 23.548C8.5 24.028 9.1 24.412 9.82 24.7C10.54 24.988 11.524 25.3 12.772 25.636C14.428 26.092 15.772 26.548 16.804 27.004C17.86 27.46 18.748 28.168 19.468 29.128C20.212 30.064 20.584 31.324 20.584 32.908C20.584 34.18 20.236 35.38 19.54 36.508C18.868 37.636 17.872 38.548 16.552 39.244C15.256 39.916 13.72 40.252 11.944 40.252ZM33.2746 30.1L42.4186 40H36.8746L29.5306 31.468V40H25.4266V13.36H29.5306V28.84L36.7306 20.164H42.4186L33.2746 30.1ZM47.4482 17.536C46.7042 17.536 46.0802 17.284 45.5762 16.78C45.0722 16.276 44.8202 15.652 44.8202 14.908C44.8202 14.164 45.0722 13.54 45.5762 13.036C46.0802 12.532 46.7042 12.28 47.4482 12.28C48.1682 12.28 48.7802 12.532 49.2842 13.036C49.7882 13.54 50.0402 14.164 50.0402 14.908C50.0402 15.652 49.7882 16.276 49.2842 16.78C48.7802 17.284 48.1682 17.536 47.4482 17.536ZM49.4642 20.164V40H45.3602V20.164H49.4642ZM58.9563 13.36V40H54.8523V13.36H58.9563ZM68.4485 13.36V40H64.3445V13.36H68.4485ZM81.0367 40.324C79.4767 40.324 78.0727 40.048 76.8247 39.496C75.6007 38.92 74.6287 38.152 73.9087 37.192C73.1887 36.208 72.8047 35.116 72.7567 33.916H77.0047C77.0767 34.756 77.4727 35.464 78.1927 36.04C78.9367 36.592 79.8607 36.868 80.9647 36.868C82.1167 36.868 83.0047 36.652 83.6287 36.22C84.2767 35.764 84.6007 35.188 84.6007 34.492C84.6007 33.748 84.2407 33.196 83.5207 32.836C82.8247 32.476 81.7087 32.08 80.1727 31.648C78.6847 31.24 77.4727 30.844 76.5367 30.46C75.6007 30.076 74.7847 29.488 74.0887 28.696C73.4167 27.904 73.0807 26.86 73.0807 25.564C73.0807 24.508 73.3927 23.548 74.0167 22.684C74.6407 21.796 75.5287 21.1 76.6807 20.596C77.8567 20.092 79.2007 19.84 80.7127 19.84C82.9687 19.84 84.7807 20.416 86.1487 21.568C87.5407 22.696 88.2847 24.244 88.3807 26.212H84.2767C84.2047 25.324 83.8447 24.616 83.1967 24.088C82.5487 23.56 81.6727 23.296 80.5687 23.296C79.4887 23.296 78.6607 23.5 78.0847 23.908C77.5087 24.316 77.2207 24.856 77.2207 25.528C77.2207 26.056 77.4127 26.5 77.7967 26.86C78.1807 27.22 78.6487 27.508 79.2007 27.724C79.7527 27.916 80.5687 28.168 81.6487 28.48C83.0887 28.864 84.2647 29.26 85.1767 29.668C86.1127 30.052 86.9167 30.628 87.5887 31.396C88.2607 32.164 88.6087 33.184 88.6327 34.456C88.6327 35.584 88.3207 36.592 87.6967 37.48C87.0727 38.368 86.1847 39.064 85.0327 39.568C83.9047 40.072 82.5727 40.324 81.0367 40.324Z" fill="white"/>
<path d="M1 60.4165C6.26788 58.7496 20.5761 54.8323 35.6661 52.4986C54.5285 49.5815 18.333 60.4165 25.98 60.4165C33.6269 60.4165 55.5481 50.415 68.293 52.4986C81.0379 54.5822 41.2738 58.7497 50.4501 60.4165C59.6265 62.0834 81.5477 52.9153 92.7632 53.7487C103.979 54.5822 73.9007 60.4165 79.5085 60.4165C85.1162 60.4165 120.292 54.1655 132.017 55.8324" stroke="#8F00FF"/>
</svg>
