<svg width="515" height="533" viewBox="0 0 515 533" fill="none" xmlns="http://www.w3.org/2000/svg">
<mask id="mask0_414_198" style="mask-type:luminance" maskUnits="userSpaceOnUse" x="193" y="9" width="42" height="40">
<path d="M234.343 9H193.054V48.4493H234.343V9Z" fill="white"/>
</mask>
<g mask="url(#mask0_414_198)">
<path d="M227.489 9H199.908C196.121 9 193.054 12.0026 193.054 15.7098V41.685C193.054 45.388 196.121 48.3948 199.908 48.3948H227.489C231.271 48.3948 234.343 45.3922 234.343 41.685V15.7098C234.343 12.0026 231.271 9 227.489 9Z" fill="#49021F"/>
<path d="M208.046 19.3078V36.5687C208.046 36.7491 207.963 36.8413 207.798 36.8413H204.446C204.297 36.8413 204.223 36.7491 204.227 36.5687V19.3078C204.227 19.1611 204.309 19.0898 204.474 19.0898H207.827C207.854 19.0836 207.883 19.0836 207.91 19.0898C207.937 19.0986 207.962 19.1128 207.984 19.1317C208.005 19.1503 208.022 19.1731 208.034 19.1988C208.039 19.225 208.039 19.2523 208.034 19.2785L208.046 19.3078ZM218.141 37.1097H217.964C216.685 37.1334 215.417 36.8744 214.248 36.3507C213.177 35.87 212.275 35.0718 211.659 34.061C211.013 32.9332 210.687 31.6457 210.717 30.3412V30.228C210.707 28.979 211.032 27.7508 211.659 26.676C212.298 25.5964 213.214 24.7136 214.31 24.1221L214.4 24.076C215.748 23.3911 217.242 23.0554 218.748 23.0989H219.161H219.285L219.557 23.124H219.632V17.8149C219.632 17.6891 219.69 17.6262 219.797 17.6262H223.29C223.312 17.622 223.334 17.622 223.356 17.6262C223.378 17.6347 223.397 17.6476 223.414 17.6639C223.431 17.6775 223.443 17.6969 223.447 17.7185C223.453 17.7404 223.453 17.7636 223.447 17.7856V33.801C223.447 34.1364 223.447 34.4677 223.488 34.8032L223.513 35.1513L223.538 35.4784V35.7803C223.538 35.8362 223.524 35.8913 223.496 35.9397C223.467 35.9898 223.422 36.0282 223.368 36.0487C222.467 36.418 221.53 36.6907 220.573 36.8623C219.755 37.0103 218.927 37.0916 218.096 37.1055L218.141 37.1097ZM219.652 33.7548V26.3489C219.502 26.3081 219.349 26.28 219.194 26.265C219.008 26.265 218.818 26.2399 218.628 26.2399C217.959 26.2286 217.295 26.372 216.688 26.6592C216.105 26.9443 215.604 27.3777 215.234 27.9173C214.83 28.5523 214.632 29.3005 214.669 30.0561C214.653 30.6514 214.753 31.2441 214.962 31.8006C215.134 32.2496 215.398 32.6558 215.738 32.9916C216.07 33.3049 216.469 33.5372 216.903 33.671C217.364 33.8154 217.844 33.8876 218.327 33.8848C218.589 33.8848 218.828 33.8764 219.045 33.8597C219.223 33.8474 219.398 33.8179 219.57 33.7716L219.652 33.7548Z" fill="#FF3366"/>
</g>
<mask id="mask1_414_198" style="mask-type:luminance" maskUnits="userSpaceOnUse" x="96" y="9" width="42" height="40">
<path d="M137.343 9.23096H96.0537V48.5586H137.343V9.23096Z" fill="white"/>
</mask>
<g mask="url(#mask1_414_198)">
<path d="M130.489 9.23096H102.908C99.1215 9.23096 96.0537 12.2252 96.0537 15.9156V41.8111C96.0537 45.5057 99.1215 48.4957 102.908 48.4957H130.489C134.271 48.4957 137.343 45.5057 137.343 41.8111V15.9156C137.343 12.2252 134.271 9.23096 130.489 9.23096Z" fill="#470137"/>
<path d="M117.759 19.5556L112.594 27.8506L118.106 36.6572C118.141 36.7197 118.151 36.7929 118.135 36.8627C118.135 36.892 118.106 36.8962 118.077 36.9004H118.007H117.941H113.887C113.672 36.9004 113.519 36.8669 113.424 36.7117C113.057 36.0155 112.689 35.3152 112.318 34.6149C111.983 33.9942 111.644 33.3778 111.294 32.7655L111.141 32.4929C110.728 31.7674 110.315 31.0377 109.902 30.3038H109.873C109.502 31.0335 109.118 31.7506 108.725 32.4678C108.333 33.1849 107.937 33.902 107.549 34.6149C107.16 35.3278 106.764 36.0323 106.359 36.7369C106.33 36.7975 106.283 36.8472 106.225 36.8788C106.166 36.9105 106.099 36.9224 106.033 36.913H102.16H102.103C102.074 36.913 102.057 36.913 102.049 36.8627C102.039 36.7967 102.054 36.7295 102.09 36.6739L107.437 28.1106L102.247 19.5305C102.193 19.4592 102.181 19.4005 102.218 19.3543C102.238 19.3315 102.264 19.3142 102.292 19.304C102.324 19.2977 102.356 19.2977 102.387 19.304H106.289C106.375 19.2988 106.461 19.3131 106.541 19.3459C106.607 19.3808 106.664 19.4312 106.706 19.4927C107.042 20.214 107.411 20.9339 107.813 21.6524C108.226 22.3695 108.639 23.0825 109.052 23.787C109.464 24.4915 109.848 25.196 110.199 25.9215H110.228C110.592 25.196 110.963 24.4747 111.351 23.7618C111.739 23.0489 112.115 22.3528 112.512 21.6398C112.908 20.9269 113.288 20.2308 113.664 19.543C113.684 19.4748 113.722 19.4138 113.775 19.3669C113.843 19.3328 113.919 19.3183 113.994 19.325H117.623C117.655 19.3144 117.69 19.3144 117.722 19.325C117.754 19.3372 117.782 19.3592 117.801 19.3879C117.811 19.4192 117.811 19.453 117.801 19.4843C117.797 19.5184 117.781 19.5498 117.755 19.5724L117.759 19.5556ZM125.898 37.2527H125.708C124.43 37.2756 123.162 37.0182 121.992 36.4978C120.922 36.0173 120.02 35.2209 119.403 34.2123C118.757 33.0907 118.431 31.8085 118.461 30.5093V30.3919C118.451 29.1469 118.776 27.9227 119.403 26.8525C120.041 25.7756 120.956 24.8956 122.049 24.307L122.144 24.2567C123.493 23.5752 124.986 23.2411 126.492 23.2837H126.748H126.855H127.033H127.231H127.38V18.0166C127.38 17.8908 127.434 17.8279 127.545 17.8279H131.038C131.06 17.8237 131.082 17.8237 131.104 17.8279C131.126 17.8364 131.145 17.8492 131.162 17.8656C131.179 17.8792 131.191 17.8985 131.195 17.9201C131.201 17.942 131.201 17.9653 131.195 17.9872V33.9523C131.195 34.2207 131.195 34.51 131.228 34.8204L131.278 35.5207L131.306 35.9401C131.307 35.9974 131.293 36.0539 131.265 36.1036C131.234 36.1516 131.189 36.1895 131.137 36.2126C130.242 36.5699 129.314 36.834 128.367 37.001C127.551 37.15 126.726 37.2341 125.898 37.2527ZM127.396 33.8978V26.517C127.246 26.4762 127.093 26.4481 126.938 26.4331C126.752 26.4331 126.562 26.408 126.372 26.408C125.703 26.3967 125.039 26.5401 124.432 26.8273C123.849 27.1131 123.349 27.5463 122.978 28.0854C122.59 28.6934 122.392 29.4072 122.413 30.1319V30.22C122.397 30.8096 122.495 31.3966 122.702 31.9477C122.871 32.3977 123.136 32.8043 123.478 33.1387C123.811 33.4508 124.209 33.6817 124.642 33.8139C125.104 33.9598 125.584 34.0333 126.067 34.032C126.327 34.032 126.566 34.032 126.785 34.0026C126.962 33.9897 127.137 33.9616 127.31 33.9187L127.396 33.8978Z" fill="#FF61F6"/>
</g>
<path d="M13.741 49.7915C15.5657 49.7971 17.318 49.0665 18.6125 47.7603C19.9071 46.4541 20.638 44.6793 20.6445 42.8259V35.8604H13.741C11.9221 35.8604 10.1777 36.5942 8.89152 37.9005C7.60536 39.2068 6.88281 40.9786 6.88281 42.8259C6.88281 44.6733 7.60536 46.4451 8.89152 47.7514C10.1777 49.0577 11.9221 49.7915 13.741 49.7915Z" fill="#0ACF83"/>
<path d="M6.8335 28.8948C6.83674 27.9768 7.01799 27.0684 7.3669 26.2215C7.7158 25.3746 8.22552 24.6058 8.86696 23.959C9.5084 23.3122 10.269 22.8 11.1053 22.4517C11.9416 22.1035 12.8373 21.9259 13.7412 21.9292H20.6448V35.8604H13.7412C12.8373 35.8637 11.9416 35.6862 11.1053 35.3379C10.269 34.9897 9.5084 34.4775 8.86696 33.8307C8.22552 33.1839 7.7158 32.4151 7.3669 31.5682C7.01799 30.7213 6.83674 29.8129 6.8335 28.8948Z" fill="#A259FF"/>
<path d="M6.8335 14.9634C6.84115 13.1101 7.57309 11.3357 8.86842 10.0303C10.1637 8.72486 11.9164 7.99531 13.7412 8.002H20.6448V21.929H13.7412C12.8373 21.9323 11.9416 21.7548 11.1053 21.4065C10.269 21.0582 9.5084 20.5461 8.86696 19.8992C8.22552 19.2524 7.7158 18.4836 7.3669 17.6367C7.01799 16.7898 6.83674 15.8814 6.8335 14.9634Z" fill="#F24E1E"/>
<path d="M20.6445 8.0021H27.5522C28.4667 7.9793 29.3765 8.14256 30.228 8.48226C31.0794 8.82196 31.8553 9.33124 32.5101 9.98012C33.1648 10.629 33.6851 11.4044 34.0404 12.2605C34.3956 13.1167 34.5786 14.0365 34.5786 14.9656C34.5786 15.8947 34.3956 16.8144 34.0404 17.6706C33.6851 18.5268 33.1648 19.3022 32.5101 19.9511C31.8553 20.5999 31.0794 21.1092 30.228 21.4489C29.3765 21.7886 28.4667 21.9519 27.5522 21.9291H20.6445V8.0021Z" fill="#FF7262"/>
<path d="M34.4558 28.8948C34.4657 30.2847 34.0688 31.6463 33.3156 32.8067C32.5624 33.9672 31.4867 34.8742 30.2252 35.4129C28.9636 35.9515 27.573 36.0974 26.2296 35.832C24.8863 35.5667 23.6509 34.9021 22.68 33.9225C21.7091 32.9429 21.0466 31.6925 20.7765 30.3299C20.5064 28.9673 20.6409 27.554 21.1628 26.2691C21.6848 24.9843 22.5708 23.8858 23.7083 23.1132C24.8459 22.3405 26.1838 21.9284 27.5523 21.9292C29.377 21.9237 31.1293 22.6543 32.4238 23.9605C33.7184 25.2666 34.4493 27.0415 34.4558 28.8948Z" fill="#1ABCFE"/>
<mask id="mask2_414_198" style="mask-type:luminance" maskUnits="userSpaceOnUse" x="290" y="104" width="42" height="63">
<path d="M331.289 104H290V166.464H331.289V104Z" fill="white"/>
</mask>
<g mask="url(#mask2_414_198)">
<path d="M310.62 166.305L293.819 161.302L290.074 116.246H331.219L327.462 161.293L310.62 166.305Z" fill="#264DE4"/>
<path d="M324.262 158.425L327.466 119.927H310.645V162.476L324.262 158.425Z" fill="#2965F1"/>
<path d="M298.658 136.639L299.121 142.166H310.645V136.639H298.658ZM297.733 125.471L298.204 130.998H310.649V125.471H297.733ZM310.649 151.01L304.914 149.333L304.546 144.925H299.348L300.07 153.602L310.624 156.743L310.649 151.01Z" fill="#EBEBEB"/>
<path d="M299.756 104H305.991V106.797H302.362V109.598H305.991V112.396H299.756V104ZM307.242 104H313.481V106.432H309.852V106.919H313.481V112.517H307.23V109.955H310.859V109.468H307.23L307.242 104ZM314.728 104H320.967V106.432H317.337V106.919H320.967V112.517H314.728V109.955H318.378V109.468H314.744V104H314.728Z" fill="black"/>
<path d="M322.602 136.639L323.531 125.471H310.628V130.998H317.887L317.416 136.656H310.628V142.183H316.97L316.371 149.35L310.628 151.027V156.777L321.19 153.635L321.264 152.7L322.478 138.153L322.602 136.639Z" fill="white"/>
</g>
<mask id="mask3_414_198" style="mask-type:luminance" maskUnits="userSpaceOnUse" x="290" y="0" width="42" height="58">
<path d="M331.289 0H290V57.658H331.289V0Z" fill="white"/>
</mask>
<g mask="url(#mask3_414_198)">
<path d="M331.219 11.3018L327.462 52.8857L310.611 57.4987L293.811 52.8857L290.066 11.2935L331.219 11.3018Z" fill="#E44D26"/>
<path d="M310.645 53.9758L324.27 50.2393L327.462 14.7026H310.645V53.9758Z" fill="#F16529"/>
<path d="M303.357 24.9059H310.645V19.8022H297.733L297.857 21.1736L299.125 35.2305H310.649V30.1269H303.836L303.357 24.9059ZM304.521 37.7803H299.348L300.07 45.79L310.624 48.692H310.645V43.3913H310.624L304.885 41.8565L304.521 37.7803Z" fill="#EBEBEB"/>
<path d="M293.902 0H296.52V2.56229H298.914V0H301.532V7.74559H298.914V5.14974H296.52V7.74559H293.902V0ZM304.976 2.57066H302.688V0H309.914V2.57066H307.61V7.74559H304.992V2.57066H304.976ZM311.045 0H313.774L315.455 2.72585L317.131 0H319.86V7.74559H317.255V3.90425L315.455 6.65943H315.409L313.605 3.90425V7.74559H311.045V0ZM321.165 0H323.783V5.19167H327.462V7.74559H321.165V0Z" fill="black"/>
<path d="M310.628 35.2304H316.97L316.371 41.8438L310.628 43.3912V48.7003L321.19 45.8025L321.264 44.9387L322.478 31.5191L322.602 30.1478H310.628V35.2304ZM310.628 24.8932H323.068L323.172 23.7441L323.407 21.1609L323.531 19.7896H310.628V24.8932Z" fill="white"/>
</g>
<mask id="mask4_414_198" style="mask-type:luminance" maskUnits="userSpaceOnUse" x="290" y="220" width="42" height="42">
<path d="M331.289 220H290V261.643H331.289V220Z" fill="white"/>
</mask>
<g mask="url(#mask4_414_198)">
<path d="M321.615 220H299.678C298.412 219.996 297.156 220.245 295.985 220.733C294.813 221.221 293.747 221.939 292.848 222.846C291.95 223.752 291.236 224.83 290.747 226.016C290.258 227.203 290.004 228.476 290 229.763V251.884C290.004 253.171 290.258 254.444 290.747 255.63C291.236 256.817 291.95 257.895 292.848 258.801C293.747 259.708 294.813 260.426 295.985 260.914C297.156 261.402 298.412 261.651 299.678 261.647H321.615C322.882 261.651 324.137 261.402 325.308 260.914C326.48 260.426 327.545 259.708 328.444 258.801C329.342 257.894 330.056 256.817 330.544 255.63C331.032 254.443 331.286 253.17 331.289 251.884V229.763C331.286 228.477 331.032 227.204 330.544 226.017C330.056 224.83 329.342 223.752 328.444 222.846C327.545 221.939 326.48 221.221 325.308 220.733C324.137 220.245 322.882 219.996 321.615 220Z" fill="#F7DF1E"/>
<path d="M300.859 254.803L304.018 252.874C304.629 253.964 305.182 254.887 306.495 254.887C307.808 254.887 308.559 254.383 308.559 252.425V239.119H312.437V252.48C312.437 256.535 310.083 258.38 306.656 258.38C303.555 258.38 301.751 256.757 300.838 254.803M314.559 254.383L317.717 252.538C318.543 253.905 319.629 254.912 321.541 254.912C323.151 254.912 324.175 254.103 324.175 252.983C324.175 251.645 323.122 251.167 321.347 250.387L320.376 249.968C317.577 248.764 315.723 247.254 315.723 244.067C315.723 241.132 317.94 238.896 321.405 238.896C323.882 238.896 325.645 239.765 326.921 242.029L323.898 243.983C323.234 242.784 322.511 242.306 321.421 242.306C320.331 242.306 319.563 243.036 319.563 243.983C319.563 245.158 320.286 245.631 321.945 246.361L322.916 246.78C326.219 248.206 328.073 249.657 328.073 252.928C328.073 256.451 325.327 258.38 321.64 258.38C318.044 258.38 315.715 256.644 314.579 254.383H314.559Z" fill="black"/>
</g>
<mask id="mask5_414_198" style="mask-type:luminance" maskUnits="userSpaceOnUse" x="193" y="113" width="42" height="43">
<path d="M234.289 113.786H193V155.429H234.289V113.786Z" fill="white"/>
</mask>
<g mask="url(#mask5_414_198)">
<path d="M227.436 113.786H199.854C198.947 113.794 198.049 113.983 197.214 114.343C196.378 114.703 195.62 115.226 194.984 115.884C194.347 116.541 193.845 117.319 193.504 118.174C193.164 119.029 192.993 119.943 193 120.865V148.283C192.993 149.205 193.164 150.119 193.504 150.974C193.845 151.828 194.347 152.607 194.984 153.264C195.62 153.921 196.378 154.445 197.214 154.805C198.049 155.165 198.947 155.354 199.854 155.362H227.436C228.343 155.354 229.24 155.165 230.076 154.805C230.912 154.445 231.67 153.921 232.306 153.264C232.943 152.607 233.445 151.828 233.786 150.974C234.126 150.119 234.297 149.205 234.29 148.283V120.865C234.297 119.943 234.126 119.029 233.786 118.174C233.445 117.319 232.943 116.541 232.306 115.884C231.67 115.226 230.912 114.703 230.076 114.343C229.24 113.983 228.343 113.794 227.436 113.786Z" fill="#00005B"/>
<path d="M209.594 138.659H203.19L201.885 142.852C201.871 142.924 201.833 142.99 201.778 143.037C201.722 143.084 201.652 143.111 201.58 143.112H198.314C198.128 143.112 198.066 143.007 198.12 142.798L203.661 126.388L203.714 126.216V126.157L203.752 126.032C203.752 125.969 203.789 125.902 203.805 125.826C203.879 125.445 203.917 125.057 203.917 124.669C203.911 124.642 203.911 124.615 203.917 124.589C203.925 124.562 203.939 124.538 203.958 124.518C203.977 124.499 203.999 124.485 204.024 124.476C204.05 124.472 204.076 124.472 204.102 124.476H208.508C208.636 124.476 208.71 124.526 208.727 124.623L215.015 142.831C215.069 143.024 215.015 143.121 214.85 143.121H211.25C211.187 143.124 211.125 143.108 211.072 143.074C211.021 143.037 210.986 142.982 210.973 142.919L209.594 138.659ZM204.185 135.132H208.562L208.5 134.918L208.401 134.582L208.252 134.1L207.971 133.19L207.703 132.314L207.203 130.682C207.067 130.234 206.935 129.781 206.79 129.328L206.65 128.812L206.497 128.246L206.357 127.722H206.332C206.192 128.409 206.022 129.089 205.824 129.76L205.638 130.38L205.188 131.877L204.957 132.645C204.916 132.783 204.879 132.917 204.837 133.064L204.714 133.463L204.59 133.853L204.47 134.234L204.35 134.607C204.305 134.775 204.247 134.964 204.185 135.132ZM225.243 137.031H219.78C219.847 137.589 220.027 138.125 220.309 138.608C220.612 139.079 221.042 139.452 221.547 139.682C222.24 139.992 222.991 140.143 223.748 140.126C224.349 140.114 224.947 140.046 225.536 139.925C226.062 139.848 226.578 139.707 227.072 139.506C227.163 139.43 227.208 139.476 227.208 139.648V142.366C227.215 142.44 227.201 142.514 227.167 142.58C227.137 142.633 227.094 142.677 227.043 142.71C226.496 142.96 225.92 143.137 225.329 143.238C224.525 143.393 223.708 143.464 222.889 143.452C221.789 143.484 220.695 143.283 219.677 142.861L219.594 142.823C218.756 142.442 218.016 141.867 217.435 141.145C216.89 140.456 216.484 139.663 216.242 138.814C216.003 137.971 215.882 137.099 215.882 136.222C215.875 135.267 216.014 134.316 216.295 133.404C216.571 132.52 217.008 131.696 217.583 130.976C218.145 130.272 218.849 129.7 219.648 129.298C220.556 128.887 221.545 128.696 222.538 128.741C223.457 128.719 224.37 128.905 225.21 129.286C225.919 129.599 226.541 130.084 227.022 130.699C227.476 131.306 227.824 131.989 228.05 132.716C228.269 133.42 228.38 134.154 228.381 134.893C228.381 135.312 228.381 135.694 228.339 136.038L228.315 136.331L228.29 136.608V136.75V136.78C228.284 136.843 228.254 136.902 228.207 136.943C228.162 136.985 228.103 137.007 228.042 137.006H227.798H227.625H227.472H227.344H227.208H227.063H226.907H226.494C226.312 137.01 226.13 137.003 225.949 136.985H225.668C225.527 137.061 225.383 137.031 225.238 137.031H225.243ZM219.784 134.427H224.239H224.396C224.543 134.417 224.685 134.369 224.809 134.289V134.125C224.805 133.902 224.769 133.68 224.702 133.467C224.553 132.98 224.252 132.555 223.843 132.259C223.439 131.966 222.951 131.819 222.456 131.84C221.99 131.81 221.526 131.92 221.122 132.158C220.713 132.397 220.383 132.753 220.172 133.182C219.979 133.574 219.846 133.994 219.78 134.427H219.784Z" fill="#9999FF"/>
</g>
<mask id="mask6_414_198" style="mask-type:luminance" maskUnits="userSpaceOnUse" x="0" y="113" width="42" height="43">
<path d="M41.2893 113.954H0V155.597H41.2893V113.954Z" fill="white"/>
</mask>
<g mask="url(#mask6_414_198)">
<path d="M34.4355 113.954H6.85427C5.94659 113.962 5.04928 114.151 4.21359 114.511C3.3779 114.871 2.62019 115.394 1.98372 116.052C1.34726 116.709 0.844518 117.487 0.504191 118.342C0.163864 119.197 -0.00737913 120.111 0.000243748 121.033V148.451C-0.00737913 149.373 0.163864 150.287 0.504191 151.142C0.844518 151.996 1.34726 152.775 1.98372 153.432C2.62019 154.089 3.3779 154.613 4.21359 154.973C5.04928 155.333 5.94659 155.522 6.85427 155.53H34.4355C35.3432 155.522 36.2405 155.333 37.0762 154.973C37.9119 154.613 38.6696 154.089 39.3061 153.432C39.9425 152.775 40.4453 151.996 40.7856 151.142C41.1259 150.287 41.2972 149.373 41.2895 148.451V121.033C41.2972 120.111 41.1259 119.197 40.7856 118.342C40.4453 117.487 39.9425 116.709 39.3061 116.052C38.6696 115.394 37.9119 114.871 37.0762 114.511C36.2405 114.151 35.3432 113.962 34.4355 113.954Z" fill="#330000"/>
<path d="M20.0086 138.906H13.6088L12.3082 143.1C12.2925 143.176 12.2507 143.244 12.1902 143.292C12.1296 143.339 12.0543 143.364 11.9778 143.36H8.74901C8.56321 143.36 8.49715 143.255 8.55495 143.045L14.0918 126.569C14.1497 126.397 14.2033 126.2 14.2611 125.982C14.3318 125.6 14.3678 125.212 14.3685 124.824C14.3644 124.796 14.3644 124.768 14.3685 124.74C14.3773 124.715 14.3914 124.692 14.4098 124.673C14.4281 124.654 14.4508 124.64 14.4758 124.631C14.5017 124.625 14.5285 124.625 14.5543 124.631H18.9599C19.0878 124.631 19.1622 124.677 19.1828 124.774L25.4712 143.083C25.5249 143.272 25.4712 143.368 25.3019 143.368H21.7015C21.6399 143.377 21.5776 143.36 21.528 143.322C21.4761 143.285 21.4394 143.23 21.4248 143.167L20.0086 138.906ZM14.608 135.3H18.9846L18.9227 135.086L18.8195 134.75L18.7493 134.516L18.6378 134.142L18.3942 133.358L18.1795 132.662L17.6262 130.85C17.49 130.402 17.3578 129.949 17.2133 129.496L17.1101 129.127L16.9945 128.707L16.8128 128.032L16.7798 127.902H16.7509C16.616 128.59 16.4481 129.269 16.2471 129.94L15.8343 131.307L15.6072 132.062L15.3801 132.826L15.2562 133.245L15.1323 133.643L15.0126 134.033L14.8929 134.415L14.769 134.788C14.7318 134.91 14.6905 135.027 14.6493 135.149L14.608 135.3ZM29.2037 127.634C28.9212 127.646 28.6395 127.596 28.3779 127.487C28.1144 127.378 27.8766 127.214 27.6802 127.005C27.4843 126.785 27.3328 126.529 27.2342 126.25C27.1316 125.97 27.0853 125.672 27.098 125.374C27.0895 125.078 27.1401 124.784 27.2466 124.51C27.3613 124.243 27.5301 124.005 27.7421 123.809C28.1367 123.416 28.6672 123.194 29.2202 123.193H29.278C29.5672 123.177 29.8564 123.224 30.1267 123.329C30.397 123.435 30.6424 123.597 30.847 123.805C31.1148 124.148 31.293 124.553 31.3652 124.984C31.4374 125.415 31.4012 125.858 31.2599 126.271C31.1569 126.55 31.0012 126.807 30.8016 127.026C30.601 127.232 30.3606 127.393 30.0956 127.5C29.8337 127.608 29.5526 127.661 29.2698 127.655L29.2037 127.634ZM27.292 143.054V129.378C27.292 129.206 27.3664 129.123 27.515 129.123H30.9214C31.07 129.123 31.1443 129.206 31.1443 129.378V143.054C31.1443 143.242 31.07 143.339 30.9214 143.339H27.5439C27.51 143.342 27.4759 143.338 27.4439 143.326C27.4119 143.314 27.3828 143.296 27.3587 143.271C27.3347 143.247 27.3162 143.217 27.3047 143.185C27.2932 143.152 27.2888 143.118 27.292 143.083V143.054Z" fill="#FF9A00"/>
</g>
<mask id="mask7_414_198" style="mask-type:luminance" maskUnits="userSpaceOnUse" x="96" y="113" width="42" height="43">
<path d="M137.289 113.954H96V155.597H137.289V113.954Z" fill="white"/>
</mask>
<g mask="url(#mask7_414_198)">
<path d="M127.611 113.954H105.678C104.412 113.949 103.157 114.198 101.985 114.685C100.813 115.173 99.7474 115.891 98.8486 116.797C97.9498 117.703 97.2357 118.78 96.7469 119.967C96.2581 121.154 96.0043 122.426 96 123.713V145.838C96.0043 147.124 96.2581 148.397 96.7469 149.584C97.2357 150.771 97.9498 151.848 98.8486 152.754C99.7474 153.66 100.813 154.378 101.985 154.865C103.157 155.353 104.412 155.602 105.678 155.597H127.611C128.878 155.602 130.133 155.353 131.304 154.865C132.476 154.378 133.542 153.66 134.441 152.754C135.339 151.848 136.054 150.771 136.542 149.584C137.031 148.397 137.285 147.124 137.289 145.838V123.713C137.285 122.426 137.031 121.154 136.542 119.967C136.054 118.78 135.339 117.703 134.441 116.797C133.542 115.891 132.476 115.173 131.304 114.685C130.133 114.198 128.878 113.949 127.611 113.954Z" fill="#001E36"/>
<path d="M105.29 142.915V125.067C105.29 124.946 105.344 124.879 105.463 124.879C105.757 124.879 106.029 124.879 106.425 124.879C106.822 124.879 107.251 124.879 107.734 124.841C108.217 124.803 108.696 124.841 109.229 124.807C109.762 124.774 110.282 124.807 110.798 124.807C112.001 124.772 113.2 124.954 114.341 125.344C115.203 125.641 115.99 126.128 116.645 126.77C117.193 127.33 117.615 128.004 117.883 128.745C118.15 129.467 118.29 130.23 118.296 131.001C118.349 132.313 117.987 133.608 117.264 134.696C116.572 135.67 115.606 136.408 114.493 136.814C113.248 137.241 111.938 137.441 110.625 137.405C110.212 137.405 109.935 137.405 109.766 137.405C109.597 137.405 109.353 137.405 109.023 137.405V142.974C109.027 143.003 109.026 143.032 109.019 143.06C109.012 143.088 108.999 143.114 108.982 143.137C108.965 143.16 108.943 143.179 108.918 143.193C108.893 143.206 108.865 143.215 108.837 143.217H105.496C105.36 143.142 105.29 143.071 105.29 142.915ZM109.043 128.217V134.05C109.283 134.05 109.506 134.084 109.712 134.084H110.625C111.296 134.084 111.963 133.978 112.602 133.769C113.151 133.608 113.641 133.289 114.014 132.851C114.397 132.339 114.586 131.705 114.547 131.064C114.559 130.52 114.416 129.984 114.134 129.521C113.847 129.069 113.424 128.722 112.929 128.531C112.283 128.276 111.593 128.158 110.901 128.183C110.451 128.183 110.075 128.183 109.729 128.183C109.5 128.175 109.27 128.186 109.043 128.217ZM129.031 132.989C128.511 132.714 127.955 132.516 127.38 132.402C126.749 132.255 126.103 132.18 125.456 132.176C125.108 132.163 124.76 132.204 124.423 132.297C124.209 132.341 124.018 132.463 123.887 132.641C123.802 132.783 123.756 132.945 123.75 133.111C123.759 133.277 123.82 133.435 123.924 133.564C124.086 133.757 124.283 133.915 124.506 134.029C124.919 134.239 125.332 134.448 125.745 134.604C126.673 134.917 127.563 135.34 128.396 135.862C128.958 136.22 129.425 136.714 129.754 137.3C130.036 137.853 130.178 138.468 130.167 139.091C130.181 139.912 129.946 140.717 129.494 141.397C129.014 142.091 128.345 142.627 127.57 142.941C126.579 143.337 125.521 143.527 124.457 143.498C123.671 143.501 122.887 143.425 122.115 143.272C121.509 143.167 120.918 142.979 120.361 142.714C120.3 142.685 120.25 142.638 120.216 142.58C120.183 142.522 120.167 142.455 120.171 142.387V139.368C120.168 139.338 120.174 139.308 120.186 139.281C120.198 139.254 120.217 139.23 120.241 139.212C120.262 139.194 120.289 139.184 120.317 139.184C120.345 139.184 120.372 139.194 120.394 139.212C121.058 139.603 121.778 139.886 122.528 140.051C123.191 140.228 123.874 140.317 124.56 140.315C125.046 140.342 125.533 140.259 125.984 140.072C126.122 140.008 126.24 139.906 126.322 139.776C126.405 139.647 126.45 139.497 126.451 139.342C126.439 139.202 126.396 139.066 126.324 138.945C126.253 138.825 126.155 138.722 126.038 138.646C125.512 138.306 124.946 138.032 124.353 137.833C123.488 137.523 122.666 137.1 121.909 136.575C121.369 136.188 120.922 135.684 120.6 135.099C120.321 134.552 120.179 133.944 120.187 133.329C120.19 132.589 120.393 131.863 120.774 131.232C121.211 130.533 121.84 129.978 122.582 129.634C123.536 129.193 124.578 128.985 125.625 129.026C126.339 129.028 127.053 129.08 127.76 129.181C128.268 129.257 128.765 129.398 129.238 129.601C129.275 129.613 129.31 129.634 129.34 129.66C129.37 129.687 129.394 129.72 129.411 129.756C129.43 129.823 129.441 129.892 129.444 129.961V132.792C129.445 132.826 129.437 132.859 129.422 132.889C129.407 132.919 129.385 132.945 129.358 132.964C129.308 132.99 129.253 133.006 129.197 133.011C129.141 133.015 129.085 133.008 129.031 132.989Z" fill="#31A8FF"/>
</g>
<mask id="mask8_414_198" style="mask-type:luminance" maskUnits="userSpaceOnUse" x="96" y="220" width="42" height="42">
<path d="M137.634 220H96.3447V261.936H137.634V220Z" fill="white"/>
</mask>
<g mask="url(#mask8_414_198)">
<path d="M96.3447 227.41C96.3447 223.317 99.4249 220 103.228 220H130.751C134.554 220 137.634 223.317 137.634 227.41V254.526C137.634 258.619 134.554 261.936 130.751 261.936H103.228C99.4249 261.936 96.3447 258.619 96.3447 254.526V227.41Z" fill="#FF0066"/>
<path d="M110.395 233.504C110.864 233.497 111.319 233.35 111.705 233.081C112.091 232.812 112.391 232.433 112.565 231.992C112.74 231.551 112.782 231.067 112.687 230.602C112.592 230.136 112.363 229.71 112.03 229.376C111.696 229.042 111.273 228.815 110.814 228.725C110.354 228.635 109.878 228.684 109.446 228.868C109.014 229.051 108.646 229.36 108.386 229.756C108.127 230.152 107.988 230.617 107.988 231.092C107.988 231.412 108.051 231.729 108.174 232.023C108.294 232.318 108.472 232.585 108.698 232.807C108.922 233.032 109.187 233.209 109.479 233.327C109.769 233.449 110.081 233.508 110.395 233.504ZM105.399 246.399C105.262 246.993 105.19 247.6 105.185 248.211C105.185 250.333 106.316 251.742 108.727 251.742C110.722 251.742 112.344 250.538 113.509 248.592L112.794 251.494H116.758L119.025 242.268C119.595 239.928 120.676 238.716 122.353 238.716C123.666 238.716 124.479 239.555 124.479 240.909C124.484 241.348 124.424 241.785 124.302 242.205L123.154 246.445C122.989 247.03 122.906 247.636 122.906 248.244C122.906 250.257 124.075 251.733 126.519 251.733C128.608 251.733 130.272 250.37 131.193 247.095L129.616 246.504C128.839 248.697 128.166 249.095 127.634 249.095C127.101 249.095 126.808 248.735 126.808 248.018C126.823 247.64 126.883 247.265 126.985 246.902L128.117 242.767C128.373 241.916 128.505 241.032 128.509 240.142C128.509 237.051 126.668 235.437 124.434 235.437C122.345 235.437 120.222 237.349 119.161 239.366L119.937 235.747H113.897L113.046 238.934H115.883L114.136 246.021C112.765 249.116 110.251 249.167 109.933 249.091C109.417 248.974 109.087 248.773 109.087 248.085C109.099 247.528 109.182 246.976 109.334 246.441L112.006 235.718H105.263L104.413 238.905H107.212L105.399 246.399Z" fill="white"/>
</g>
<mask id="mask9_414_198" style="mask-type:luminance" maskUnits="userSpaceOnUse" x="0" y="220" width="42" height="42">
<path d="M41.2893 220H0V261.643H41.2893V220Z" fill="white"/>
</mask>
<g mask="url(#mask9_414_198)">
<path d="M31.6111 220H9.67821C8.41178 219.995 7.1568 220.244 5.98495 220.731C4.8131 221.219 3.74736 221.937 2.8486 222.843C1.94984 223.749 1.23567 224.826 0.7469 226.013C0.258129 227.2 0.00432954 228.472 0 229.759V251.884C0.00432954 253.17 0.258129 254.443 0.7469 255.63C1.23567 256.816 1.94984 257.894 2.8486 258.8C3.74736 259.706 4.8131 260.424 5.98495 260.911C7.1568 261.399 8.41178 261.648 9.67821 261.643H31.6111C32.8775 261.648 34.1325 261.399 35.3043 260.911C36.4762 260.424 37.5419 259.706 38.4407 258.8C39.3395 257.894 40.0536 256.816 40.5424 255.63C41.0312 254.443 41.285 253.17 41.2893 251.884V229.759C41.285 228.472 41.0312 227.2 40.5424 226.013C40.0536 224.826 39.3395 223.749 38.4407 222.843C37.5419 221.937 36.4762 221.219 35.3043 220.731C34.1325 220.244 32.8775 219.995 31.6111 220Z" fill="#00005B"/>
<path d="M8.70801 249.712V231.843C8.70801 231.721 8.76168 231.654 8.88142 231.654C9.17458 231.654 9.45122 231.654 9.84346 231.654C10.2357 231.654 10.6692 231.654 11.1523 231.616C11.6354 231.579 12.1144 231.616 12.6511 231.583C13.1879 231.549 13.6999 231.583 14.216 231.583C15.4188 231.547 16.6183 231.729 17.7586 232.12C18.6201 232.416 19.4067 232.901 20.0626 233.541C20.617 234.102 21.0464 234.777 21.3219 235.521C21.5801 236.244 21.7128 237.007 21.7141 237.777C21.767 239.089 21.4053 240.383 20.6819 241.471C19.9905 242.444 19.0264 243.182 17.9155 243.589C16.6688 244.016 15.3578 244.216 14.0426 244.18C13.6297 244.18 13.3531 244.18 13.1838 244.18C13.0145 244.18 12.7709 244.18 12.4447 244.18V249.75C12.4481 249.778 12.4459 249.807 12.4382 249.835C12.4305 249.863 12.4175 249.889 12.3998 249.911C12.3821 249.934 12.3602 249.953 12.3353 249.967C12.3104 249.981 12.283 249.99 12.2548 249.993H8.91445C8.7782 249.993 8.70801 249.921 8.70801 249.766V249.712ZM12.4612 235.034V240.867C12.7007 240.867 12.9236 240.901 13.1301 240.901H14.0426C14.714 240.902 15.3814 240.796 16.0203 240.586C16.569 240.426 17.0598 240.107 17.4324 239.668C17.8154 239.157 18.0044 238.523 17.9651 237.882C17.977 237.337 17.8336 236.801 17.5522 236.338C17.2659 235.887 16.8449 235.54 16.3507 235.349C15.7038 235.094 15.0126 234.975 14.3192 235.001C13.8733 235.001 13.4934 235.001 13.1507 235.001C12.9204 234.992 12.6897 235.003 12.4612 235.034ZM24.1915 236.062H27.2221C27.3033 236.063 27.3819 236.09 27.4465 236.14C27.5112 236.19 27.5584 236.259 27.5813 236.338C27.634 236.473 27.6687 236.614 27.6846 236.758C27.7176 236.934 27.7548 237.123 27.7713 237.294C27.7878 237.466 27.8043 237.714 27.8043 237.919C28.3223 237.312 28.9467 236.807 29.6458 236.431C30.4459 235.982 31.3455 235.748 32.2594 235.751C32.288 235.747 32.317 235.749 32.3449 235.756C32.3727 235.764 32.3988 235.777 32.4215 235.795C32.4443 235.813 32.4632 235.836 32.4772 235.861C32.4912 235.887 32.5 235.915 32.503 235.944V239.395C32.503 239.534 32.4163 239.588 32.2264 239.588C31.6024 239.566 30.9781 239.623 30.3684 239.76C29.8715 239.864 29.3871 240.021 28.9232 240.23C28.5913 240.381 28.2933 240.599 28.0479 240.872V249.712C28.0479 249.884 27.9777 249.955 27.8208 249.955H24.4351C24.4033 249.96 24.3708 249.959 24.3394 249.951C24.3081 249.944 24.2787 249.93 24.2528 249.91C24.227 249.89 24.2053 249.866 24.1891 249.837C24.1729 249.809 24.1625 249.778 24.1585 249.745V240.066C24.1585 239.647 24.1585 239.228 24.1585 238.766C24.1585 238.305 24.1585 237.865 24.1213 237.412C24.0841 236.959 24.0883 236.632 24.0552 236.233C24.0504 236.213 24.0497 236.192 24.0531 236.171C24.0566 236.151 24.0642 236.131 24.0753 236.113C24.0865 236.095 24.1011 236.08 24.1183 236.069C24.1354 236.057 24.1547 236.049 24.175 236.045C24.175 236.045 24.175 236.024 24.1915 236.045V236.062Z" fill="#9999FF"/>
</g>
<path d="M202.699 226.061L214.334 224.832L225.969 226.065L234.979 238.155L214.334 262.201L193.689 238.155L202.699 226.061Z" fill="#FDB300"/>
<path d="M202.051 238.155L214.334 262.21L193.689 238.155H202.051ZM226.618 238.155L214.334 262.21L234.979 238.155H226.618Z" fill="#EA6C00"/>
<path d="M202.05 238.155H226.617L214.334 262.21L202.05 238.155Z" fill="#FDAD00"/>
<path d="M214.334 224.832L202.699 226.061L202.05 238.155L214.334 224.832ZM214.334 224.832L225.969 226.061L226.617 238.155L214.334 224.832Z" fill="#FDD231"/>
<path d="M234.979 238.155L225.969 226.057L226.618 238.155H234.979ZM193.689 238.155L202.699 226.057L202.051 238.155H193.689Z" fill="#FDAD00"/>
<path d="M214.334 224.832L202.05 238.155H226.617L214.334 224.832Z" fill="#FEEEB7"/>
<rect opacity="0.55" x="386" y="12" width="42" height="40" rx="7" fill="#8F00FF" fill-opacity="0.15"/>
<rect opacity="0.55" x="386" y="114" width="42" height="40" rx="7" fill="#8F00FF" fill-opacity="0.15"/>
<rect opacity="0.55" x="386" y="216" width="42" height="40" rx="7" fill="#8F00FF" fill-opacity="0.15"/>
<rect opacity="0.37" x="473" y="12" width="42" height="40" rx="7" fill="#8F00FF" fill-opacity="0.15"/>
<rect opacity="0.37" x="473" y="114" width="42" height="40" rx="7" fill="#8F00FF" fill-opacity="0.15"/>
<rect opacity="0.55" x="428" y="315" width="42" height="40" rx="7" transform="rotate(90 428 315)" fill="#8F00FF" fill-opacity="0.15"/>
<rect opacity="0.37" x="473" y="216" width="42" height="40" rx="7" fill="#8F00FF" fill-opacity="0.15"/>
<rect opacity="0.55" x="235" y="315" width="42" height="40" rx="7" transform="rotate(90 235 315)" fill="#8F00FF" fill-opacity="0.15"/>
<rect opacity="0.55" x="330" y="315" width="42" height="40" rx="7" transform="rotate(90 330 315)" fill="#8F00FF" fill-opacity="0.15"/>
<rect opacity="0.37" x="515" y="315" width="42" height="40" rx="7" transform="rotate(90 515 315)" fill="#8F00FF" fill-opacity="0.15"/>
<rect opacity="0.55" x="136" y="315" width="42" height="40" rx="7" transform="rotate(90 136 315)" fill="#8F00FF" fill-opacity="0.15"/>
<rect opacity="0.55" x="40" y="315" width="42" height="40" rx="7" transform="rotate(90 40 315)" fill="#8F00FF" fill-opacity="0.15"/>
<rect opacity="0.22" x="428" y="403" width="42" height="40" rx="7" transform="rotate(90 428 403)" fill="#8F00FF" fill-opacity="0.15"/>
<rect opacity="0.06" x="428" y="491" width="42" height="40" rx="7" transform="rotate(90 428 491)" fill="#8F00FF" fill-opacity="0.15"/>
<rect opacity="0.22" x="235" y="403" width="42" height="40" rx="7" transform="rotate(90 235 403)" fill="#8F00FF" fill-opacity="0.15"/>
<rect opacity="0.06" x="235" y="491" width="42" height="40" rx="7" transform="rotate(90 235 491)" fill="#8F00FF" fill-opacity="0.15"/>
<rect opacity="0.22" x="330" y="403" width="42" height="40" rx="7" transform="rotate(90 330 403)" fill="#8F00FF" fill-opacity="0.15"/>
<rect opacity="0.06" x="330" y="491" width="42" height="40" rx="7" transform="rotate(90 330 491)" fill="#8F00FF" fill-opacity="0.15"/>
<rect opacity="0.22" x="515" y="403" width="42" height="40" rx="7" transform="rotate(90 515 403)" fill="#8F00FF" fill-opacity="0.15"/>
<rect opacity="0.06" x="515" y="491" width="42" height="40" rx="7" transform="rotate(90 515 491)" fill="#8F00FF" fill-opacity="0.15"/>
<rect opacity="0.22" x="136" y="403" width="42" height="40" rx="7" transform="rotate(90 136 403)" fill="#8F00FF" fill-opacity="0.15"/>
<rect opacity="0.06" x="136" y="491" width="42" height="40" rx="7" transform="rotate(90 136 491)" fill="#8F00FF" fill-opacity="0.15"/>
<rect opacity="0.22" x="40" y="403" width="42" height="40" rx="7" transform="rotate(90 40 403)" fill="#8F00FF" fill-opacity="0.15"/>
<rect opacity="0.06" x="40" y="491" width="42" height="40" rx="7" transform="rotate(90 40 491)" fill="#8F00FF" fill-opacity="0.15"/>
</svg>
