<svg width="275" height="329" viewBox="0 0 275 329" fill="none" xmlns="http://www.w3.org/2000/svg">
<mask id="mask0_454_103" style="mask-type:luminance" maskUnits="userSpaceOnUse" x="156" y="1" width="42" height="40">
<path d="M197.343 1.16748H156.054V40.6168H197.343V1.16748Z" fill="white"/>
</mask>
<g mask="url(#mask0_454_103)">
<path d="M190.489 1.16748H162.908C159.121 1.16748 156.054 4.1701 156.054 7.87726V33.8525C156.054 37.5555 159.121 40.5623 162.908 40.5623H190.489C194.271 40.5623 197.343 37.5596 197.343 33.8525V7.87726C197.343 4.1701 194.271 1.16748 190.489 1.16748Z" fill="#49021F"/>
<path d="M171.046 11.4753V28.7362C171.046 28.9165 170.963 29.0088 170.798 29.0088H167.446C167.297 29.0088 167.223 28.9165 167.227 28.7362V11.4753C167.227 11.3285 167.309 11.2572 167.474 11.2572H170.827C170.854 11.2511 170.883 11.2511 170.91 11.2572C170.937 11.2661 170.962 11.2803 170.984 11.2992C171.005 11.3178 171.022 11.3406 171.034 11.3663C171.039 11.3925 171.039 11.4197 171.034 11.446L171.046 11.4753ZM181.141 29.2772H180.964C179.685 29.3009 178.417 29.0419 177.248 28.5182C176.177 28.0374 175.275 27.2393 174.659 26.2284C174.013 25.1007 173.687 23.8131 173.717 22.5087V22.3955C173.707 21.1465 174.032 19.9183 174.659 18.8435C175.298 17.7639 176.214 16.8811 177.31 16.2896L177.4 16.2435C178.748 15.5586 180.242 15.2229 181.748 15.2663H182.161H182.285L182.557 15.2915H182.632V9.98239C182.632 9.85658 182.69 9.79368 182.797 9.79368H186.29C186.312 9.78948 186.334 9.78948 186.356 9.79368C186.378 9.80221 186.397 9.81505 186.414 9.83142C186.431 9.84501 186.443 9.86434 186.447 9.88594C186.453 9.90786 186.453 9.93111 186.447 9.95303V25.9684C186.447 26.3039 186.447 26.6352 186.488 26.9707L186.513 27.3188L186.538 27.6459V27.9478C186.538 28.0037 186.524 28.0587 186.496 28.1072C186.467 28.1573 186.422 28.1957 186.368 28.2162C185.467 28.5855 184.53 28.8582 183.573 29.0298C182.755 29.1778 181.927 29.2591 181.096 29.273L181.141 29.2772ZM182.652 25.9223V18.5164C182.502 18.4756 182.349 18.4475 182.194 18.4325C182.008 18.4325 181.818 18.4074 181.628 18.4074C180.959 18.396 180.295 18.5394 179.688 18.8267C179.105 19.1118 178.604 19.5452 178.234 20.0848C177.83 20.7198 177.632 21.468 177.669 22.2235C177.653 22.8189 177.753 23.4116 177.962 23.9681C178.134 24.4171 178.398 24.8233 178.738 25.1591C179.07 25.4724 179.469 25.7047 179.903 25.8384C180.364 25.9829 180.844 26.055 181.327 26.0523C181.589 26.0523 181.828 26.0439 182.045 26.0271C182.223 26.0149 182.398 25.9854 182.57 25.9391L182.652 25.9223Z" fill="#FF3366"/>
</g>
<mask id="mask1_454_103" style="mask-type:luminance" maskUnits="userSpaceOnUse" x="78" y="1" width="43" height="40">
<path d="M120.251 1.23047H78.9614V40.5582H120.251V1.23047Z" fill="white"/>
</mask>
<g mask="url(#mask1_454_103)">
<path d="M113.397 1.23047H85.8155C82.0292 1.23047 78.9614 4.22471 78.9614 7.91509V33.8106C78.9614 37.5052 82.0292 40.4953 85.8155 40.4953H113.397C117.179 40.4953 120.251 37.5052 120.251 33.8106V7.91509C120.251 4.22471 117.179 1.23047 113.397 1.23047Z" fill="#470137"/>
<path d="M100.667 11.5551L95.5019 19.8501L101.014 28.6567C101.048 28.7192 101.059 28.7924 101.043 28.8622C101.043 28.8915 101.014 28.8957 100.985 28.8999H100.915H100.849H96.7942C96.5795 28.8999 96.4267 28.8664 96.3318 28.7112C95.9643 28.0151 95.5968 27.3147 95.2252 26.6144C94.8908 25.9937 94.5522 25.3773 94.2012 24.765L94.0485 24.4924C93.6356 23.7669 93.2227 23.0372 92.8098 22.3034H92.7809C92.4093 23.033 92.0253 23.7502 91.6331 24.4673C91.2408 25.1844 90.8444 25.9015 90.4563 26.6144C90.0682 27.3273 89.6718 28.0318 89.2672 28.7364C89.2381 28.797 89.1909 28.8467 89.1323 28.8783C89.0737 28.91 89.0067 28.9219 88.941 28.9125H85.0681H85.0102C84.9813 28.9125 84.9648 28.9125 84.9566 28.8622C84.9468 28.7962 84.9615 28.729 84.9979 28.6735L90.3448 20.1101L85.1548 11.53C85.1011 11.4587 85.0887 11.4 85.1259 11.3538C85.1461 11.331 85.1717 11.3138 85.2002 11.3035C85.2315 11.2972 85.2638 11.2972 85.2951 11.3035H89.197C89.283 11.2983 89.369 11.3126 89.4488 11.3455C89.5146 11.3803 89.5712 11.4307 89.614 11.4922C89.9498 12.2135 90.3187 12.9334 90.7206 13.6519C91.1335 14.369 91.5464 15.082 91.9592 15.7865C92.3721 16.491 92.7561 17.1955 93.1071 17.921H93.136C93.4993 17.1955 93.8709 16.4742 94.259 15.7613C94.6472 15.0484 95.0229 14.3523 95.4193 13.6394C95.8157 12.9264 96.1955 12.2303 96.5713 11.5426C96.5913 11.4743 96.63 11.4133 96.6827 11.3664C96.7505 11.3324 96.8262 11.3178 96.9016 11.3245H100.531C100.563 11.3139 100.598 11.3139 100.63 11.3245C100.662 11.3367 100.689 11.3587 100.708 11.3874C100.719 11.4187 100.719 11.4525 100.708 11.4838C100.705 11.5179 100.688 11.5493 100.663 11.5719L100.667 11.5551ZM108.805 29.2522H108.615C107.338 29.2752 106.07 29.0177 104.899 28.4973C103.83 28.0168 102.928 27.2204 102.31 26.2118C101.664 25.0902 101.338 23.808 101.369 22.5088V22.3914C101.358 21.1464 101.684 19.9222 102.31 18.852C102.949 17.7751 103.864 16.8951 104.957 16.3065L105.052 16.2562C106.401 15.5747 107.894 15.2406 109.4 15.2833H109.656H109.763H109.941H110.139H110.288V10.0161C110.288 9.89027 110.341 9.82737 110.453 9.82737H113.946C113.968 9.82317 113.99 9.82317 114.012 9.82737C114.033 9.83591 114.053 9.84874 114.07 9.86511C114.087 9.8787 114.098 9.89803 114.103 9.91963C114.109 9.94155 114.109 9.9648 114.103 9.98673V25.9518C114.103 26.2202 114.103 26.5096 114.136 26.8199L114.185 27.5202L114.214 27.9396C114.215 27.9969 114.201 28.0534 114.173 28.1031C114.141 28.1511 114.097 28.189 114.045 28.2122C113.15 28.5694 112.222 28.8335 111.274 29.0006C110.459 29.1495 109.633 29.2337 108.805 29.2522ZM110.304 25.8973V18.5165C110.154 18.4757 110.001 18.4477 109.846 18.4327C109.66 18.4327 109.47 18.4075 109.28 18.4075C108.61 18.3962 107.947 18.5396 107.34 18.8269C106.757 19.1126 106.256 19.5458 105.886 20.0849C105.497 20.6929 105.3 21.4067 105.32 22.1314V22.2195C105.304 22.8091 105.403 23.3961 105.609 23.9473C105.779 24.3972 106.044 24.8038 106.386 25.1382C106.718 25.4503 107.116 25.6812 107.55 25.8134C108.011 25.9593 108.492 26.0328 108.975 26.0315C109.235 26.0315 109.474 26.0315 109.693 26.0021C109.87 25.9892 110.045 25.9611 110.217 25.9183L110.304 25.8973Z" fill="#FF61F6"/>
</g>
<path d="M14.6487 41.7915C16.4734 41.7971 18.2257 41.0665 19.5202 39.7603C20.8148 38.4541 21.5457 36.6793 21.5522 34.8259V27.8604H14.6487C12.8298 27.8604 11.0854 28.5942 9.79923 29.9005C8.51308 31.2068 7.79053 32.9786 7.79053 34.8259C7.79053 36.6733 8.51308 38.4451 9.79923 39.7514C11.0854 41.0577 12.8298 41.7915 14.6487 41.7915Z" fill="#0ACF83"/>
<path d="M7.74097 20.8948C7.74421 19.9768 7.92546 19.0684 8.27437 18.2215C8.62327 17.3746 9.13299 16.6058 9.77443 15.959C10.4159 15.3122 11.1765 14.8 12.0128 14.4517C12.8491 14.1035 13.7448 13.9259 14.6487 13.9292H21.5522V27.8604H14.6487C13.7448 27.8637 12.8491 27.6862 12.0128 27.3379C11.1765 26.9897 10.4159 26.4775 9.77443 25.8307C9.13299 25.1839 8.62327 24.4151 8.27437 23.5682C7.92546 22.7213 7.74421 21.8129 7.74097 20.8948Z" fill="#A259FF"/>
<path d="M7.74097 6.96339C7.74862 5.11006 8.48056 3.33565 9.77589 2.03025C11.0712 0.724856 12.8239 -0.00468834 14.6487 0.00199869H21.5522V13.929H14.6487C13.7448 13.9323 12.8491 13.7548 12.0128 13.4065C11.1765 13.0582 10.4159 12.5461 9.77443 11.8992C9.13299 11.2524 8.62327 10.4836 8.27437 9.63673C7.92546 8.78984 7.74421 7.88143 7.74097 6.96339Z" fill="#F24E1E"/>
<path d="M21.5522 0.00209693H28.4599C29.3745 -0.0206988 30.2842 0.142561 31.1357 0.482262C31.9871 0.821964 32.7631 1.33124 33.4178 1.98012C34.0725 2.62899 34.5928 3.40435 34.9481 4.26055C35.3033 5.11674 35.4864 6.03647 35.4864 6.96559C35.4864 7.89471 35.3033 8.81444 34.9481 9.67063C34.5928 10.5268 34.0725 11.3022 33.4178 11.9511C32.7631 12.5999 31.9871 13.1092 31.1357 13.4489C30.2842 13.7886 29.3745 13.9519 28.4599 13.9291H21.5522V0.00209693Z" fill="#FF7262"/>
<path d="M35.3636 20.8948C35.3734 22.2847 34.9765 23.6463 34.2233 24.8067C33.4701 25.9672 32.3945 26.8742 31.1329 27.4129C29.8713 27.9515 28.4807 28.0974 27.1373 27.832C25.794 27.5667 24.5586 26.9021 23.5877 25.9225C22.6169 24.9429 21.9543 23.6925 21.6842 22.3299C21.4141 20.9673 21.5486 19.554 22.0706 18.2691C22.5925 16.9843 23.4785 15.8858 24.6161 15.1132C25.7536 14.3405 27.0915 13.9284 28.46 13.9292C30.2847 13.9237 32.037 14.6543 33.3316 15.9605C34.6261 17.2666 35.357 19.0415 35.3636 20.8948Z" fill="#1ABCFE"/>
<mask id="mask2_454_103" style="mask-type:luminance" maskUnits="userSpaceOnUse" x="235" y="137" width="39" height="60">
<path d="M274 137.949H235.289V196.512H274V137.949Z" fill="white"/>
</mask>
<g mask="url(#mask2_454_103)">
<path d="M254.621 196.362L238.87 191.672L235.359 149.429H273.934L270.411 191.664L254.621 196.362Z" fill="#264DE4"/>
<path d="M267.411 188.974L270.415 152.881H254.645V192.772L267.411 188.974Z" fill="#2965F1"/>
<path d="M243.407 168.549L243.84 173.731H254.644V168.549H243.407ZM242.54 158.079L242.981 163.261H254.648V158.079H242.54ZM254.648 182.023L249.271 180.451L248.927 176.318H244.053L244.731 184.453L254.625 187.398L254.648 182.023Z" fill="#EBEBEB"/>
<path d="M244.437 137.949H250.282V140.571H246.879V143.198H250.282V145.82H244.437V137.949ZM251.455 137.949H257.304V140.229H253.901V140.685H257.304V145.934H251.443V143.532H254.846V143.076H251.443L251.455 137.949ZM258.473 137.949H264.322V140.229H260.92V140.685H264.322V145.934H258.473V143.532H261.895V143.076H258.489V137.949H258.473Z" fill="black"/>
<path d="M265.855 168.549L266.726 158.079H254.629V163.261H261.434L260.993 168.565H254.629V173.747H260.575L260.014 180.466L254.629 182.039V187.429L264.531 184.484L264.601 183.608L265.739 169.969L265.855 168.549Z" fill="white"/>
</g>
<mask id="mask3_454_103" style="mask-type:luminance" maskUnits="userSpaceOnUse" x="235" y="68" width="39" height="55">
<path d="M274 68.2036H235.289V122.261H274V68.2036Z" fill="white"/>
</mask>
<g mask="url(#mask3_454_103)">
<path d="M273.934 78.7998L270.412 117.787L254.614 122.112L238.862 117.787L235.351 78.792L273.934 78.7998Z" fill="#E44D26"/>
<path d="M254.645 118.809L267.419 115.306L270.412 81.9883H254.645V118.809Z" fill="#F16529"/>
<path d="M247.812 91.5544H254.645V86.7695H242.54L242.656 88.0552L243.845 101.234H254.649V96.4494H248.261L247.812 91.5544ZM248.904 103.625H244.054L244.731 111.134L254.626 113.855H254.645V108.885H254.626L249.245 107.446L248.904 103.625Z" fill="#EBEBEB"/>
<path d="M238.948 68.2036H241.402V70.6059H243.647V68.2036H246.101V75.4655H243.647V73.0317H241.402V75.4655H238.948V68.2036ZM249.33 70.6137H247.185V68.2036H253.96V70.6137H251.799V75.4655H249.345V70.6137H249.33ZM255.02 68.2036H257.579L259.154 70.7592L260.726 68.2036H263.285V75.4655H260.842V71.864L259.154 74.4472H259.112L257.42 71.864V75.4655H255.02V68.2036ZM264.508 68.2036H266.962V73.0711H270.412V75.4655H264.508V68.2036Z" fill="black"/>
<path d="M254.629 101.234H260.575L260.014 107.434L254.629 108.885V113.863L264.531 111.146L264.601 110.336L265.739 97.7543L265.855 96.4687H254.629V101.234ZM254.629 91.5422H266.293L266.389 90.465L266.61 88.043L266.726 86.7573H254.629V91.5422Z" fill="white"/>
</g>
<mask id="mask4_454_103" style="mask-type:luminance" maskUnits="userSpaceOnUse" x="233" y="0" width="42" height="42">
<path d="M274.289 0H233V41.6426H274.289V0Z" fill="white"/>
</mask>
<g mask="url(#mask4_454_103)">
<path d="M264.615 5.76506e-05H242.678C241.412 -0.0043556 240.156 0.244654 238.985 0.73289C237.813 1.22113 236.747 1.93904 235.848 2.84559C234.95 3.75215 234.236 4.82959 233.747 6.01645C233.258 7.2033 233.004 8.47633 233 9.7628V31.8841C233.004 33.1706 233.258 34.4436 233.747 35.6304C234.236 36.8173 234.95 37.8948 235.848 38.8013C236.747 39.7079 237.813 40.4257 238.985 40.914C240.156 41.4022 241.412 41.6512 242.678 41.6468H264.615C265.882 41.6512 267.137 41.4022 268.308 40.9139C269.48 40.4256 270.545 39.7077 271.444 38.8011C272.342 37.8944 273.056 36.8169 273.544 35.6301C274.032 34.4433 274.286 33.1704 274.289 31.8841V9.7628C274.286 8.47653 274.032 7.20361 273.544 6.01678C273.056 4.82995 272.342 3.75246 271.444 2.84585C270.545 1.93924 269.48 1.22128 268.308 0.732993C267.137 0.244705 265.882 -0.00435505 264.615 5.76506e-05Z" fill="#F7DF1E"/>
<path d="M243.859 34.8029L247.018 32.8738C247.629 33.9641 248.182 34.8867 249.495 34.8867C250.808 34.8867 251.559 34.3835 251.559 32.4251V19.1188H255.437V32.4796C255.437 36.5348 253.083 38.38 249.656 38.38C246.555 38.38 244.751 36.7571 243.838 34.8029M257.559 34.3835L260.717 32.5383C261.543 33.9054 262.629 34.9119 264.541 34.9119C266.151 34.9119 267.175 34.1025 267.175 32.9828C267.175 31.6451 266.122 31.167 264.347 30.387L263.376 29.9676C260.577 28.7641 258.723 27.2544 258.723 24.0672C258.723 21.1317 260.94 18.8965 264.405 18.8965C266.882 18.8965 268.645 19.7646 269.921 22.0291L266.898 23.9833C266.234 22.784 265.511 22.3059 264.421 22.3059C263.331 22.3059 262.563 23.0356 262.563 23.9833C262.563 25.1575 263.286 25.6314 264.945 26.3611L265.916 26.7805C269.219 28.2063 271.073 29.6573 271.073 32.9283C271.073 36.451 268.327 38.38 264.64 38.38C261.044 38.38 258.715 36.6438 257.579 34.3835H257.559Z" fill="black"/>
</g>
<mask id="mask5_454_103" style="mask-type:luminance" maskUnits="userSpaceOnUse" x="156" y="74" width="42" height="42">
<path d="M197.289 74.1611H156V115.804H197.289V74.1611Z" fill="white"/>
</mask>
<g mask="url(#mask5_454_103)">
<path d="M190.436 74.1611H162.854C161.947 74.1688 161.049 74.358 160.214 74.7179C159.378 75.0778 158.62 75.6014 157.984 76.2587C157.347 76.9161 156.845 77.6943 156.504 78.549C156.164 79.4036 155.993 80.318 156 81.24V108.658C155.993 109.58 156.164 110.494 156.504 111.349C156.845 112.203 157.347 112.982 157.984 113.639C158.62 114.296 159.378 114.82 160.214 115.18C161.049 115.54 161.947 115.729 162.854 115.737H190.436C191.343 115.729 192.24 115.54 193.076 115.18C193.912 114.82 194.67 114.296 195.306 113.639C195.943 112.982 196.445 112.203 196.786 111.349C197.126 110.494 197.297 109.58 197.29 108.658V81.24C197.297 80.318 197.126 79.4036 196.786 78.549C196.445 77.6943 195.943 76.9161 195.306 76.2587C194.67 75.6014 193.912 75.0778 193.076 74.7179C192.24 74.358 191.343 74.1688 190.436 74.1611Z" fill="#00005B"/>
<path d="M172.594 99.0335H166.19L164.885 103.227C164.871 103.299 164.833 103.365 164.778 103.412C164.722 103.459 164.652 103.486 164.58 103.487H161.314C161.128 103.487 161.066 103.382 161.12 103.173L166.661 86.763L166.715 86.5911V86.5324L166.752 86.4066C166.752 86.3437 166.789 86.2766 166.805 86.2011C166.88 85.8199 166.917 85.4322 166.917 85.0436C166.911 85.0174 166.911 84.9902 166.917 84.964C166.925 84.9372 166.939 84.9128 166.958 84.8927C166.977 84.874 167 84.8597 167.024 84.8507C167.05 84.8466 167.077 84.8466 167.103 84.8507H171.508C171.636 84.8507 171.711 84.9011 171.727 84.9975L178.015 103.206C178.069 103.399 178.015 103.496 177.85 103.496H174.25C174.187 103.499 174.125 103.483 174.072 103.449C174.022 103.412 173.986 103.357 173.973 103.294L172.594 99.0335ZM167.185 95.5067H171.562L171.5 95.2928L171.401 94.9573L171.252 94.4751L170.972 93.5651L170.703 92.6886L170.204 91.0573C170.067 90.6086 169.935 90.1556 169.791 89.7027L169.65 89.1869L169.497 88.6208L169.357 88.0966H169.332C169.192 88.7843 169.023 89.4637 168.824 90.1347L168.639 90.7553L168.189 92.2525L167.957 93.0199C167.916 93.1583 167.879 93.2925 167.838 93.4392L167.714 93.8376L167.59 94.2276L167.47 94.6093L167.35 94.9825C167.305 95.1502 167.247 95.339 167.185 95.5067ZM188.243 97.4064H182.78C182.847 97.9635 183.027 98.5005 183.309 98.9832C183.612 99.4542 184.042 99.8269 184.547 100.057C185.24 100.367 185.991 100.518 186.748 100.501C187.349 100.489 187.947 100.421 188.536 100.3C189.063 100.223 189.578 100.082 190.072 99.8806C190.163 99.8051 190.208 99.8513 190.208 100.023V102.741C190.215 102.815 190.201 102.889 190.167 102.955C190.137 103.008 190.094 103.052 190.043 103.085C189.497 103.335 188.921 103.512 188.33 103.613C187.525 103.768 186.708 103.839 185.889 103.827C184.79 103.859 183.696 103.658 182.677 103.236L182.594 103.198C181.756 102.817 181.017 102.242 180.435 101.52C179.89 100.831 179.484 100.038 179.242 99.1887C179.003 98.3462 178.882 97.4738 178.883 96.597C178.875 95.6416 179.014 94.6907 179.295 93.7789C179.571 92.8948 180.008 92.0711 180.584 91.3508C181.145 90.6473 181.849 90.0751 182.648 89.6734C183.556 89.262 184.545 89.0711 185.538 89.1156C186.458 89.0937 187.37 89.2799 188.21 89.6608C188.919 89.9738 189.541 90.4591 190.022 91.074C190.477 91.6815 190.824 92.3638 191.051 93.0912C191.269 93.7953 191.381 94.5293 191.381 95.2677C191.381 95.687 191.381 96.0686 191.34 96.4125L191.315 96.7061L191.29 96.9829V97.1254V97.1548C191.284 97.218 191.255 97.2766 191.207 97.3183C191.162 97.3595 191.103 97.382 191.042 97.3812H190.799H190.625H190.472H190.344H190.208H190.064H189.907H189.494C189.312 97.3846 189.13 97.3776 188.949 97.3603H188.668C188.528 97.4358 188.383 97.4064 188.239 97.4064H188.243ZM182.784 94.8022H187.239H187.396C187.543 94.792 187.685 94.7445 187.809 94.6638V94.5002C187.805 94.2766 187.769 94.0548 187.702 93.8418C187.554 93.3545 187.252 92.9302 186.843 92.6341C186.439 92.3415 185.951 92.1939 185.456 92.2147C184.99 92.1845 184.526 92.2954 184.122 92.5334C183.714 92.7725 183.383 93.1284 183.173 93.5567C182.979 93.9487 182.847 94.3689 182.78 94.8022H182.784Z" fill="#9999FF"/>
</g>
<mask id="mask6_454_103" style="mask-type:luminance" maskUnits="userSpaceOnUse" x="0" y="74" width="43" height="42">
<path d="M42.197 74.1611H0.907715V115.804H42.197V74.1611Z" fill="white"/>
</mask>
<g mask="url(#mask6_454_103)">
<path d="M35.3432 74.1611H7.76198C6.8543 74.1688 5.95699 74.358 5.1213 74.7179C4.28561 75.0778 3.5279 75.6014 2.89144 76.2587C2.25498 76.9161 1.75223 77.6943 1.41191 78.549C1.07158 79.4036 0.900336 80.318 0.907959 81.24V108.658C0.900336 109.58 1.07158 110.494 1.41191 111.349C1.75223 112.203 2.25498 112.982 2.89144 113.639C3.5279 114.296 4.28561 114.82 5.1213 115.18C5.95699 115.54 6.8543 115.729 7.76198 115.737H35.3432C36.2509 115.729 37.1482 115.54 37.9839 115.18C38.8196 114.82 39.5773 114.296 40.2138 113.639C40.8502 112.982 41.353 112.203 41.6933 111.349C42.0336 110.494 42.2049 109.58 42.1972 108.658V81.24C42.2049 80.318 42.0336 79.4036 41.6933 78.549C41.353 77.6943 40.8502 76.9161 40.2138 76.2587C39.5773 75.6014 38.8196 75.0778 37.9839 74.7179C37.1482 74.358 36.2509 74.1688 35.3432 74.1611Z" fill="#330000"/>
<path d="M20.9166 99.1133H14.5167L13.2161 103.307C13.2005 103.383 13.1586 103.451 13.0981 103.499C13.0376 103.546 12.9623 103.571 12.8858 103.567H9.65697C9.47117 103.567 9.40511 103.462 9.46291 103.252L14.9998 86.7757C15.0576 86.6038 15.1113 86.4067 15.1691 86.1886C15.2398 85.807 15.2757 85.4195 15.2764 85.0312C15.2724 85.0034 15.2724 84.9751 15.2764 84.9473C15.2853 84.9222 15.2994 84.8993 15.3177 84.8802C15.336 84.8609 15.3587 84.8465 15.3838 84.8383C15.4096 84.8323 15.4364 84.8323 15.4622 84.8383H19.8678C19.9958 84.8383 20.0701 84.8844 20.0908 84.9808L26.3791 103.29C26.4328 103.479 26.3791 103.575 26.2098 103.575H22.6094C22.5479 103.584 22.4856 103.567 22.436 103.529C22.3841 103.492 22.3474 103.437 22.3328 103.374L20.9166 99.1133ZM15.5159 95.5068H19.8926L19.8307 95.2929L19.7274 94.9574L19.6572 94.7226L19.5458 94.3494L19.3022 93.5652L19.0874 92.869L18.5342 91.0574C18.3979 90.6087 18.2658 90.1558 18.1213 89.7029L18.0181 89.3338L17.9024 88.9145L17.7208 88.2393L17.6877 88.1093H17.6588C17.524 88.797 17.356 89.4764 17.1551 90.1474L16.7422 91.5145L16.5151 92.2693L16.288 93.0326L16.1642 93.4519L16.0403 93.8503L15.9206 94.2403L15.8008 94.622L15.677 94.9952C15.6398 95.1168 15.5985 95.2342 15.5572 95.3558L15.5159 95.5068ZM30.1117 87.8409C29.8292 87.8534 29.5474 87.8033 29.2859 87.6941C29.0224 87.5852 28.7846 87.4208 28.5881 87.2118C28.3923 86.9923 28.2408 86.7358 28.1422 86.457C28.0396 86.177 27.9932 85.879 28.0059 85.5805C27.9975 85.2853 28.0481 84.9915 28.1546 84.7167C28.2692 84.4503 28.4381 84.2116 28.65 84.0163C29.0446 83.6227 29.5751 83.4015 30.1282 83.3999H30.186C30.4752 83.3844 30.7643 83.431 31.0346 83.5365C31.3049 83.642 31.5504 83.804 31.755 84.0121C32.0227 84.3545 32.201 84.7601 32.2731 85.1912C32.3453 85.6223 32.3091 86.0649 32.1679 86.478C32.0648 86.7574 31.9092 87.0138 31.7096 87.2328C31.509 87.4386 31.2686 87.5999 31.0035 87.7067C30.7416 87.8153 30.4606 87.8682 30.1777 87.8619L30.1117 87.8409ZM28.2 103.261V89.5854C28.2 89.4135 28.2743 89.3296 28.423 89.3296H31.8293C31.978 89.3296 32.0523 89.4135 32.0523 89.5854V103.261C32.0523 103.45 31.978 103.546 31.8293 103.546H28.4519C28.418 103.549 28.3838 103.545 28.3518 103.533C28.3198 103.521 28.2908 103.503 28.2667 103.478C28.2426 103.454 28.2242 103.424 28.2127 103.392C28.2011 103.359 28.1968 103.325 28.2 103.29V103.261Z" fill="#FF9A00"/>
</g>
<mask id="mask7_454_103" style="mask-type:luminance" maskUnits="userSpaceOnUse" x="78" y="74" width="43" height="42">
<path d="M120.197 74.1611H78.9077V115.804H120.197V74.1611Z" fill="white"/>
</mask>
<g mask="url(#mask7_454_103)">
<path d="M110.519 74.1612H88.5859C87.3195 74.1562 86.0645 74.4048 84.8927 74.8925C83.7208 75.3803 82.6551 76.0978 81.7563 77.004C80.8575 77.9102 80.1434 78.9874 79.6546 80.174C79.1659 81.3607 78.912 82.6335 78.9077 83.9197V106.045C78.912 107.332 79.1659 108.604 79.6546 109.791C80.1434 110.978 80.8575 112.055 81.7563 112.961C82.6551 113.867 83.7208 114.585 84.8927 115.072C86.0645 115.56 87.3195 115.809 88.5859 115.804H110.519C111.785 115.809 113.04 115.56 114.212 115.072C115.384 114.585 116.45 113.867 117.348 112.961C118.247 112.055 118.961 110.978 119.45 109.791C119.939 108.604 120.193 107.332 120.197 106.045V83.9197C120.193 82.6335 119.939 81.3607 119.45 80.174C118.961 78.9874 118.247 77.9102 117.348 77.004C116.45 76.0978 115.384 75.3803 114.212 74.8925C113.04 74.4048 111.785 74.1562 110.519 74.1612Z" fill="#001E36"/>
<path d="M88.1978 103.122V85.2744C88.1978 85.1528 88.2514 85.0857 88.3712 85.0857C88.6643 85.0857 88.9368 85.0857 89.3332 85.0857C89.7296 85.0857 90.159 85.0857 90.6421 85.048C91.1252 85.0102 91.6041 85.048 92.1368 85.0144C92.6694 84.9809 93.1896 85.0144 93.7057 85.0144C94.9086 84.9791 96.1081 85.1608 97.2484 85.5512C98.1106 85.8477 98.8975 86.3347 99.5523 86.977C100.1 87.5373 100.523 88.211 100.791 88.9522C101.058 89.6738 101.198 90.4375 101.204 91.2084C101.257 92.5202 100.895 93.8149 100.172 94.903C99.4797 95.8766 98.5139 96.6149 97.4011 97.0207C96.1559 97.4479 94.8462 97.6481 93.5323 97.612C93.1194 97.612 92.8428 97.612 92.6735 97.612C92.5042 97.612 92.2606 97.612 91.9303 97.612V103.181C91.935 103.21 91.9338 103.239 91.9268 103.267C91.9198 103.295 91.9072 103.321 91.8898 103.344C91.8723 103.367 91.8504 103.386 91.8254 103.4C91.8004 103.413 91.7729 103.422 91.7445 103.424H88.4042C88.2679 103.349 88.1978 103.278 88.1978 103.122ZM91.9509 88.4238V94.2571C92.1904 94.2571 92.4134 94.2907 92.6198 94.2907H93.5323C94.2037 94.2914 94.871 94.1853 95.5101 93.9762C96.0583 93.8151 96.5488 93.4961 96.9222 93.0578C97.3051 92.5465 97.4942 91.9124 97.4548 91.2713C97.4668 90.7272 97.3234 90.1912 97.0419 89.728C96.7546 89.2756 96.332 88.9288 95.8363 88.7384C95.1909 88.4832 94.501 88.3647 93.809 88.3903C93.3589 88.3903 92.9832 88.3903 92.6364 88.3903C92.4074 88.3818 92.1781 88.393 91.9509 88.4238ZM111.939 93.1962C111.419 92.9212 110.863 92.7235 110.288 92.609C109.656 92.4625 109.011 92.3865 108.363 92.3826C108.015 92.37 107.667 92.411 107.331 92.5042C107.117 92.5477 106.926 92.6702 106.794 92.8481C106.71 92.9902 106.663 93.1519 106.658 93.3178C106.667 93.4837 106.728 93.6425 106.832 93.7707C106.993 93.9636 107.191 94.1219 107.414 94.2362C107.827 94.4459 108.24 94.6555 108.652 94.8107C109.581 95.1244 110.471 95.5466 111.303 96.0688C111.866 96.4268 112.333 96.921 112.662 97.5072C112.944 98.0598 113.086 98.6754 113.075 99.2979C113.089 100.119 112.854 100.924 112.402 101.604C111.921 102.298 111.253 102.834 110.477 103.148C109.487 103.544 108.428 103.734 107.364 103.705C106.578 103.708 105.794 103.632 105.023 103.479C104.416 103.374 103.826 103.186 103.268 102.921C103.208 102.892 103.158 102.845 103.124 102.787C103.09 102.729 103.074 102.662 103.078 102.594V99.5746C103.076 99.5449 103.081 99.515 103.094 99.4878C103.106 99.4607 103.125 99.4372 103.149 99.4195C103.17 99.4014 103.197 99.3915 103.225 99.3915C103.253 99.3915 103.28 99.4014 103.301 99.4195C103.966 99.8097 104.686 100.093 105.436 100.258C106.099 100.435 106.782 100.524 107.467 100.522C107.954 100.549 108.441 100.466 108.892 100.279C109.03 100.215 109.147 100.113 109.23 99.9834C109.313 99.8542 109.357 99.7036 109.359 99.5495C109.347 99.4091 109.304 99.2732 109.232 99.1525C109.16 99.0318 109.062 98.9294 108.946 98.8533C108.419 98.5127 107.853 98.2395 107.261 98.0398C106.396 97.7304 105.574 97.3075 104.817 96.7817C104.277 96.3953 103.83 95.8908 103.508 95.3055C103.229 94.7592 103.087 94.1513 103.095 93.5358C103.097 92.7955 103.3 92.0702 103.681 91.439C104.119 90.7398 104.747 90.1847 105.49 89.8413C106.443 89.3998 107.486 89.1916 108.533 89.2332C109.247 89.2348 109.96 89.2866 110.667 89.3884C111.176 89.4638 111.672 89.6048 112.146 89.8077C112.183 89.8205 112.218 89.8408 112.248 89.8675C112.277 89.8941 112.302 89.9266 112.319 89.9629C112.338 90.0298 112.349 90.0988 112.352 90.1684V92.9991C112.353 93.0327 112.345 93.066 112.33 93.096C112.315 93.126 112.293 93.1517 112.265 93.171C112.215 93.1975 112.161 93.2135 112.105 93.2178C112.049 93.2221 111.992 93.2148 111.939 93.1962Z" fill="#31A8FF"/>
</g>
<mask id="mask8_454_103" style="mask-type:luminance" maskUnits="userSpaceOnUse" x="78" y="148" width="42" height="43">
<path d="M119.289 148.161H78V190.097H119.289V148.161Z" fill="white"/>
</mask>
<g mask="url(#mask8_454_103)">
<path d="M78 155.571C78 151.478 81.0802 148.161 84.8829 148.161H112.406C116.209 148.161 119.289 151.478 119.289 155.571V182.687C119.289 186.78 116.209 190.097 112.406 190.097H84.8829C81.0802 190.097 78 186.78 78 182.687V155.571Z" fill="#FF0066"/>
<path d="M92.0507 161.665C92.5188 161.658 92.9745 161.511 93.3606 161.242C93.7466 160.973 94.0458 160.594 94.2204 160.153C94.3951 159.712 94.4374 159.228 94.3421 158.763C94.2468 158.297 94.0181 157.871 93.6848 157.537C93.3515 157.203 92.9284 156.977 92.4688 156.886C92.0092 156.796 91.5335 156.846 91.1017 157.029C90.6698 157.212 90.3009 157.521 90.0415 157.917C89.782 158.313 89.6436 158.778 89.6435 159.253C89.6429 159.573 89.7062 159.89 89.8293 160.184C89.9492 160.48 90.1277 160.747 90.3537 160.969C90.577 161.193 90.8423 161.37 91.1341 161.489C91.4247 161.61 91.7366 161.67 92.0507 161.665ZM87.0547 174.56C86.9172 175.154 86.8452 175.762 86.84 176.372C86.84 178.494 87.9713 179.903 90.3826 179.903C92.3769 179.903 93.9996 178.699 95.1639 176.753L94.4496 179.655H98.4134L100.68 170.429C101.25 168.089 102.332 166.877 104.008 166.877C105.321 166.877 106.134 167.716 106.134 169.071C106.14 169.509 106.08 169.946 105.957 170.366L104.809 174.606C104.644 175.191 104.561 175.797 104.561 176.405C104.561 178.418 105.73 179.894 108.174 179.894C110.263 179.894 111.927 178.531 112.848 175.256L111.271 174.665C110.495 176.858 109.822 177.257 109.289 177.257C108.756 177.257 108.463 176.896 108.463 176.179C108.478 175.801 108.538 175.427 108.641 175.063L109.772 170.928C110.028 170.077 110.16 169.193 110.164 168.303C110.164 165.213 108.323 163.598 106.089 163.598C104 163.598 101.878 165.51 100.816 167.527L101.593 163.908H95.552L94.7015 167.095H97.538L95.7915 174.183C94.4207 177.278 91.9062 177.328 91.5883 177.252C91.0721 177.135 90.7418 176.934 90.7418 176.246C90.7543 175.689 90.8375 175.137 90.9896 174.602L93.661 163.879H86.9184L86.0679 167.066H88.8673L87.0547 174.56Z" fill="white"/>
</g>
<mask id="mask9_454_103" style="mask-type:luminance" maskUnits="userSpaceOnUse" x="0" y="148" width="42" height="42">
<path d="M41.2893 148.308H0V189.951H41.2893V148.308Z" fill="white"/>
</mask>
<g mask="url(#mask9_454_103)">
<path d="M31.6111 148.308H9.67821C8.41178 148.303 7.1568 148.552 5.98495 149.039C4.8131 149.527 3.74736 150.245 2.8486 151.151C1.94984 152.057 1.23567 153.134 0.7469 154.321C0.258129 155.508 0.00432954 156.78 0 158.067V180.192C0.00432954 181.478 0.258129 182.751 0.7469 183.938C1.23567 185.125 1.94984 186.202 2.8486 187.108C3.74736 188.014 4.8131 188.732 5.98495 189.219C7.1568 189.707 8.41178 189.956 9.67821 189.951H31.6111C32.8775 189.956 34.1325 189.707 35.3043 189.219C36.4762 188.732 37.5419 188.014 38.4407 187.108C39.3395 186.202 40.0536 185.125 40.5424 183.938C41.0312 182.751 41.285 181.478 41.2893 180.192V158.067C41.285 156.78 41.0312 155.508 40.5424 154.321C40.0536 153.134 39.3395 152.057 38.4407 151.151C37.5419 150.245 36.4762 149.527 35.3043 149.039C34.1325 148.552 32.8775 148.303 31.6111 148.308Z" fill="#00005B"/>
<path d="M8.70801 178.02V160.151C8.70801 160.029 8.76168 159.962 8.88142 159.962C9.17458 159.962 9.45122 159.962 9.84346 159.962C10.2357 159.962 10.6692 159.962 11.1523 159.924C11.6354 159.887 12.1144 159.924 12.6511 159.891C13.1879 159.857 13.6999 159.891 14.216 159.891C15.4188 159.856 16.6183 160.037 17.7586 160.428C18.6201 160.724 19.4067 161.209 20.0626 161.849C20.617 162.41 21.0464 163.085 21.3219 163.829C21.5801 164.552 21.7128 165.315 21.7141 166.085C21.767 167.397 21.4053 168.691 20.6819 169.779C19.9905 170.752 19.0264 171.49 17.9155 171.897C16.6688 172.324 15.3578 172.524 14.0426 172.488C13.6297 172.488 13.3531 172.488 13.1838 172.488C13.0145 172.488 12.7709 172.488 12.4447 172.488V178.058C12.4481 178.086 12.4459 178.115 12.4382 178.143C12.4305 178.171 12.4175 178.197 12.3998 178.22C12.3821 178.242 12.3602 178.261 12.3353 178.275C12.3104 178.289 12.283 178.298 12.2548 178.301H8.91445C8.7782 178.301 8.70801 178.23 8.70801 178.074V178.02ZM12.4612 163.342V169.176C12.7007 169.176 12.9236 169.209 13.1301 169.209H14.0426C14.714 169.21 15.3814 169.104 16.0203 168.895C16.569 168.735 17.0598 168.415 17.4324 167.976C17.8154 167.465 18.0044 166.831 17.9651 166.19C17.977 165.646 17.8336 165.11 17.5522 164.646C17.2659 164.195 16.8449 163.848 16.3507 163.657C15.7038 163.402 15.0126 163.283 14.3192 163.309C13.8733 163.309 13.4934 163.309 13.1507 163.309C12.9204 163.3 12.6897 163.311 12.4612 163.342ZM24.1915 164.37H27.2221C27.3033 164.371 27.3819 164.398 27.4465 164.448C27.5112 164.498 27.5584 164.567 27.5813 164.646C27.634 164.781 27.6687 164.922 27.6846 165.066C27.7176 165.242 27.7548 165.431 27.7713 165.603C27.7878 165.775 27.8043 166.022 27.8043 166.227C28.3223 165.62 28.9467 165.115 29.6458 164.739C30.4459 164.29 31.3455 164.056 32.2594 164.059C32.288 164.055 32.317 164.057 32.3449 164.065C32.3727 164.072 32.3988 164.085 32.4215 164.103C32.4443 164.121 32.4632 164.144 32.4772 164.169C32.4912 164.195 32.5 164.223 32.503 164.252V167.704C32.503 167.842 32.4163 167.896 32.2264 167.896C31.6024 167.874 30.9781 167.932 30.3684 168.068C29.8715 168.172 29.3871 168.33 28.9232 168.538C28.5913 168.689 28.2933 168.907 28.0479 169.18V178.02C28.0479 178.192 27.9777 178.263 27.8208 178.263H24.4351C24.4033 178.268 24.3708 178.267 24.3394 178.259C24.3081 178.252 24.2787 178.238 24.2528 178.218C24.227 178.198 24.2053 178.174 24.1891 178.146C24.1729 178.117 24.1625 178.086 24.1585 178.053V168.375C24.1585 167.955 24.1585 167.536 24.1585 167.075C24.1585 166.613 24.1585 166.173 24.1213 165.72C24.0841 165.267 24.0883 164.94 24.0552 164.542C24.0504 164.521 24.0497 164.5 24.0531 164.479C24.0566 164.459 24.0642 164.439 24.0753 164.421C24.0865 164.404 24.1011 164.388 24.1183 164.377C24.1354 164.365 24.1547 164.357 24.175 164.353C24.175 164.353 24.175 164.332 24.1915 164.353V164.37Z" fill="#9999FF"/>
</g>
<path d="M165.009 151.39L176.645 150.161L188.28 151.394L197.289 163.484L176.645 187.53L156 163.484L165.009 151.39Z" fill="#FDB300"/>
<path d="M164.361 163.484L176.645 187.539L156 163.484H164.361ZM188.928 163.484L176.645 187.539L197.289 163.484H188.928Z" fill="#EA6C00"/>
<path d="M176.645 150.161L165.009 151.39L164.361 163.484L176.645 150.161ZM176.645 150.161L188.28 151.39L188.928 163.484L176.645 150.161Z" fill="#FDD231"/>
<path d="M197.289 163.484L188.28 151.386L188.928 163.484H197.289ZM156 163.484L165.009 151.386L164.361 163.484H156Z" fill="#FDAD00"/>
<path d="M176.645 150.161L164.361 163.484H188.928L176.645 150.161Z" fill="#FEEEB7"/>
<rect x="117" y="219" width="38" height="36" rx="7" transform="rotate(90 117 219)" fill="#D39CFF" fill-opacity="0.07"/>
<rect x="195" y="219" width="38" height="36" rx="7" transform="rotate(90 195 219)" fill="#D39CFF" fill-opacity="0.07"/>
<rect x="273" y="219" width="38" height="36" rx="7" transform="rotate(90 273 219)" fill="#D39CFF" fill-opacity="0.07"/>
<rect x="117" y="291" width="38" height="36" rx="7" transform="rotate(90 117 291)" fill="#D39CFF" fill-opacity="0.02"/>
<rect x="39" y="291" width="38" height="36" rx="7" transform="rotate(90 39 291)" fill="#D39CFF" fill-opacity="0.02"/>
<rect x="195" y="291" width="38" height="36" rx="7" transform="rotate(90 195 291)" fill="#D39CFF" fill-opacity="0.02"/>
<rect x="273" y="291" width="38" height="36" rx="7" transform="rotate(90 273 291)" fill="#D39CFF" fill-opacity="0.02"/>
<path d="M8.72353 222C6.32707 222 4.55372 224.132 4.63312 226.443C4.70941 228.664 4.61032 231.54 3.8978 233.886C3.18314 236.238 1.97433 237.729 0 237.92V240.08C1.97433 240.271 3.18314 241.762 3.8978 244.114C4.61032 246.46 4.70941 249.336 4.63312 251.557C4.55372 253.868 6.32707 256 8.72386 256H33.2796C35.6762 256 37.4491 253.868 37.3697 251.557C37.2935 249.336 37.3925 246.46 38.105 244.114C38.8201 241.762 40.0257 240.271 42 240.08V237.92C40.0257 237.729 38.8201 236.238 38.1052 233.886C37.3925 231.541 37.2935 228.664 37.3697 226.443C37.4491 224.132 35.6762 222 33.2796 222H8.7232H8.72353ZM28.4747 242.929C28.4747 246.112 26.1384 248.043 22.2613 248.043H15.6611C15.4723 248.042 15.2913 247.966 15.1578 247.831C15.0244 247.695 14.9494 247.511 14.9494 247.319V230.681C14.9494 230.586 14.9678 230.492 15.0035 230.404C15.0393 230.316 15.0917 230.236 15.1578 230.169C15.2239 230.102 15.3024 230.049 15.3888 230.012C15.4752 229.976 15.5677 229.957 15.6612 229.957H22.2236C25.4564 229.957 27.5781 231.737 27.5781 234.469C27.5781 236.387 26.1507 238.104 24.3324 238.405V238.505C26.808 238.781 28.4747 240.523 28.4747 242.929ZM21.5414 232.251H17.7783V237.652H20.948C23.3981 237.652 24.7493 236.65 24.7493 234.857C24.7493 233.178 23.5873 232.251 21.5414 232.251ZM17.7783 239.796V245.749H21.68C24.2309 245.749 25.5824 244.708 25.5824 242.753C25.5824 240.798 24.1933 239.795 21.516 239.795H17.7783V239.796Z" fill="#7E13F8"/>
</svg>
