<svg width="269" height="320" viewBox="0 0 269 320" fill="none" xmlns="http://www.w3.org/2000/svg">
<mask id="mask0_454_103" style="mask-type:luminance" maskUnits="userSpaceOnUse" x="156" y="1" width="32" height="31">
<path d="M187.453 1.16748H156.054V31.1675H187.453V1.16748Z" fill="white"/>
</mask>
<g mask="url(#mask0_454_103)">
<path d="M182.241 1.16748H161.266C158.387 1.16748 156.054 3.45089 156.054 6.27006V26.0234C156.054 28.8394 158.387 31.126 161.266 31.126H182.241C185.117 31.126 187.453 28.8426 187.453 26.0234V6.27006C187.453 3.45089 185.117 1.16748 182.241 1.16748Z" fill="#49021F"/>
<path d="M167.455 9.00486V22.1313C167.455 22.2684 167.392 22.3385 167.267 22.3385H164.717C164.604 22.3385 164.548 22.2684 164.551 22.1313V9.00486C164.551 8.89324 164.613 8.83903 164.739 8.83903H167.289C167.309 8.83435 167.331 8.83435 167.351 8.83903C167.372 8.84573 167.391 8.85657 167.408 8.87092C167.424 8.88505 167.437 8.90244 167.446 8.92194C167.45 8.94189 167.45 8.96259 167.446 8.98254L167.455 9.00486ZM175.132 22.5427H174.997C174.025 22.5606 173.061 22.3637 172.171 21.9654C171.357 21.5999 170.671 20.9929 170.203 20.2242C169.711 19.3665 169.463 18.3874 169.487 17.3954V17.3093C169.479 16.3595 169.726 15.4255 170.203 14.6081C170.689 13.7871 171.385 13.1158 172.218 12.666L172.287 12.6309C173.312 12.1101 174.448 11.8548 175.594 11.8878H175.908H176.002L176.209 11.907H176.266V7.86954C176.266 7.77387 176.31 7.72603 176.391 7.72603H179.048C179.064 7.72283 179.081 7.72283 179.098 7.72603C179.114 7.73252 179.129 7.74228 179.142 7.75473C179.155 7.76506 179.164 7.77977 179.167 7.79619C179.172 7.81286 179.172 7.83054 179.167 7.84721V20.0264C179.167 20.2816 179.167 20.5335 179.198 20.7886L179.217 21.0533L179.236 21.3021V21.5317C179.236 21.5742 179.226 21.616 179.205 21.6529C179.182 21.691 179.148 21.7202 179.107 21.7358C178.422 22.0167 177.709 22.224 176.982 22.3545C176.36 22.467 175.73 22.5289 175.098 22.5395L175.132 22.5427ZM176.281 19.9914V14.3594C176.167 14.3283 176.051 14.307 175.933 14.2956C175.792 14.2956 175.647 14.2765 175.503 14.2765C174.993 14.2679 174.489 14.3769 174.027 14.5954C173.583 14.8122 173.203 15.1418 172.922 15.5521C172.614 16.035 172.463 16.604 172.492 17.1786C172.48 17.6313 172.556 18.082 172.714 18.5052C172.845 18.8467 173.046 19.1556 173.305 19.4109C173.557 19.6492 173.86 19.8259 174.19 19.9276C174.541 20.0375 174.906 20.0923 175.274 20.0902C175.472 20.0902 175.654 20.0838 175.82 20.0711C175.955 20.0617 176.088 20.0393 176.219 20.0041L176.281 19.9914Z" fill="#FF3366"/>
</g>
<mask id="mask1_454_103" style="mask-type:luminance" maskUnits="userSpaceOnUse" x="78" y="1" width="33" height="31">
<path d="M110.458 1.23047H78.9614V31.2305H110.458V1.23047Z" fill="white"/>
</mask>
<g mask="url(#mask1_454_103)">
<path d="M105.229 1.23047H84.1898C81.3016 1.23047 78.9614 3.51454 78.9614 6.32964V26.0833C78.9614 28.9016 81.3016 31.1825 84.1898 31.1825H105.229C108.114 31.1825 110.458 28.9016 110.458 26.0833V6.32964C110.458 3.51454 108.114 1.23047 105.229 1.23047Z" fill="#470137"/>
<path d="M95.5191 9.10603L91.5789 15.4336L95.7837 22.1515C95.8098 22.1991 95.8177 22.255 95.8057 22.3082C95.8057 22.3306 95.7837 22.3338 95.7616 22.337H95.7081H95.6577H92.5647C92.401 22.337 92.2844 22.3114 92.212 22.193C91.9317 21.662 91.6513 21.1278 91.3679 20.5935C91.1127 20.1201 90.8545 19.6499 90.5868 19.1828L90.4702 18.9749C90.1553 18.4214 89.8403 17.8648 89.5253 17.305H89.5033C89.2198 17.8616 88.9269 18.4087 88.6277 18.9557C88.3285 19.5027 88.0261 20.0497 87.73 20.5935C87.434 21.1374 87.1316 21.6748 86.8229 22.2122C86.8008 22.2585 86.7648 22.2964 86.7201 22.3205C86.6754 22.3447 86.6243 22.3538 86.5741 22.3466H83.6198H83.5757C83.5536 22.3466 83.541 22.3466 83.5347 22.3082C83.5273 22.2579 83.5385 22.2066 83.5662 22.1642L87.645 15.6319L83.6859 9.08683C83.645 9.03245 83.6355 8.98766 83.6639 8.95247C83.6793 8.93508 83.6988 8.92189 83.7206 8.91409C83.7445 8.90926 83.7691 8.90926 83.793 8.91409H86.7694C86.835 8.91008 86.9006 8.92101 86.9615 8.94608C87.0117 8.97269 87.0549 9.01108 87.0875 9.05804C87.3437 9.60826 87.6251 10.1574 87.9316 10.7055C88.2466 11.2525 88.5616 11.7964 88.8765 12.3338C89.1915 12.8712 89.4844 13.4086 89.7521 13.9621H89.7742C90.0513 13.4086 90.3348 12.8584 90.6309 12.3146C90.9269 11.7708 91.2135 11.2397 91.5159 10.6959C91.8183 10.1521 92.108 9.62106 92.3947 9.09643C92.41 9.04439 92.4394 8.99781 92.4797 8.96207C92.5314 8.93608 92.5892 8.92501 92.6466 8.93008H95.4152C95.4397 8.92201 95.4662 8.92201 95.4907 8.93008C95.5151 8.93941 95.536 8.95618 95.5506 8.97807C95.5583 9.00197 95.5583 9.02774 95.5506 9.05164C95.5476 9.07762 95.5353 9.10156 95.5159 9.11882L95.5191 9.10603ZM101.727 22.6057H101.582C100.607 22.6232 99.6405 22.4268 98.7475 22.0299C97.9317 21.6634 97.2436 21.0558 96.7726 20.2864C96.2797 19.4309 96.0311 18.4528 96.0545 17.4618V17.3722C96.0464 16.4225 96.2948 15.4886 96.7726 14.6722C97.2595 13.8508 97.9574 13.1795 98.7916 12.7305L98.864 12.6921C99.8929 12.1722 101.032 11.9174 102.181 11.9499H102.376H102.458H102.593H102.744H102.858V7.932C102.858 7.83603 102.899 7.78805 102.984 7.78805H105.648C105.665 7.78484 105.682 7.78484 105.699 7.78805C105.715 7.79456 105.73 7.80435 105.743 7.81684C105.756 7.8272 105.765 7.84195 105.768 7.85842C105.773 7.87515 105.773 7.89289 105.768 7.90961V20.0881C105.768 20.2928 105.768 20.5136 105.793 20.7503L105.831 21.2845L105.853 21.6044C105.854 21.6481 105.843 21.6912 105.822 21.7292C105.797 21.7658 105.764 21.7947 105.724 21.8124C105.041 22.0849 104.333 22.2864 103.611 22.4138C102.989 22.5274 102.359 22.5916 101.727 22.6057ZM102.87 20.0465V14.4163C102.756 14.3852 102.639 14.3638 102.521 14.3523C102.379 14.3523 102.234 14.3332 102.089 14.3332C101.578 14.3245 101.072 14.4339 100.609 14.6531C100.164 14.871 99.7826 15.2015 99.5002 15.6127C99.2036 16.0765 99.0531 16.621 99.0687 17.1738V17.241C99.0565 17.6908 99.1315 18.1386 99.2892 18.559C99.4187 18.9022 99.6208 19.2124 99.8813 19.4675C100.135 19.7056 100.439 19.8817 100.77 19.9825C101.121 20.0938 101.488 20.1499 101.856 20.1489C102.055 20.1489 102.237 20.1489 102.404 20.1265C102.539 20.1166 102.673 20.0952 102.804 20.0625L102.87 20.0465Z" fill="#FF61F6"/>
</g>
<path d="M13.1952 33.0005C14.6361 33.0049 16.0197 32.4279 17.0419 31.3965C18.0641 30.3651 18.6413 28.9637 18.6464 27.5002V22H13.1952C11.7589 22 10.3815 22.5795 9.36592 23.611C8.35033 24.6425 7.77979 26.0415 7.77979 27.5002C7.77979 28.959 8.35033 30.358 9.36592 31.3895C10.3815 32.421 11.7589 33.0005 13.1952 33.0005Z" fill="#0ACF83"/>
<path d="M7.74097 16.4978C7.74353 15.7729 7.88665 15.0556 8.16216 14.3869C8.43766 13.7181 8.84015 13.1111 9.34665 12.6003C9.85315 12.0896 10.4537 11.6852 11.1141 11.4102C11.7745 11.1352 12.4818 10.995 13.1955 10.9976H18.6467V21.9981H13.1955C12.4818 22.0007 11.7745 21.8605 11.1141 21.5855C10.4537 21.3105 9.85315 20.9061 9.34665 20.3953C8.84015 19.8846 8.43766 19.2775 8.16216 18.6088C7.88665 17.94 7.74353 17.2227 7.74097 16.4978Z" fill="#A259FF"/>
<path d="M7.74097 5.49891C7.74701 4.03546 8.32497 2.63434 9.3478 1.60356C10.3706 0.572778 11.7546 -0.00329117 13.1955 0.00198911H18.6467V10.9991H13.1955C12.4818 11.0017 11.7745 10.8616 11.1141 10.5866C10.4537 10.3116 9.85315 9.90714 9.34665 9.3964C8.84015 8.88565 8.43766 8.27858 8.16216 7.60985C7.88665 6.94112 7.74353 6.22382 7.74097 5.49891Z" fill="#F24E1E"/>
<path d="M18.6462 0.0016558H24.1008C24.8229 -0.0163444 25.5413 0.11257 26.2136 0.380808C26.8859 0.649046 27.4986 1.05119 28.0156 1.56356C28.5326 2.07593 28.9435 2.68818 29.224 3.36425C29.5045 4.04033 29.649 4.76657 29.649 5.50023C29.649 6.23389 29.5045 6.96013 29.224 7.63621C28.9435 8.31229 28.5326 8.92453 28.0156 9.4369C27.4986 9.94927 26.8859 10.3514 26.2136 10.6197C25.5413 10.8879 24.8229 11.0168 24.1008 10.9988H18.6462V0.0016558Z" fill="#FF7262"/>
<path d="M29.5527 16.4978C29.5604 17.5953 29.2471 18.6704 28.6523 19.5868C28.0575 20.5031 27.2082 21.2193 26.212 21.6446C25.2159 22.0699 24.1178 22.1852 23.057 21.9756C21.9963 21.7661 21.0208 21.2413 20.2541 20.4678C19.4875 19.6943 18.9644 18.707 18.7511 17.631C18.5378 16.5551 18.644 15.439 19.0562 14.4245C19.4683 13.4099 20.1679 12.5426 21.0662 11.9325C21.9644 11.3223 23.0208 10.997 24.1014 10.9976C25.5423 10.9932 26.9259 11.5701 27.9482 12.6015C28.9704 13.6329 29.5475 15.0344 29.5527 16.4978Z" fill="#1ABCFE"/>
<mask id="mask2_454_103" style="mask-type:luminance" maskUnits="userSpaceOnUse" x="235" y="137" width="34" height="51">
<path d="M268.34 137.949H235.289V187.949H268.34V137.949Z" fill="white"/>
</mask>
<g mask="url(#mask2_454_103)">
<path d="M251.794 187.821L238.346 183.817L235.348 147.751H268.283L265.276 183.81L251.794 187.821Z" fill="#264DE4"/>
<path d="M262.714 181.514L265.279 150.699H251.814V184.757L262.714 181.514Z" fill="#2965F1"/>
<path d="M242.22 164.075L242.59 168.499H251.815V164.075H242.22ZM241.48 155.136L241.857 159.56H251.818V155.136H241.48ZM251.818 175.579L247.227 174.236L246.933 170.708H242.772L243.35 177.653L251.798 180.168L251.818 175.579Z" fill="#EBEBEB"/>
<path d="M243.099 137.949H248.089V140.188H245.184V142.43H248.089V144.669H243.099V137.949ZM249.091 137.949H254.085V139.896H251.179V140.285H254.085V144.766H249.081V142.715H251.986V142.326H249.081L249.091 137.949ZM255.083 137.949H260.077V139.896H257.172V140.285H260.077V144.766H255.083V142.715H258.004V142.326H255.096V137.949H255.083Z" fill="black"/>
<path d="M261.385 164.075L262.129 155.136H251.801V159.56H257.611L257.234 164.088H251.801V168.513H256.877L256.398 174.25L251.801 175.592V180.194L260.255 177.68L260.315 176.932L261.286 165.287L261.385 164.075Z" fill="white"/>
</g>
<mask id="mask3_454_103" style="mask-type:luminance" maskUnits="userSpaceOnUse" x="235" y="68" width="33" height="46">
<path d="M267.514 68.2036H235.289V113.204H267.514V68.2036Z" fill="white"/>
</mask>
<g mask="url(#mask3_454_103)">
<path d="M267.459 77.0251L264.526 109.48L251.375 113.08L238.263 109.48L235.34 77.0186L267.459 77.0251Z" fill="#E44D26"/>
<path d="M251.401 110.331L262.035 107.415L264.526 79.6797H251.401V110.331Z" fill="#F16529"/>
<path d="M245.715 87.6438H251.403V83.6606H241.326L241.423 84.7309L242.412 95.7019H251.406V91.7187H246.089L245.715 87.6438ZM246.624 97.6918H242.586L243.15 103.943L251.387 106.208H251.403V102.071H251.387L246.908 100.873L246.624 97.6918Z" fill="#EBEBEB"/>
<path d="M238.335 68.2036H240.378V70.2034H242.247V68.2036H244.29V74.2488H242.247V72.2228H240.378V74.2488H238.335V68.2036ZM246.978 70.2099H245.192V68.2036H250.832V70.2099H249.034V74.2488H246.991V70.2099H246.978ZM251.715 68.2036H253.845L255.156 70.331L256.465 68.2036H258.595V74.2488H256.561V71.2507L255.156 73.4011H255.121L253.713 71.2507V74.2488H251.715V68.2036ZM259.613 68.2036H261.656V72.2555H264.527V74.2488H259.613V68.2036Z" fill="black"/>
<path d="M251.39 95.6995H256.339L255.872 100.861L251.39 102.069V106.212L259.633 103.951L259.691 103.276L260.638 92.8029L260.735 91.7327H251.39V95.6995ZM251.39 87.6316H261.099L261.18 86.7349L261.363 84.7187L261.46 83.6484H251.39V87.6316Z" fill="white"/>
</g>
<mask id="mask4_454_103" style="mask-type:luminance" maskUnits="userSpaceOnUse" x="233" y="0" width="33" height="33">
<path d="M265.72 0H233V33H265.72V0Z" fill="white"/>
</mask>
<g mask="url(#mask4_454_103)">
<path d="M258.054 4.56857e-05H240.67C239.666 -0.00345164 238.671 0.193878 237.743 0.580785C236.814 0.967692 235.969 1.53661 235.257 2.25501C234.545 2.97342 233.979 3.82725 233.592 4.76779C233.205 5.70832 233.003 6.71714 233 7.73661V25.2668C233.003 26.2863 233.205 27.2951 233.592 28.2356C233.979 29.1762 234.545 30.03 235.257 30.7484C235.969 31.4668 236.814 32.0357 237.743 32.4226C238.671 32.8095 239.666 33.0069 240.67 33.0034H258.054C259.057 33.0069 260.052 32.8095 260.98 32.4226C261.909 32.0356 262.753 31.4667 263.465 30.7482C264.177 30.0298 264.742 29.1759 265.129 28.2354C265.516 27.2949 265.717 26.2861 265.72 25.2668V7.73661C265.717 6.7173 265.516 5.70856 265.129 4.76805C264.742 3.82753 264.177 2.97367 263.465 2.25522C262.753 1.53677 261.909 0.967814 260.98 0.580866C260.052 0.193919 259.057 -0.0034512 258.054 4.56857e-05Z" fill="#F7DF1E"/>
<path d="M241.605 27.5807L244.109 26.052C244.593 26.9161 245.031 27.6472 246.072 27.6472C247.112 27.6472 247.708 27.2484 247.708 25.6964V15.1517H250.78V25.7396C250.78 28.9532 248.915 30.4155 246.199 30.4155C243.742 30.4155 242.312 29.1294 241.589 27.5807M252.462 27.2484L254.965 25.7862C255.619 26.8696 256.48 27.6671 257.995 27.6671C259.271 27.6671 260.082 27.0257 260.082 26.1384C260.082 25.0783 259.248 24.6995 257.841 24.0813L257.072 23.749C254.854 22.7952 253.385 21.5989 253.385 19.0732C253.385 16.7469 255.142 14.9756 257.887 14.9756C259.85 14.9756 261.247 15.6635 262.258 17.4581L259.863 19.0067C259.336 18.0563 258.764 17.6774 257.9 17.6774C257.036 17.6774 256.428 18.2556 256.428 19.0067C256.428 19.9372 257 20.3127 258.316 20.891L259.085 21.2233C261.702 22.3532 263.171 23.5031 263.171 26.0952C263.171 28.8868 260.995 30.4155 258.073 30.4155C255.224 30.4155 253.378 29.0396 252.478 27.2484H252.462Z" fill="black"/>
</g>
<mask id="mask5_454_103" style="mask-type:luminance" maskUnits="userSpaceOnUse" x="156" y="74" width="33" height="34">
<path d="M188.72 74.1611H156V107.161H188.72V74.1611Z" fill="white"/>
</mask>
<g mask="url(#mask5_454_103)">
<path d="M183.289 74.1611H161.432C160.712 74.1672 160.001 74.3171 159.339 74.6024C158.677 74.8876 158.076 75.3025 157.572 75.8234C157.068 76.3443 156.669 76.961 156.4 77.6383C156.13 78.3156 155.994 79.0402 156 79.7708V101.498C155.994 102.229 156.13 102.953 156.4 103.631C156.669 104.308 157.068 104.925 157.572 105.446C158.076 105.967 158.677 106.382 159.339 106.667C160.001 106.952 160.712 107.102 161.432 107.108H183.289C184.008 107.102 184.719 106.952 185.381 106.667C186.044 106.382 186.644 105.967 187.148 105.446C187.653 104.925 188.051 104.308 188.321 103.631C188.591 102.953 188.726 102.229 188.72 101.498V79.7708C188.726 79.0402 188.591 78.3156 188.321 77.6383C188.051 76.961 187.653 76.3443 187.148 75.8234C186.644 75.3025 186.044 74.8876 185.381 74.6024C184.719 74.3171 184.008 74.1672 183.289 74.1611Z" fill="#00005B"/>
<path d="M169.15 93.8706H164.075L163.041 97.1939C163.03 97.2511 162.999 97.3028 162.955 97.3402C162.911 97.3777 162.856 97.3988 162.799 97.3999H160.21C160.063 97.3999 160.014 97.3168 160.057 97.1507L164.448 84.1467L164.49 84.0105V83.964L164.52 83.8643C164.52 83.8144 164.549 83.7612 164.562 83.7014C164.621 83.3994 164.651 83.0922 164.651 82.7842C164.646 82.7635 164.646 82.7418 164.651 82.7211C164.657 82.6999 164.668 82.6805 164.683 82.6646C164.698 82.6498 164.716 82.6384 164.736 82.6313C164.756 82.6281 164.777 82.6281 164.798 82.6313H168.289C168.391 82.6313 168.449 82.6712 168.463 82.7477L173.446 97.1773C173.488 97.3301 173.446 97.4066 173.315 97.4066H170.462C170.412 97.4095 170.363 97.3967 170.321 97.37C170.281 97.3402 170.253 97.2964 170.242 97.2471L169.15 93.8706ZM164.863 91.0758H168.332L168.283 90.9063L168.204 90.6404L168.086 90.2582L167.864 89.5371L167.651 88.8425L167.255 87.5498C167.147 87.1942 167.042 86.8353 166.928 86.4764L166.817 86.0676L166.696 85.619L166.584 85.2036H166.565C166.453 85.7486 166.319 86.2869 166.162 86.8187L166.015 87.3105L165.658 88.4969L165.475 89.1051C165.442 89.2147 165.413 89.3211 165.38 89.4374L165.282 89.7531L165.184 90.0622L165.089 90.3646L164.994 90.6603C164.958 90.7933 164.912 90.9428 164.863 91.0758ZM181.551 92.5812H177.222C177.275 93.0227 177.417 93.4482 177.64 93.8307C177.881 94.204 178.221 94.4993 178.622 94.6815C179.171 94.927 179.766 95.0472 180.366 95.0338C180.842 95.0239 181.316 94.9705 181.783 94.8742C182.2 94.8133 182.609 94.7018 183 94.5419C183.072 94.4821 183.108 94.5187 183.108 94.6549V96.8084C183.114 96.8669 183.102 96.9259 183.075 96.9779C183.051 97.0199 183.018 97.0552 182.977 97.0809C182.544 97.2793 182.088 97.42 181.619 97.4996C180.982 97.6224 180.334 97.6792 179.685 97.6691C178.814 97.6948 177.947 97.5352 177.14 97.2005L177.074 97.1706C176.41 96.8687 175.824 96.4136 175.363 95.8413C174.931 95.2947 174.61 94.6668 174.418 93.9936C174.228 93.3259 174.132 92.6346 174.133 91.9398C174.127 91.1826 174.237 90.4291 174.46 89.7066C174.679 89.0059 175.025 88.3532 175.481 87.7824C175.926 87.2249 176.484 86.7714 177.117 86.4531C177.836 86.1271 178.62 85.9758 179.407 86.0111C180.136 85.9937 180.859 86.1413 181.524 86.4431C182.086 86.6912 182.58 87.0758 182.961 87.5631C183.321 88.0444 183.596 88.5852 183.775 89.1616C183.949 89.7195 184.037 90.3012 184.037 90.8863C184.037 91.2186 184.037 91.5211 184.005 91.7936L183.985 92.0262L183.965 92.2455V92.3585V92.3818C183.961 92.4319 183.937 92.4783 183.9 92.5114C183.864 92.544 183.817 92.5618 183.769 92.5613H183.576H183.438H183.317H183.216H183.108H182.993H182.869H182.542C182.398 92.5639 182.254 92.5583 182.11 92.5446H181.888C181.776 92.6045 181.662 92.5812 181.547 92.5812H181.551ZM177.225 90.5174H180.755H180.88C180.996 90.5094 181.109 90.4717 181.207 90.4078V90.2782C181.204 90.101 181.175 89.9252 181.122 89.7564C181.004 89.3703 180.765 89.034 180.441 88.7993C180.121 88.5674 179.735 88.4505 179.342 88.467C178.973 88.4431 178.605 88.531 178.285 88.7196C177.961 88.909 177.7 89.191 177.532 89.5304C177.379 89.8411 177.274 90.1741 177.222 90.5174H177.225Z" fill="#9999FF"/>
</g>
<mask id="mask6_454_103" style="mask-type:luminance" maskUnits="userSpaceOnUse" x="0" y="74" width="34" height="34">
<path d="M33.6278 74.1611H0.907715V107.161H33.6278V74.1611Z" fill="white"/>
</mask>
<g mask="url(#mask6_454_103)">
<path d="M28.1964 74.1611H6.33944C5.62014 74.1672 4.90906 74.3171 4.24681 74.6024C3.58456 74.8876 2.9841 75.3025 2.47973 75.8234C1.97537 76.3443 1.57696 76.961 1.30727 77.6383C1.03757 78.3156 0.901867 79.0402 0.907908 79.7708V101.498C0.901867 102.229 1.03757 102.953 1.30727 103.631C1.57696 104.308 1.97537 104.925 2.47973 105.446C2.9841 105.967 3.58456 106.382 4.24681 106.667C4.90906 106.952 5.62014 107.102 6.33944 107.108H28.1964C28.9157 107.102 29.6268 106.952 30.2891 106.667C30.9513 106.382 31.5518 105.967 32.0561 105.446C32.5605 104.925 32.9589 104.308 33.2286 103.631C33.4983 102.953 33.634 102.229 33.628 101.498V79.7708C33.634 79.0402 33.4983 78.3156 33.2286 77.6383C32.9589 76.961 32.5605 76.3443 32.0561 75.8234C31.5518 75.3025 30.9513 74.8876 30.2891 74.6024C29.6268 74.3171 28.9157 74.1672 28.1964 74.1611Z" fill="#330000"/>
<path d="M16.764 93.9355H11.6924L10.6617 97.2588C10.6493 97.3191 10.6162 97.373 10.5682 97.4108C10.5202 97.4485 10.4606 97.4677 10.4 97.4648H7.84125C7.69401 97.4648 7.64165 97.3817 7.68746 97.2156L12.0752 84.1585C12.121 84.0222 12.1636 83.866 12.2094 83.6932C12.2654 83.3908 12.2939 83.0837 12.2944 82.776C12.2912 82.754 12.2912 82.7316 12.2944 82.7095C12.3014 82.6896 12.3126 82.6715 12.3272 82.6564C12.3417 82.6411 12.3597 82.6297 12.3795 82.6231C12.4 82.6184 12.4212 82.6184 12.4417 82.6231H15.9329C16.0343 82.6231 16.0932 82.6597 16.1096 82.7361L21.0929 97.2455C21.1354 97.395 21.0929 97.4715 20.9587 97.4715H18.1055C18.0568 97.4782 18.0074 97.465 17.9681 97.4349C17.927 97.4054 17.8979 97.3617 17.8863 97.3119L16.764 93.9355ZM12.4842 91.0775H15.9525L15.9035 90.908L15.8217 90.6422L15.766 90.456L15.6777 90.1603L15.4847 89.5388L15.3145 88.9872L14.8761 87.5515C14.7681 87.1959 14.6634 86.837 14.5489 86.4781L14.4671 86.1857L14.3754 85.8533L14.2315 85.3183L14.2053 85.2153H14.1824C14.0755 85.7603 13.9424 86.2986 13.7832 86.8304L13.456 87.9138L13.276 88.5119L13.0961 89.1168L12.9979 89.4491L12.8998 89.7648L12.8049 90.0739L12.71 90.3763L12.6118 90.6721C12.5824 90.7684 12.5497 90.8615 12.5169 90.9579L12.4842 91.0775ZM24.0508 85.0026C23.8269 85.0125 23.6036 84.9728 23.3964 84.8863C23.1875 84.7999 22.9991 84.6697 22.8434 84.5041C22.6882 84.3301 22.5682 84.1269 22.49 83.9059C22.4087 83.684 22.372 83.4479 22.382 83.2113C22.3753 82.9774 22.4154 82.7445 22.4998 82.5268C22.5907 82.3157 22.7245 82.1265 22.8925 81.9718C23.2052 81.6598 23.6256 81.4845 24.0639 81.4832H24.1097C24.3388 81.471 24.5679 81.5079 24.7822 81.5915C24.9964 81.6751 25.1909 81.8035 25.353 81.9684C25.5652 82.2398 25.7064 82.5612 25.7636 82.9028C25.8208 83.2444 25.7921 83.5952 25.6802 83.9225C25.5985 84.144 25.4752 84.3472 25.317 84.5207C25.1581 84.6838 24.9675 84.8116 24.7575 84.8962C24.55 84.9823 24.3272 85.0242 24.1031 85.0192L24.0508 85.0026ZM22.5358 97.2222V86.3851C22.5358 86.2488 22.5947 86.1823 22.7125 86.1823H25.4119C25.5297 86.1823 25.5886 86.2488 25.5886 86.3851V97.2222C25.5886 97.3718 25.5297 97.4482 25.4119 97.4482H22.7354C22.7086 97.4508 22.6815 97.4473 22.6561 97.438C22.6308 97.4287 22.6078 97.4139 22.5887 97.3945C22.5696 97.3751 22.555 97.3517 22.5459 97.326C22.5367 97.3002 22.5333 97.2727 22.5358 97.2455V97.2222Z" fill="#FF9A00"/>
</g>
<mask id="mask7_454_103" style="mask-type:luminance" maskUnits="userSpaceOnUse" x="78" y="74" width="34" height="34">
<path d="M111.628 74.1611H78.9077V107.161H111.628V74.1611Z" fill="white"/>
</mask>
<g mask="url(#mask7_454_103)">
<path d="M103.958 74.1612H86.5773C85.5737 74.1573 84.5792 74.3542 83.6505 74.7407C82.7219 75.1273 81.8773 75.6959 81.1651 76.414C80.4529 77.1321 79.8869 77.9858 79.4996 78.9261C79.1123 79.8665 78.9111 80.8751 78.9077 81.8944V99.428C78.9111 100.447 79.1123 101.456 79.4996 102.396C79.8869 103.337 80.4529 104.19 81.1651 104.908C81.8773 105.627 82.7219 106.195 83.6505 106.582C84.5792 106.968 85.5737 107.165 86.5773 107.161H103.958C104.962 107.165 105.956 106.968 106.885 106.582C107.814 106.195 108.658 105.627 109.37 104.908C110.083 104.19 110.649 103.337 111.036 102.396C111.423 101.456 111.624 100.447 111.628 99.428V81.8944C111.624 80.8751 111.423 79.8665 111.036 78.9261C110.649 77.9858 110.083 77.1321 109.37 76.414C108.658 75.6959 107.814 75.1273 106.885 74.7407C105.956 74.3542 104.962 74.1573 103.958 74.1612Z" fill="#001E36"/>
<path d="M86.2693 97.1122V82.9683C86.2693 82.872 86.3118 82.8188 86.4067 82.8188C86.639 82.8188 86.855 82.8188 87.1691 82.8188C87.4832 82.8188 87.8235 82.8188 88.2063 82.7889C88.5891 82.759 88.9687 82.7889 89.3908 82.7623C89.8129 82.7357 90.2251 82.7623 90.6341 82.7623C91.5873 82.7343 92.5379 82.8783 93.4415 83.1877C94.1248 83.4227 94.7484 83.8086 95.2673 84.3176C95.7015 84.7616 96.0364 85.2955 96.2489 85.8828C96.4606 86.4547 96.5713 87.0599 96.5761 87.6708C96.618 88.7103 96.3314 89.7363 95.7581 90.5986C95.2097 91.3701 94.4444 91.9552 93.5626 92.2768C92.5758 92.6153 91.5379 92.774 90.4967 92.7454C90.1695 92.7454 89.9503 92.7454 89.8161 92.7454C89.682 92.7454 89.4889 92.7454 89.2272 92.7454V97.1587C89.2309 97.1813 89.2299 97.2044 89.2244 97.2266C89.2189 97.2488 89.2089 97.2696 89.195 97.2877C89.1812 97.3058 89.1639 97.3208 89.144 97.3318C89.1242 97.3428 89.1024 97.3494 89.0799 97.3514H86.4329C86.3249 97.2916 86.2693 97.2351 86.2693 97.1122ZM89.2435 85.4641V90.0868C89.4333 90.0868 89.61 90.1134 89.7736 90.1134H90.4967C91.0288 90.1139 91.5576 90.0298 92.064 89.8641C92.4984 89.7365 92.8871 89.4837 93.183 89.1363C93.4865 88.7312 93.6363 88.2287 93.6051 87.7206C93.6146 87.2894 93.501 86.8647 93.2779 86.4976C93.0503 86.1391 92.7154 85.8643 92.3225 85.7134C91.8111 85.5111 91.2644 85.4173 90.7159 85.4375C90.3593 85.4375 90.0615 85.4375 89.7867 85.4375C89.6052 85.4308 89.4235 85.4397 89.2435 85.4641ZM105.083 89.246C104.671 89.0281 104.23 88.8714 103.775 88.7807C103.274 88.6646 102.763 88.6044 102.25 88.6013C101.974 88.5913 101.698 88.6238 101.432 88.6976C101.262 88.7321 101.11 88.8292 101.006 88.9702C100.94 89.0828 100.902 89.2109 100.898 89.3424C100.905 89.4739 100.953 89.5997 101.036 89.7013C101.164 89.8542 101.321 89.9796 101.497 90.0702C101.824 90.2363 102.152 90.4025 102.479 90.5254C103.215 90.7741 103.92 91.1086 104.579 91.5224C105.026 91.8062 105.395 92.1978 105.656 92.6623C105.88 93.1002 105.992 93.588 105.983 94.0813C105.994 94.7317 105.808 95.3699 105.45 95.9091C105.069 96.4585 104.539 96.8834 103.925 97.1321C103.14 97.4464 102.301 97.5968 101.458 97.5741C100.835 97.5761 100.214 97.516 99.6027 97.3946C99.1218 97.3112 98.6541 97.1625 98.2121 96.9526C98.1645 96.9296 98.1247 96.8926 98.0979 96.8464C98.071 96.8002 98.0584 96.7469 98.0616 96.6934V94.3007C98.0598 94.2771 98.064 94.2534 98.0738 94.2319C98.0835 94.2104 98.0984 94.1917 98.1172 94.1777C98.1342 94.1634 98.1556 94.1556 98.1777 94.1556C98.1998 94.1556 98.2213 94.1634 98.2383 94.1777C98.7649 94.4869 99.3355 94.7112 99.9299 94.8424C100.455 94.9824 100.996 95.0528 101.54 95.0517C101.925 95.0728 102.311 95.007 102.669 94.859C102.778 94.8084 102.871 94.7271 102.936 94.6246C103.002 94.5222 103.037 94.4029 103.038 94.2807C103.029 94.1694 102.995 94.0618 102.938 93.9661C102.881 93.8705 102.804 93.7894 102.711 93.7291C102.294 93.4591 101.846 93.2426 101.376 93.0844C100.69 92.8392 100.039 92.504 99.4391 92.0874C99.0116 91.7811 98.6571 91.3814 98.4019 90.9176C98.1808 90.4846 98.0684 90.0029 98.0747 89.5152C98.0767 88.9285 98.2374 88.3537 98.5393 87.8535C98.8862 87.2994 99.3841 86.8595 99.9724 86.5874C100.728 86.2376 101.554 86.0725 102.384 86.1055C102.95 86.1068 103.515 86.1478 104.076 86.2285C104.478 86.2883 104.872 86.4 105.247 86.5608C105.277 86.5709 105.304 86.587 105.328 86.6082C105.351 86.6293 105.371 86.655 105.384 86.6838C105.399 86.7368 105.408 86.7915 105.411 86.8466V89.0898C105.411 89.1165 105.405 89.1429 105.393 89.1666C105.381 89.1904 105.363 89.2108 105.342 89.226C105.302 89.2471 105.259 89.2597 105.215 89.2631C105.17 89.2666 105.125 89.2607 105.083 89.246Z" fill="#31A8FF"/>
</g>
<mask id="mask8_454_103" style="mask-type:luminance" maskUnits="userSpaceOnUse" x="78" y="148" width="33" height="34">
<path d="M110.491 148.161H78V181.161H110.491V148.161Z" fill="white"/>
</mask>
<g mask="url(#mask8_454_103)">
<path d="M78 153.992C78 150.771 80.4238 148.161 83.4162 148.161H105.075C108.067 148.161 110.491 150.771 110.491 153.992V175.33C110.491 178.551 108.067 181.161 105.075 181.161H83.4162C80.4238 181.161 78 178.551 78 175.33V153.992Z" fill="#FF0066"/>
<path d="M89.0566 158.787C89.4249 158.782 89.7835 158.666 90.0873 158.454C90.3911 158.243 90.6265 157.945 90.764 157.598C90.9014 157.25 90.9347 156.87 90.8597 156.503C90.7847 156.137 90.6048 155.801 90.3425 155.539C90.0802 155.276 89.7473 155.098 89.3856 155.027C89.0239 154.956 88.6496 154.995 88.3098 155.139C87.9699 155.283 87.6797 155.527 87.4755 155.838C87.2713 156.15 87.1624 156.515 87.1624 156.889C87.1619 157.141 87.2116 157.39 87.3086 157.622C87.4029 157.854 87.5434 158.064 87.7212 158.239C87.8969 158.416 88.1057 158.555 88.3353 158.648C88.564 158.744 88.8094 158.791 89.0566 158.787ZM85.1252 168.934C85.017 169.402 84.9604 169.88 84.9562 170.36C84.9562 172.03 85.8465 173.139 87.7439 173.139C89.3133 173.139 90.5902 172.192 91.5064 170.66L90.9443 172.944H94.0635L95.8472 165.684C96.2956 163.843 97.1468 162.889 98.466 162.889C99.4992 162.889 100.139 163.549 100.139 164.615C100.143 164.96 100.096 165.304 99.9996 165.634L99.0963 168.971C98.9668 169.431 98.9012 169.908 98.9014 170.387C98.9014 171.971 99.8209 173.132 101.744 173.132C103.388 173.132 104.698 172.06 105.422 169.482L104.181 169.017C103.57 170.743 103.041 171.056 102.622 171.056C102.202 171.056 101.972 170.773 101.972 170.208C101.984 169.911 102.031 169.616 102.111 169.331L103.002 166.077C103.203 165.407 103.307 164.711 103.31 164.011C103.31 161.579 101.861 160.308 100.104 160.308C98.4595 160.308 96.7894 161.813 95.9544 163.4L96.5653 160.552H91.8118L91.1425 163.061H93.3746L92.0003 168.637C90.9216 171.073 88.9429 171.112 88.6927 171.053C88.2866 170.961 88.0266 170.802 88.0266 170.261C88.0364 169.823 88.1019 169.388 88.2216 168.967L90.3237 160.529H85.018L84.3486 163.037H86.5515L85.1252 168.934Z" fill="white"/>
</g>
<mask id="mask9_454_103" style="mask-type:luminance" maskUnits="userSpaceOnUse" x="0" y="148" width="33" height="34">
<path d="M32.7201 148.308H0V181.308H32.7201V148.308Z" fill="white"/>
</mask>
<g mask="url(#mask9_454_103)">
<path d="M25.0505 148.308H7.66958C6.66599 148.304 5.67146 148.501 4.74283 148.888C3.81419 149.274 2.96963 149.843 2.2574 150.561C1.54517 151.279 0.979219 152.133 0.591888 153.073C0.204557 154.013 0.00343098 155.022 0 156.041V173.575C0.00343098 174.594 0.204557 175.603 0.591888 176.543C0.979219 177.484 1.54517 178.337 2.2574 179.055C2.96963 179.773 3.81419 180.342 4.74283 180.729C5.67146 181.115 6.66599 181.312 7.66958 181.308H25.0505C26.0541 181.312 27.0486 181.115 27.9772 180.729C28.9059 180.342 29.7504 179.773 30.4627 179.055C31.1749 178.337 31.7408 177.484 32.1282 176.543C32.5155 175.603 32.7166 174.594 32.7201 173.575V156.041C32.7166 155.022 32.5155 154.013 32.1282 153.073C31.7408 152.133 31.1749 151.279 30.4627 150.561C29.7504 149.843 28.9059 149.274 27.9772 148.888C27.0486 148.501 26.0541 148.304 25.0505 148.308Z" fill="#00005B"/>
<path d="M6.90039 171.853V157.692C6.90039 157.596 6.94293 157.543 7.03781 157.543C7.27013 157.543 7.48935 157.543 7.80019 157.543C8.11103 157.543 8.45459 157.543 8.83742 157.513C9.22024 157.483 9.5998 157.513 10.0252 157.486C10.4505 157.46 10.8562 157.486 11.2652 157.486C12.2184 157.458 13.169 157.602 14.0726 157.912C14.7553 158.147 15.3786 158.531 15.8984 159.038C16.3377 159.483 16.6781 160.018 16.8964 160.607C17.101 161.18 17.2061 161.785 17.2072 162.395C17.2491 163.434 16.9625 164.46 16.3892 165.323C15.8413 166.093 15.0773 166.678 14.197 167.001C13.209 167.339 12.17 167.498 11.1278 167.47C10.8006 167.47 10.5814 167.47 10.4472 167.47C10.3131 167.47 10.12 167.47 9.86156 167.47V171.883C9.86429 171.906 9.86255 171.929 9.85644 171.951C9.85033 171.973 9.83998 171.993 9.82597 172.011C9.81197 172.029 9.7946 172.044 9.77487 172.055C9.75514 172.066 9.73344 172.073 9.71104 172.076H7.06399C6.95601 172.076 6.90039 172.019 6.90039 171.896V171.853ZM9.87464 160.221V164.844C10.0644 164.844 10.2411 164.871 10.4047 164.871H11.1278C11.6599 164.872 12.1888 164.787 12.6951 164.621C13.1299 164.495 13.5188 164.242 13.8141 163.894C14.1176 163.489 14.2674 162.986 14.2362 162.478C14.2457 162.047 14.1321 161.622 13.909 161.255C13.6822 160.897 13.3485 160.622 12.9569 160.471C12.4443 160.269 11.8965 160.175 11.347 160.195C10.9937 160.195 10.6926 160.195 10.4211 160.195C10.2385 160.188 10.0557 160.197 9.87464 160.221ZM19.1704 161.036H21.5721C21.6363 161.037 21.6987 161.058 21.7499 161.098C21.8011 161.137 21.8386 161.192 21.8567 161.255C21.8984 161.362 21.9259 161.473 21.9385 161.587C21.9647 161.727 21.9941 161.876 22.0072 162.013C22.0203 162.149 22.0334 162.345 22.0334 162.508C22.4439 162.026 22.9387 161.626 23.4927 161.328C24.1267 160.972 24.8396 160.787 25.5639 160.79C25.5865 160.786 25.6096 160.788 25.6316 160.794C25.6537 160.8 25.6744 160.81 25.6924 160.825C25.7104 160.839 25.7254 160.857 25.7365 160.877C25.7476 160.897 25.7545 160.92 25.757 160.943V163.678C25.757 163.787 25.6882 163.831 25.5377 163.831C25.0432 163.813 24.5485 163.858 24.0653 163.967C23.6716 164.049 23.2877 164.174 22.9201 164.339C22.6571 164.458 22.421 164.631 22.2265 164.847V171.853C22.2265 171.989 22.1708 172.046 22.0465 172.046H19.3635C19.3383 172.05 19.3125 172.049 19.2877 172.043C19.2628 172.037 19.2395 172.025 19.219 172.01C19.1986 171.994 19.1814 171.975 19.1685 171.952C19.1557 171.93 19.1474 171.905 19.1442 171.879V164.209C19.1442 163.877 19.1442 163.545 19.1442 163.179C19.1442 162.814 19.1442 162.465 19.1148 162.106C19.0853 161.747 19.0886 161.488 19.0624 161.172C19.0586 161.156 19.058 161.139 19.0608 161.123C19.0635 161.106 19.0695 161.09 19.0784 161.077C19.0872 161.063 19.0988 161.051 19.1124 161.041C19.1259 161.032 19.1412 161.025 19.1573 161.022C19.1573 161.022 19.1573 161.006 19.1704 161.022V161.036Z" fill="#9999FF"/>
</g>
<path d="M162.749 151.082L171.465 150.161L180.181 151.085L186.93 160.142L171.465 178.155L156 160.142L162.749 151.082Z" fill="#FDB300"/>
<path d="M162.263 160.142L171.465 178.161L156 160.142H162.263ZM180.667 160.142L171.465 178.161L186.93 160.142H180.667Z" fill="#EA6C00"/>
<path d="M171.466 150.161L162.75 151.082L162.264 160.142L171.466 150.161ZM171.466 150.161L180.182 151.082L180.667 160.142L171.466 150.161Z" fill="#FDD231"/>
<path d="M186.93 160.142L180.181 151.079L180.667 160.142H186.93ZM156 160.142L162.749 151.079L162.263 160.142H156Z" fill="#FDAD00"/>
<path d="M171.466 150.161L162.264 160.142H180.667L171.466 150.161Z" fill="#FEEEB7"/>
<rect x="109" y="219" width="28.5" height="27" rx="7" transform="rotate(90 109 219)" fill="#00FFFF" fill-opacity="0.07"/>
<rect x="187" y="219" width="28.5" height="27" rx="7" transform="rotate(90 187 219)" fill="#00FFFF" fill-opacity="0.07"/>
<rect x="266" y="219" width="28.5" height="27" rx="7" transform="rotate(90 266 219)" fill="#00FFFF" fill-opacity="0.07"/>
<rect x="109" y="291" width="28.5" height="27" rx="7" transform="rotate(90 109 291)" fill="#00FFFF" fill-opacity="0.02"/>
<rect x="31" y="291" width="28.5" height="27" rx="7" transform="rotate(90 31 291)" fill="#00FFFF" fill-opacity="0.02"/>
<rect x="187" y="291" width="28.5" height="27" rx="7" transform="rotate(90 187 291)" fill="#00FFFF" fill-opacity="0.02"/>
<rect x="266" y="291" width="28.5" height="27" rx="7" transform="rotate(90 266 291)" fill="#00FFFF" fill-opacity="0.02"/>
<path d="M6.41436 222C4.65226 222 3.34832 223.567 3.40671 225.267C3.4628 226.9 3.38994 229.015 2.86603 230.74C2.34054 232.469 1.45171 233.565 0 233.706V235.294C1.45171 235.435 2.34054 236.531 2.86603 238.26C3.38994 239.985 3.4628 242.1 3.40671 243.733C3.34832 245.432 4.65226 247 6.4146 247H24.4703C26.2325 247 27.5361 245.433 27.4777 243.733C27.4217 242.1 27.4945 239.985 28.0184 238.26C28.5442 236.531 29.4306 235.435 30.8824 235.294V233.706C29.4306 233.565 28.5442 232.469 28.0185 230.74C27.4945 229.015 27.4217 226.9 27.4777 225.267C27.5361 223.568 26.2325 222 24.4703 222H6.41412H6.41436ZM20.9373 237.389C20.9373 239.73 19.2194 241.149 16.3686 241.149H11.5155C11.3767 241.149 11.2436 241.093 11.1455 240.993C11.0473 240.893 10.9922 240.758 10.9922 240.617V228.383C10.9922 228.313 11.0057 228.244 11.032 228.179C11.0583 228.115 11.0968 228.056 11.1455 228.007C11.1941 227.957 11.2518 227.918 11.3153 227.891C11.3788 227.865 11.4469 227.851 11.5156 227.851H16.3409C18.718 227.851 20.278 229.16 20.278 231.169C20.278 232.579 19.2285 233.841 17.8915 234.062V234.136C19.7117 234.339 20.9373 235.62 20.9373 237.389ZM15.8393 229.537H13.0723V233.509H15.4029C17.2045 233.509 18.198 232.772 18.198 231.454C18.198 230.219 17.3436 229.537 15.8393 229.537ZM13.0723 235.085V239.462H15.9412C17.8168 239.462 18.8106 238.697 18.8106 237.26C18.8106 235.822 17.7892 235.085 15.8206 235.085H13.0723V235.085Z" fill="#7E13F8"/>
</svg>
