<svg width="266" height="529" viewBox="0 0 266 529" fill="none" xmlns="http://www.w3.org/2000/svg">
<mask id="mask0_409_168" style="mask-type:luminance" maskUnits="userSpaceOnUse" x="222" y="2" width="42" height="40">
<path d="M263.561 2.00635H222.272V41.4557H263.561V2.00635Z" fill="white"/>
</mask>
<g mask="url(#mask0_409_168)">
<path d="M256.707 2.00635H229.126C225.34 2.00635 222.272 5.00897 222.272 8.71612V34.6914C222.272 38.3943 225.34 41.4011 229.126 41.4011H256.707C260.489 41.4011 263.561 38.3985 263.561 34.6914V8.71612C263.561 5.00897 260.489 2.00635 256.707 2.00635Z" fill="#49021F"/>
<path d="M237.264 12.3142V29.5751C237.264 29.7554 237.182 29.8477 237.017 29.8477H233.664C233.515 29.8477 233.441 29.7554 233.445 29.5751V12.3142C233.445 12.1674 233.528 12.0961 233.693 12.0961H237.045C237.073 12.09 237.101 12.09 237.128 12.0961C237.155 12.1049 237.181 12.1192 237.202 12.1381C237.223 12.1566 237.24 12.1795 237.252 12.2051C237.258 12.2314 237.258 12.2586 237.252 12.2848L237.264 12.3142ZM247.359 30.1161H247.182C245.904 30.1397 244.636 29.8807 243.466 29.357C242.395 28.8763 241.493 28.0782 240.877 27.0673C240.231 25.9395 239.905 24.652 239.936 23.3476V23.2343C239.925 21.9854 240.251 20.7572 240.877 19.6824C241.516 18.6027 242.433 17.72 243.528 17.1284L243.619 17.0823C244.966 16.3974 246.46 16.0618 247.966 16.1052H248.379H248.503L248.776 16.1304H248.85V10.8213C248.85 10.6954 248.908 10.6325 249.015 10.6325H252.508C252.53 10.6283 252.552 10.6283 252.574 10.6325C252.596 10.6411 252.616 10.6539 252.632 10.6703C252.649 10.6839 252.661 10.7032 252.665 10.7248C252.671 10.7467 252.671 10.77 252.665 10.7919V26.8073C252.665 27.1428 252.665 27.4741 252.706 27.8096L252.731 28.1576L252.756 28.4847V28.7867C252.756 28.8426 252.742 28.8976 252.715 28.946C252.685 28.9961 252.64 29.0346 252.587 29.0551C251.685 29.4244 250.749 29.6971 249.791 29.8686C248.973 30.0166 248.145 30.098 247.314 30.1119L247.359 30.1161ZM248.871 26.7612V19.3553C248.72 19.3144 248.567 19.2864 248.412 19.2714C248.227 19.2714 248.037 19.2462 247.847 19.2462C247.177 19.2349 246.513 19.3783 245.906 19.6656C245.323 19.9507 244.822 20.384 244.453 20.9237C244.048 21.5587 243.85 22.3069 243.887 23.0624C243.872 23.6578 243.971 24.2505 244.18 24.807C244.352 25.2559 244.617 25.6621 244.956 25.9979C245.289 26.3113 245.687 26.5436 246.121 26.6773C246.582 26.8218 247.063 26.8939 247.545 26.8912C247.807 26.8912 248.046 26.8828 248.264 26.866C248.441 26.8537 248.616 26.8242 248.788 26.7779L248.871 26.7612Z" fill="#FF3366"/>
</g>
<mask id="mask1_409_168" style="mask-type:luminance" maskUnits="userSpaceOnUse" x="111" y="2" width="42" height="40">
<path d="M152.906 2.06934H111.617V41.397H152.906V2.06934Z" fill="white"/>
</mask>
<g mask="url(#mask1_409_168)">
<path d="M146.052 2.06934H118.471C114.684 2.06934 111.617 5.06358 111.617 8.75395V34.6495C111.617 38.3441 114.684 41.3341 118.471 41.3341H146.052C149.834 41.3341 152.906 38.3441 152.906 34.6495V8.75395C152.906 5.06358 149.834 2.06934 146.052 2.06934Z" fill="#470137"/>
<path d="M133.322 12.394L128.157 20.689L133.669 29.4956C133.704 29.5581 133.714 29.6313 133.698 29.701C133.698 29.7304 133.669 29.7346 133.64 29.7388H133.57H133.504H129.449C129.235 29.7388 129.082 29.7052 128.987 29.5501C128.62 28.8539 128.252 28.1536 127.88 27.4533C127.546 26.8326 127.207 26.2161 126.857 25.6039L126.704 25.3313C126.291 24.6058 125.878 23.8761 125.465 23.1422H125.436C125.065 23.8719 124.681 24.589 124.288 25.3061C123.896 26.0232 123.5 26.7403 123.112 27.4533C122.723 28.1662 122.327 28.8707 121.922 29.5752C121.893 29.6359 121.846 29.6856 121.788 29.7172C121.729 29.7489 121.662 29.7608 121.596 29.7514H117.723H117.666C117.637 29.7514 117.62 29.7514 117.612 29.701C117.602 29.6351 117.617 29.5678 117.653 29.5123L123 20.949L117.81 12.3688C117.756 12.2975 117.744 12.2388 117.781 12.1927C117.801 12.1699 117.827 12.1526 117.855 12.1424C117.887 12.1361 117.919 12.1361 117.95 12.1424H121.852C121.938 12.1371 122.024 12.1515 122.104 12.1843C122.17 12.2192 122.226 12.2695 122.269 12.3311C122.605 13.0524 122.974 13.7723 123.376 14.4908C123.789 15.2079 124.202 15.9208 124.615 16.6254C125.027 17.3299 125.411 18.0344 125.762 18.7599H125.791C126.155 18.0344 126.526 17.3131 126.914 16.6002C127.302 15.8873 127.678 15.1911 128.075 14.4782C128.471 13.7653 128.851 13.0692 129.227 12.3814C129.247 12.3132 129.285 12.2521 129.338 12.2053C129.406 12.1712 129.481 12.1567 129.557 12.1634H133.186C133.218 12.1528 133.253 12.1528 133.285 12.1634C133.317 12.1756 133.345 12.1976 133.364 12.2263C133.374 12.2576 133.374 12.2914 133.364 12.3227C133.36 12.3568 133.344 12.3881 133.318 12.4108L133.322 12.394ZM141.461 30.091H141.271C139.993 30.114 138.725 29.8565 137.555 29.3362C136.485 28.8557 135.583 28.0593 134.966 27.0507C134.32 25.9291 133.994 24.6469 134.024 23.3477V23.2303C134.014 21.9853 134.339 20.7611 134.966 19.6909C135.604 18.614 136.519 17.734 137.612 17.1454L137.707 17.095C139.056 16.4136 140.549 16.0795 142.055 16.1221H142.311H142.418H142.596H142.794H142.943V10.8549C142.943 10.7291 142.997 10.6662 143.108 10.6662H146.601C146.623 10.662 146.645 10.662 146.667 10.6662C146.689 10.6748 146.708 10.6876 146.725 10.704C146.742 10.7176 146.754 10.7369 146.758 10.7585C146.764 10.7804 146.764 10.8037 146.758 10.8256V26.7907C146.758 27.0591 146.758 27.3484 146.791 27.6587L146.841 28.3591L146.869 28.7784C146.87 28.8357 146.856 28.8922 146.828 28.942C146.797 28.99 146.752 29.0279 146.7 29.051C145.805 29.4083 144.877 29.6724 143.93 29.8394C143.114 29.9884 142.289 30.0725 141.461 30.091ZM142.959 26.7362V19.3554C142.809 19.3146 142.656 19.2865 142.501 19.2715C142.315 19.2715 142.125 19.2464 141.935 19.2464C141.266 19.2351 140.602 19.3785 139.995 19.6657C139.412 19.9514 138.912 20.3847 138.541 20.9238C138.153 21.5318 137.955 22.2456 137.976 22.9703V23.0584C137.96 23.6479 138.058 24.235 138.265 24.7861C138.434 25.2361 138.699 25.6427 139.041 25.9771C139.374 26.2892 139.772 26.5201 140.205 26.6523C140.666 26.7981 141.147 26.8717 141.63 26.8703C141.89 26.8703 142.129 26.8703 142.348 26.841C142.525 26.828 142.7 26.8 142.873 26.7571L142.959 26.7362Z" fill="#FF61F6"/>
</g>
<path d="M14.6487 42.6304C16.4734 42.636 18.2257 41.9054 19.5202 40.5992C20.8148 39.293 21.5457 37.5181 21.5522 35.6648V28.6992H14.6487C12.8298 28.6992 11.0854 29.4331 9.79923 30.7394C8.51308 32.0457 7.79053 33.8174 7.79053 35.6648C7.79053 37.5122 8.51308 39.2839 9.79923 40.5902C11.0854 41.8965 12.8298 42.6304 14.6487 42.6304Z" fill="#0ACF83"/>
<path d="M7.74097 21.7337C7.74421 20.8157 7.92546 19.9073 8.27437 19.0604C8.62327 18.2135 9.13299 17.4447 9.77443 16.7979C10.4159 16.151 11.1765 15.6389 12.0128 15.2906C12.8491 14.9423 13.7448 14.7648 14.6487 14.7681H21.5522V28.6993H14.6487C13.7448 28.7026 12.8491 28.5251 12.0128 28.1768C11.1765 27.8285 10.4159 27.3164 9.77443 26.6696C9.13299 26.0227 8.62327 25.2539 8.27437 24.407C7.92546 23.5601 7.74421 22.6517 7.74097 21.7337Z" fill="#A259FF"/>
<path d="M7.74097 7.80226C7.74862 5.94892 8.48056 4.17452 9.77589 2.86912C11.0712 1.56372 12.8239 0.834179 14.6487 0.840866H21.5522V14.7678H14.6487C13.7448 14.7712 12.8491 14.5936 12.0128 14.2454C11.1765 13.8971 10.4159 13.3849 9.77443 12.7381C9.13299 12.0913 8.62327 11.3225 8.27437 10.4756C7.92546 9.6287 7.74421 8.7203 7.74097 7.80226Z" fill="#F24E1E"/>
<path d="M21.5522 0.840964H28.4599C29.3745 0.818168 30.2842 0.981428 31.1357 1.32113C31.9871 1.66083 32.7631 2.17011 33.4178 2.81899C34.0725 3.46786 34.5928 4.24322 34.9481 5.09942C35.3033 5.95561 35.4864 6.87534 35.4864 7.80446C35.4864 8.73358 35.3033 9.6533 34.9481 10.5095C34.5928 11.3657 34.0725 12.1411 33.4178 12.7899C32.7631 13.4388 31.9871 13.9481 31.1357 14.2878C30.2842 14.6275 29.3745 14.7907 28.4599 14.7679H21.5522V0.840964Z" fill="#FF7262"/>
<path d="M35.3636 21.7337C35.3734 23.1236 34.9765 24.4851 34.2233 25.6456C33.4701 26.806 32.3945 27.7131 31.1329 28.2517C29.8713 28.7903 28.4807 28.9362 27.1373 28.6709C25.794 28.4056 24.5586 27.7409 23.5877 26.7614C22.6169 25.7818 21.9543 24.5314 21.6842 23.1688C21.4141 21.8062 21.5486 20.3928 22.0706 19.108C22.5925 17.8231 23.4785 16.7247 24.6161 15.952C25.7536 15.1794 27.0915 14.7673 28.46 14.7681C30.2847 14.7625 32.037 15.4931 33.3316 16.7993C34.6261 18.1055 35.357 19.8804 35.3636 21.7337Z" fill="#1ABCFE"/>
<mask id="mask2_409_168" style="mask-type:luminance" maskUnits="userSpaceOnUse" x="113" y="223" width="42" height="63">
<path d="M154.945 223H113.655V285.464H154.945V223Z" fill="white"/>
</mask>
<g mask="url(#mask2_409_168)">
<path d="M134.275 285.305L117.474 280.302L113.729 235.246H154.874L151.117 280.293L134.275 285.305Z" fill="#264DE4"/>
<path d="M147.917 277.425L151.121 238.927H134.3V281.476L147.917 277.425Z" fill="#2965F1"/>
<path d="M122.314 255.639L122.776 261.166H134.3V255.639H122.314ZM121.389 244.471L121.859 249.998H134.304V244.471H121.389ZM134.304 270.01L128.569 268.333L128.201 263.925H123.003L123.726 272.602L134.279 275.743L134.304 270.01Z" fill="#EBEBEB"/>
<path d="M123.412 223H129.647V225.797H126.017V228.598H129.647V231.396H123.412V223ZM130.898 223H137.136V225.432H133.507V225.919H137.136V231.517H130.885V228.955H134.515V228.468H130.885L130.898 223ZM138.383 223H144.622V225.432H140.993V225.919H144.622V231.517H138.383V228.955H142.033V228.468H138.4V223H138.383Z" fill="black"/>
<path d="M146.257 255.639L147.186 244.471H134.283V249.998H141.542L141.071 255.656H134.283V261.183H140.625L140.027 268.35L134.283 270.027V275.777L144.845 272.635L144.919 271.7L146.133 257.153L146.257 255.639Z" fill="white"/>
</g>
<mask id="mask3_409_168" style="mask-type:luminance" maskUnits="userSpaceOnUse" x="3" y="225" width="42" height="59">
<path d="M44.2893 225.403H3V283.061H44.2893V225.403Z" fill="white"/>
</mask>
<g mask="url(#mask3_409_168)">
<path d="M44.2192 236.705L40.4619 278.289L23.6117 282.902L6.8111 278.289L3.06616 236.697L44.2192 236.705Z" fill="#E44D26"/>
<path d="M23.6448 279.379L37.2702 275.643L40.4619 240.106H23.6448V279.379Z" fill="#F16529"/>
<path d="M16.3572 250.309H23.6448V245.206H10.7336L10.8575 246.577L12.1251 260.634H23.6489V255.53H16.8362L16.3572 250.309ZM17.5216 263.184H12.3481L13.0706 271.193L23.6242 274.095H23.6448V268.795H23.6242L17.885 267.26L17.5216 263.184Z" fill="#EBEBEB"/>
<path d="M6.90186 225.403H9.5196V227.966H11.9144V225.403H14.5321V233.149H11.9144V230.553H9.5196V233.149H6.90186V225.403ZM17.9756 227.974H15.6882V225.403H22.9138V227.974H20.6099V233.149H17.9922V227.974H17.9756ZM24.0452 225.403H26.7744L28.4549 228.129L30.1312 225.403H32.8604V233.149H30.2551V229.308L28.4549 232.063H28.4094L26.6051 229.308V233.149H24.0452V225.403ZM34.1652 225.403H36.7829V230.595H40.4618V233.149H34.1652V225.403Z" fill="black"/>
<path d="M23.6282 260.634H29.9702L29.3715 267.247L23.6282 268.795V274.104L34.19 271.206L34.2643 270.342L35.4782 256.922L35.6021 255.551H23.6282V260.634ZM23.6282 250.297H36.0686L36.1719 249.147L36.4072 246.564L36.5311 245.193H23.6282V250.297Z" fill="white"/>
</g>
<mask id="mask4_409_168" style="mask-type:luminance" maskUnits="userSpaceOnUse" x="224" y="233" width="42" height="43">
<path d="M265.6 233.409H224.311V275.051H265.6V233.409Z" fill="white"/>
</mask>
<g mask="url(#mask4_409_168)">
<path d="M255.926 233.409H233.989C232.722 233.404 231.467 233.653 230.295 234.142C229.123 234.63 228.058 235.348 227.159 236.254C226.26 237.161 225.546 238.238 225.057 239.425C224.569 240.612 224.315 241.885 224.311 243.171V265.293C224.315 266.579 224.569 267.852 225.057 269.039C225.546 270.226 226.26 271.303 227.159 272.21C228.058 273.117 229.123 273.834 230.295 274.323C231.467 274.811 232.722 275.06 233.989 275.056H255.926C257.192 275.06 258.447 274.811 259.619 274.323C260.79 273.834 261.856 273.116 262.754 272.21C263.653 271.303 264.366 270.226 264.854 269.039C265.343 267.852 265.596 266.579 265.6 265.293V243.171C265.596 241.885 265.343 240.612 264.854 239.425C264.366 238.239 263.653 237.161 262.754 236.255C261.856 235.348 260.79 234.63 259.619 234.142C258.447 233.653 257.192 233.404 255.926 233.409Z" fill="#F7DF1E"/>
<path d="M235.17 268.212L238.328 266.282C238.939 267.373 239.493 268.295 240.806 268.295C242.119 268.295 242.87 267.792 242.87 265.834V252.527H246.747V265.888C246.747 269.944 244.394 271.789 240.967 271.789C237.866 271.789 236.061 270.166 235.149 268.212M248.869 267.792L252.028 265.947C252.854 267.314 253.94 268.321 255.851 268.321C257.462 268.321 258.486 267.511 258.486 266.392C258.486 265.054 257.433 264.576 255.657 263.796L254.687 263.376C251.888 262.173 250.034 260.663 250.034 257.476C250.034 254.54 252.251 252.305 255.715 252.305C258.192 252.305 259.956 253.173 261.231 255.438L258.209 257.392C257.544 256.193 256.822 255.715 255.732 255.715C254.642 255.715 253.874 256.444 253.874 257.392C253.874 258.566 254.596 259.04 256.256 259.77L257.226 260.189C260.529 261.615 262.383 263.066 262.383 266.337C262.383 269.86 259.638 271.789 255.95 271.789C252.354 271.789 250.025 270.053 248.89 267.792H248.869Z" fill="black"/>
</g>
<mask id="mask5_409_168" style="mask-type:luminance" maskUnits="userSpaceOnUse" x="222" y="75" width="42" height="42">
<path d="M263.508 75H222.218V116.643H263.508V75Z" fill="white"/>
</mask>
<g mask="url(#mask5_409_168)">
<path d="M256.654 75H229.073C228.165 75.0077 227.268 75.1969 226.432 75.5568C225.596 75.9167 224.838 76.4403 224.202 77.0976C223.566 77.7549 223.063 78.5331 222.722 79.3878C222.382 80.2425 222.211 81.1569 222.219 82.0788V109.497C222.211 110.419 222.382 111.333 222.722 112.188C223.063 113.042 223.566 113.821 224.202 114.478C224.838 115.135 225.596 115.659 226.432 116.019C227.268 116.379 228.165 116.568 229.073 116.575H256.654C257.561 116.568 258.459 116.379 259.294 116.019C260.13 115.659 260.888 115.135 261.524 114.478C262.161 113.821 262.664 113.042 263.004 112.188C263.344 111.333 263.515 110.419 263.508 109.497V82.0788C263.515 81.1569 263.344 80.2425 263.004 79.3878C262.664 78.5331 262.161 77.7549 261.524 77.0976C260.888 76.4403 260.13 75.9167 259.294 75.5568C258.459 75.1969 257.561 75.0077 256.654 75Z" fill="#00005B"/>
<path d="M238.812 99.8724H232.408L231.104 104.066C231.09 104.138 231.052 104.203 230.996 104.251C230.94 104.298 230.871 104.325 230.798 104.326H227.532C227.346 104.326 227.284 104.221 227.338 104.011L232.879 87.6019L232.933 87.43V87.3712L232.97 87.2454C232.97 87.1825 233.007 87.1154 233.024 87.0399C233.098 86.6587 233.135 86.2711 233.135 85.8825C233.129 85.8563 233.129 85.829 233.135 85.8028C233.143 85.7761 233.157 85.7516 233.176 85.7315C233.195 85.7129 233.218 85.6986 233.243 85.6896C233.269 85.6855 233.295 85.6855 233.321 85.6896H237.727C237.855 85.6896 237.929 85.7399 237.945 85.8364L244.234 104.045C244.287 104.238 244.234 104.334 244.069 104.334H240.468C240.406 104.338 240.344 104.322 240.291 104.288C240.24 104.251 240.205 104.195 240.192 104.133L238.812 99.8724ZM233.404 96.3456H237.78L237.718 96.1317L237.619 95.7962L237.471 95.3139L237.19 94.4039L236.921 93.5275L236.422 91.8961C236.286 91.4474 236.153 90.9945 236.009 90.5416L235.869 90.0258L235.716 89.4597L235.575 88.9355H235.551C235.41 89.6232 235.241 90.3026 235.043 90.9735L234.857 91.5942L234.407 93.0913L234.176 93.8588C234.134 93.9971 234.097 94.1313 234.056 94.2781L233.932 94.6765L233.808 95.0665L233.688 95.4481L233.569 95.8214C233.523 95.9891 233.466 96.1778 233.404 96.3456ZM254.461 98.2453H248.999C249.065 98.8024 249.245 99.3393 249.527 99.8221C249.83 100.293 250.26 100.666 250.766 100.896C251.458 101.205 252.21 101.357 252.966 101.34C253.567 101.328 254.165 101.26 254.754 101.139C255.281 101.062 255.797 100.921 256.29 100.719C256.381 100.644 256.426 100.69 256.426 100.862V103.58C256.434 103.653 256.419 103.728 256.385 103.793C256.355 103.846 256.312 103.891 256.261 103.923C255.715 104.174 255.139 104.351 254.548 104.452C253.744 104.607 252.926 104.678 252.108 104.666C251.008 104.698 249.914 104.497 248.895 104.074L248.813 104.037C247.974 103.656 247.235 103.081 246.653 102.359C246.108 101.669 245.703 100.877 245.46 100.028C245.221 99.1851 245.1 98.3126 245.101 97.4359C245.093 96.4804 245.233 95.5296 245.514 94.6178C245.79 93.7336 246.227 92.91 246.802 92.1897C247.363 91.4861 248.067 90.914 248.866 90.5122C249.774 90.1009 250.764 89.9099 251.757 89.9545C252.676 89.9326 253.588 90.1188 254.428 90.4997C255.137 90.8127 255.76 91.298 256.241 91.9129C256.695 92.5204 257.043 93.2027 257.269 93.9301C257.488 94.6342 257.599 95.3682 257.599 96.1065C257.599 96.5259 257.599 96.9075 257.558 97.2514L257.533 97.5449L257.508 97.8217V97.9643V97.9936C257.502 98.0569 257.473 98.1155 257.426 98.1572C257.38 98.1984 257.321 98.2208 257.261 98.2201H257.017H256.843H256.691H256.563H256.426H256.282H256.125H255.712C255.53 98.2234 255.348 98.2164 255.167 98.1991H254.886C254.746 98.2746 254.601 98.2453 254.457 98.2453H254.461ZM249.003 95.641H253.458H253.615C253.762 95.6309 253.904 95.5833 254.028 95.5027V95.3391C254.023 95.1155 253.987 94.8937 253.92 94.6807C253.772 94.1934 253.47 93.7691 253.061 93.4729C252.658 93.1803 252.17 93.0328 251.674 93.0536C251.208 93.0234 250.744 93.1343 250.34 93.3723C249.932 93.6114 249.602 93.9672 249.391 94.3955C249.197 94.7876 249.065 95.2078 248.999 95.641H249.003Z" fill="#9999FF"/>
</g>
<mask id="mask6_409_168" style="mask-type:luminance" maskUnits="userSpaceOnUse" x="0" y="75" width="43" height="42">
<path d="M42.197 75H0.907715V116.643H42.197V75Z" fill="white"/>
</mask>
<g mask="url(#mask6_409_168)">
<path d="M35.3432 75H7.76198C6.8543 75.0077 5.95699 75.1969 5.1213 75.5568C4.28561 75.9167 3.5279 76.4403 2.89144 77.0976C2.25498 77.7549 1.75223 78.5331 1.41191 79.3878C1.07158 80.2425 0.900336 81.1569 0.907959 82.0788V109.497C0.900336 110.419 1.07158 111.333 1.41191 112.188C1.75223 113.042 2.25498 113.821 2.89144 114.478C3.5279 115.135 4.28561 115.659 5.1213 116.019C5.95699 116.379 6.8543 116.568 7.76198 116.575H35.3432C36.2509 116.568 37.1482 116.379 37.9839 116.019C38.8196 115.659 39.5773 115.135 40.2138 114.478C40.8502 113.821 41.353 113.042 41.6933 112.188C42.0336 111.333 42.2049 110.419 42.1972 109.497V82.0788C42.2049 81.1569 42.0336 80.2425 41.6933 79.3878C41.353 78.5331 40.8502 77.7549 40.2138 77.0976C39.5773 76.4403 38.8196 75.9167 37.9839 75.5568C37.1482 75.1969 36.2509 75.0077 35.3432 75Z" fill="#330000"/>
<path d="M20.9166 99.9522H14.5167L13.2161 104.146C13.2005 104.222 13.1586 104.29 13.0981 104.338C13.0376 104.385 12.9623 104.409 12.8858 104.406H9.65697C9.47117 104.406 9.40511 104.301 9.46291 104.091L14.9998 87.6146C15.0576 87.4426 15.1113 87.2455 15.1691 87.0275C15.2398 86.6458 15.2757 86.2584 15.2764 85.87C15.2724 85.8422 15.2724 85.814 15.2764 85.7862C15.2853 85.761 15.2994 85.7381 15.3177 85.7191C15.336 85.6998 15.3587 85.6854 15.3838 85.6771C15.4096 85.6712 15.4364 85.6712 15.4622 85.6771H19.8678C19.9958 85.6771 20.0701 85.7233 20.0908 85.8197L26.3791 104.129C26.4328 104.318 26.3791 104.414 26.2098 104.414H22.6094C22.5479 104.423 22.4856 104.406 22.436 104.368C22.3841 104.331 22.3474 104.276 22.3328 104.213L20.9166 99.9522ZM15.5159 96.3457H19.8926L19.8307 96.1318L19.7274 95.7963L19.6572 95.5615L19.5458 95.1882L19.3022 94.404L19.0874 93.7079L18.5342 91.8963C18.3979 91.4475 18.2658 90.9946 18.1213 90.5417L18.0181 90.1727L17.9024 89.7533L17.7208 89.0782L17.6877 88.9482H17.6588C17.524 89.6359 17.356 90.3153 17.1551 90.9862L16.7422 92.3534L16.5151 93.1082L16.288 93.8714L16.1642 94.2908L16.0403 94.6892L15.9206 95.0792L15.8008 95.4608L15.677 95.8341C15.6398 95.9557 15.5985 96.0731 15.5572 96.1947L15.5159 96.3457ZM30.1117 88.6798C29.8292 88.6923 29.5474 88.6422 29.2859 88.533C29.0224 88.4241 28.7846 88.2597 28.5881 88.0507C28.3923 87.8311 28.2408 87.5747 28.1422 87.2959C28.0396 87.0159 27.9932 86.7179 28.0059 86.4194C27.9975 86.1242 28.0481 85.8303 28.1546 85.5555C28.2692 85.2892 28.4381 85.0505 28.65 84.8552C29.0446 84.4616 29.5751 84.2403 30.1282 84.2387H30.186C30.4752 84.2233 30.7643 84.2699 31.0346 84.3753C31.3049 84.4808 31.5504 84.6429 31.755 84.851C32.0227 85.1934 32.201 85.599 32.2731 86.0301C32.3453 86.4611 32.3091 86.9038 32.1679 87.3168C32.0648 87.5963 31.9092 87.8527 31.7096 88.0717C31.509 88.2775 31.2686 88.4388 31.0035 88.5456C30.7416 88.6542 30.4606 88.707 30.1777 88.7007L30.1117 88.6798ZM28.2 104.1V90.4243C28.2 90.2524 28.2743 90.1685 28.423 90.1685H31.8293C31.978 90.1685 32.0523 90.2524 32.0523 90.4243V104.1C32.0523 104.288 31.978 104.385 31.8293 104.385H28.4519C28.418 104.388 28.3838 104.384 28.3518 104.372C28.3198 104.36 28.2908 104.342 28.2667 104.317C28.2426 104.293 28.2242 104.263 28.2127 104.231C28.2011 104.198 28.1968 104.163 28.2 104.129V104.1Z" fill="#FF9A00"/>
</g>
<mask id="mask7_409_168" style="mask-type:luminance" maskUnits="userSpaceOnUse" x="111" y="75" width="42" height="42">
<path d="M152.852 75H111.563V116.643H152.852V75Z" fill="white"/>
</mask>
<g mask="url(#mask7_409_168)">
<path d="M143.174 75.0001H121.241C119.975 74.9951 118.72 75.2436 117.548 75.7314C116.376 76.2192 115.31 76.9367 114.412 77.8429C113.513 78.7491 112.799 79.8263 112.31 81.0129C111.821 82.1995 111.567 83.4723 111.563 84.7586V106.884C111.567 108.17 111.821 109.443 112.31 110.63C112.799 111.816 113.513 112.894 114.412 113.8C115.31 114.706 116.376 115.424 117.548 115.911C118.72 116.399 119.975 116.648 121.241 116.643H143.174C144.44 116.648 145.695 116.399 146.867 115.911C148.039 115.424 149.105 114.706 150.004 113.8C150.902 112.894 151.617 111.816 152.105 110.63C152.594 109.443 152.848 108.17 152.852 106.884V84.7586C152.848 83.4723 152.594 82.1995 152.105 81.0129C151.617 79.8263 150.902 78.7491 150.004 77.8429C149.105 76.9367 148.039 76.2192 146.867 75.7314C145.695 75.2436 144.44 74.9951 143.174 75.0001Z" fill="#001E36"/>
<path d="M120.853 103.961V86.1133C120.853 85.9917 120.907 85.9246 121.026 85.9246C121.32 85.9246 121.592 85.9246 121.988 85.9246C122.385 85.9246 122.814 85.9246 123.297 85.8868C123.78 85.8491 124.259 85.8868 124.792 85.8533C125.325 85.8197 125.845 85.8533 126.361 85.8533C127.564 85.8179 128.763 85.9997 129.904 86.3901C130.766 86.6866 131.553 87.1736 132.208 87.8159C132.756 88.3761 133.178 89.0499 133.446 89.7911C133.713 90.5127 133.853 91.2764 133.859 92.0472C133.912 93.3591 133.55 94.6537 132.827 95.7418C132.135 96.7155 131.169 97.4538 130.056 97.8596C128.811 98.2868 127.501 98.487 126.188 98.4509C125.775 98.4509 125.498 98.4509 125.329 98.4509C125.159 98.4509 124.916 98.4509 124.586 98.4509V104.02C124.59 104.049 124.589 104.078 124.582 104.106C124.575 104.134 124.562 104.16 124.545 104.183C124.528 104.206 124.506 104.225 124.481 104.238C124.456 104.252 124.428 104.261 124.4 104.263H121.059C120.923 104.188 120.853 104.116 120.853 103.961ZM124.606 89.2627V95.096C124.846 95.096 125.069 95.1296 125.275 95.1296H126.188C126.859 95.1302 127.526 95.0241 128.165 94.815C128.714 94.654 129.204 94.335 129.577 93.8966C129.96 93.3854 130.149 92.7513 130.11 92.1102C130.122 91.566 129.979 91.03 129.697 90.5669C129.41 90.1145 128.987 89.7676 128.492 89.5772C127.846 89.322 127.156 89.2036 126.464 89.2291C126.014 89.2291 125.638 89.2291 125.292 89.2291C125.063 89.2207 124.833 89.2319 124.606 89.2627ZM144.594 94.035C144.074 93.7601 143.518 93.5624 142.943 93.4479C142.311 93.3013 141.666 93.2254 141.019 93.2215C140.671 93.2089 140.323 93.2499 139.986 93.3431C139.772 93.3866 139.581 93.5091 139.45 93.687C139.365 93.8291 139.319 93.9908 139.313 94.1566C139.322 94.3226 139.383 94.4813 139.487 94.6096C139.649 94.8025 139.846 94.9608 140.069 95.075C140.482 95.2847 140.895 95.4944 141.308 95.6496C142.236 95.9633 143.126 96.3855 143.959 96.9076C144.521 97.2657 144.988 97.7599 145.317 98.3461C145.599 98.8987 145.741 99.5142 145.73 100.137C145.744 100.957 145.509 101.763 145.057 102.443C144.577 103.136 143.908 103.673 143.133 103.986C142.142 104.383 141.084 104.573 140.02 104.544C139.234 104.547 138.45 104.471 137.678 104.318C137.072 104.212 136.481 104.025 135.924 103.76C135.863 103.731 135.813 103.684 135.779 103.626C135.746 103.568 135.73 103.5 135.734 103.433V100.414C135.731 100.384 135.737 100.354 135.749 100.327C135.761 100.3 135.78 100.276 135.804 100.258C135.825 100.24 135.852 100.23 135.88 100.23C135.908 100.23 135.935 100.24 135.957 100.258C136.621 100.649 137.341 100.932 138.091 101.097C138.754 101.274 139.437 101.363 140.123 101.361C140.609 101.388 141.096 101.305 141.547 101.118C141.685 101.054 141.803 100.952 141.885 100.822C141.968 100.693 142.012 100.542 142.014 100.388C142.002 100.248 141.959 100.112 141.887 99.9914C141.816 99.8707 141.718 99.7683 141.601 99.6922C141.074 99.3516 140.509 99.0783 139.916 98.8786C139.051 98.5693 138.229 98.1463 137.472 97.6206C136.932 97.2341 136.485 96.7297 136.163 96.1444C135.884 95.5981 135.742 94.9901 135.75 94.3747C135.753 93.6344 135.956 92.909 136.337 92.2779C136.774 91.5786 137.403 91.0236 138.145 90.6801C139.099 90.2387 140.141 90.0304 141.188 90.0721C141.902 90.0736 142.615 90.1255 143.323 90.2272C143.831 90.3027 144.328 90.4436 144.801 90.6466C144.838 90.6594 144.873 90.6797 144.903 90.7064C144.933 90.733 144.957 90.7654 144.974 90.8017C144.993 90.8687 145.004 90.9377 145.007 91.0072V93.8379C145.008 93.8716 145 93.9049 144.985 93.9349C144.97 93.9649 144.948 93.9906 144.921 94.0099C144.871 94.0364 144.816 94.0523 144.76 94.0566C144.704 94.061 144.648 94.0536 144.594 94.035Z" fill="#31A8FF"/>
</g>
<mask id="mask8_409_168" style="mask-type:luminance" maskUnits="userSpaceOnUse" x="110" y="149" width="42" height="42">
<path d="M151.945 149H110.655V190.936H151.945V149Z" fill="white"/>
</mask>
<g mask="url(#mask8_409_168)">
<path d="M110.655 156.41C110.655 152.317 113.735 149 117.538 149H145.062C148.864 149 151.945 152.317 151.945 156.41V183.526C151.945 187.619 148.864 190.936 145.062 190.936H117.538C113.735 190.936 110.655 187.619 110.655 183.526V156.41Z" fill="#FF0066"/>
<path d="M124.706 162.504C125.174 162.497 125.63 162.35 126.016 162.081C126.402 161.812 126.701 161.433 126.876 160.992C127.05 160.551 127.093 160.067 126.997 159.602C126.902 159.136 126.673 158.71 126.34 158.376C126.007 158.042 125.584 157.815 125.124 157.725C124.664 157.635 124.189 157.684 123.757 157.868C123.325 158.051 122.956 158.36 122.697 158.756C122.437 159.152 122.299 159.617 122.299 160.092C122.298 160.412 122.361 160.729 122.485 161.023C122.604 161.318 122.783 161.585 123.009 161.807C123.232 162.032 123.498 162.209 123.789 162.327C124.08 162.449 124.392 162.508 124.706 162.504ZM119.71 175.399C119.573 175.993 119.501 176.6 119.495 177.211C119.495 179.333 120.627 180.742 123.038 180.742C125.032 180.742 126.655 179.538 127.819 177.592L127.105 180.494H131.069L133.335 171.268C133.905 168.928 134.987 167.716 136.663 167.716C137.976 167.716 138.79 168.555 138.79 169.909C138.795 170.348 138.735 170.785 138.612 171.205L137.464 175.445C137.3 176.03 137.216 176.636 137.217 177.244C137.217 179.257 138.385 180.733 140.829 180.733C142.919 180.733 144.583 179.37 145.503 176.095L143.926 175.504C143.15 177.697 142.477 178.095 141.944 178.095C141.412 178.095 141.118 177.735 141.118 177.018C141.134 176.64 141.193 176.265 141.296 175.902L142.427 171.767C142.683 170.916 142.815 170.032 142.82 169.142C142.82 166.051 140.978 164.437 138.744 164.437C136.655 164.437 134.533 166.349 133.472 168.366L134.248 164.747H128.207L127.357 167.934H130.193L128.447 175.021C127.076 178.116 124.561 178.167 124.244 178.091C123.727 177.974 123.397 177.773 123.397 177.085C123.41 176.528 123.493 175.976 123.645 175.441L126.316 164.718H119.574L118.723 167.905H121.523L119.71 175.399Z" fill="white"/>
</g>
<mask id="mask9_409_168" style="mask-type:luminance" maskUnits="userSpaceOnUse" x="0" y="149" width="42" height="42">
<path d="M41.2893 149.147H0V190.79H41.2893V149.147Z" fill="white"/>
</mask>
<g mask="url(#mask9_409_168)">
<path d="M31.6111 149.147H9.67821C8.41178 149.142 7.1568 149.391 5.98495 149.878C4.8131 150.366 3.74736 151.084 2.8486 151.99C1.94984 152.896 1.23567 153.973 0.7469 155.16C0.258129 156.346 0.00432954 157.619 0 158.906V181.031C0.00432954 182.317 0.258129 183.59 0.7469 184.777C1.23567 185.963 1.94984 187.041 2.8486 187.947C3.74736 188.853 4.8131 189.571 5.98495 190.058C7.1568 190.546 8.41178 190.795 9.67821 190.79H31.6111C32.8775 190.795 34.1325 190.546 35.3043 190.058C36.4762 189.571 37.5419 188.853 38.4407 187.947C39.3395 187.041 40.0536 185.963 40.5424 184.777C41.0312 183.59 41.285 182.317 41.2893 181.031V158.906C41.285 157.619 41.0312 156.346 40.5424 155.16C40.0536 153.973 39.3395 152.896 38.4407 151.99C37.5419 151.084 36.4762 150.366 35.3043 149.878C34.1325 149.391 32.8775 149.142 31.6111 149.147Z" fill="#00005B"/>
<path d="M8.70801 178.859V160.99C8.70801 160.868 8.76168 160.801 8.88142 160.801C9.17458 160.801 9.45122 160.801 9.84346 160.801C10.2357 160.801 10.6692 160.801 11.1523 160.763C11.6354 160.726 12.1144 160.763 12.6511 160.73C13.1879 160.696 13.6999 160.73 14.216 160.73C15.4188 160.694 16.6183 160.876 17.7586 161.267C18.6201 161.563 19.4067 162.048 20.0626 162.688C20.617 163.249 21.0464 163.924 21.3219 164.668C21.5801 165.391 21.7128 166.154 21.7141 166.924C21.767 168.236 21.4053 169.53 20.6819 170.618C19.9905 171.591 19.0264 172.329 17.9155 172.736C16.6688 173.163 15.3578 173.363 14.0426 173.327C13.6297 173.327 13.3531 173.327 13.1838 173.327C13.0145 173.327 12.7709 173.327 12.4447 173.327V178.896C12.4481 178.925 12.4459 178.954 12.4382 178.982C12.4305 179.01 12.4175 179.036 12.3998 179.058C12.3821 179.081 12.3602 179.1 12.3353 179.114C12.3104 179.128 12.283 179.137 12.2548 179.14H8.91445C8.7782 179.14 8.70801 179.068 8.70801 178.913V178.859ZM12.4612 164.181V170.014C12.7007 170.014 12.9236 170.048 13.1301 170.048H14.0426C14.714 170.049 15.3814 169.943 16.0203 169.733C16.569 169.573 17.0598 169.254 17.4324 168.815C17.8154 168.304 18.0044 167.67 17.9651 167.029C17.977 166.484 17.8336 165.948 17.5522 165.485C17.2659 165.034 16.8449 164.687 16.3507 164.496C15.7038 164.241 15.0126 164.122 14.3192 164.148C13.8733 164.148 13.4934 164.148 13.1507 164.148C12.9204 164.139 12.6897 164.15 12.4612 164.181ZM24.1915 165.209H27.2221C27.3033 165.21 27.3819 165.237 27.4465 165.287C27.5112 165.337 27.5584 165.406 27.5813 165.485C27.634 165.62 27.6687 165.761 27.6846 165.905C27.7176 166.081 27.7548 166.27 27.7713 166.441C27.7878 166.613 27.8043 166.861 27.8043 167.066C28.3223 166.459 28.9467 165.954 29.6458 165.578C30.4459 165.129 31.3455 164.895 32.2594 164.898C32.288 164.894 32.317 164.896 32.3449 164.903C32.3727 164.911 32.3988 164.924 32.4215 164.942C32.4443 164.96 32.4632 164.983 32.4772 165.008C32.4912 165.034 32.5 165.062 32.503 165.091V168.542C32.503 168.681 32.4163 168.735 32.2264 168.735C31.6024 168.713 30.9781 168.77 30.3684 168.907C29.8715 169.011 29.3871 169.168 28.9232 169.377C28.5913 169.528 28.2933 169.746 28.0479 170.019V178.859C28.0479 179.031 27.9777 179.102 27.8208 179.102H24.4351C24.4033 179.107 24.3708 179.106 24.3394 179.098C24.3081 179.091 24.2787 179.076 24.2528 179.057C24.227 179.037 24.2053 179.013 24.1891 178.984C24.1729 178.956 24.1625 178.925 24.1585 178.892V169.213C24.1585 168.794 24.1585 168.375 24.1585 167.913C24.1585 167.452 24.1585 167.012 24.1213 166.559C24.0841 166.106 24.0883 165.779 24.0552 165.38C24.0504 165.36 24.0497 165.339 24.0531 165.318C24.0566 165.297 24.0642 165.278 24.0753 165.26C24.0865 165.242 24.1011 165.227 24.1183 165.216C24.1354 165.204 24.1547 165.196 24.175 165.192C24.175 165.192 24.175 165.171 24.1915 165.192V165.209Z" fill="#9999FF"/>
</g>
<path d="M228.009 152.229L239.645 151L251.28 152.233L260.289 164.323L239.645 188.369L219 164.323L228.009 152.229Z" fill="#FDB300"/>
<path d="M227.361 164.323L239.645 188.378L219 164.323H227.361ZM251.928 164.323L239.645 188.378L260.289 164.323H251.928Z" fill="#EA6C00"/>
<path d="M239.645 151L228.009 152.229L227.361 164.323L239.645 151ZM239.645 151L251.28 152.229L251.928 164.323L239.645 151Z" fill="#FDD231"/>
<path d="M260.289 164.323L251.28 152.225L251.928 164.323H260.289ZM219 164.323L228.009 152.225L227.361 164.323H219Z" fill="#FDAD00"/>
<path d="M239.645 151L227.361 164.323H251.928L239.645 151Z" fill="#FEEEB7"/>
<g opacity="0.11">
<rect x="264" y="329" width="42" height="40" rx="7" transform="rotate(90 264 329)" fill="#8F00FF"/>
<rect x="154" y="329" width="42" height="40" rx="7" transform="rotate(90 154 329)" fill="#8F00FF"/>
<g opacity="0.32">
<rect x="264" y="408" width="42" height="40" rx="7" transform="rotate(90 264 408)" fill="#8F00FF"/>
<rect x="154" y="408" width="42" height="40" rx="7" transform="rotate(90 154 408)" fill="#8F00FF"/>
<rect x="41" y="408" width="42" height="40" rx="7" transform="rotate(90 41 408)" fill="#8F00FF"/>
</g>
<g opacity="0.32">
<rect opacity="0.16" x="264" y="487" width="42" height="40" rx="7" transform="rotate(90 264 487)" fill="#8F00FF"/>
<rect opacity="0.42" x="154" y="487" width="42" height="40" rx="7" transform="rotate(90 154 487)" fill="#8F00FF"/>
<rect opacity="0.71" x="41" y="487" width="42" height="40" rx="7" transform="rotate(90 41 487)" fill="#8F00FF"/>
</g>
</g>
<path d="M8.72353 333C6.32707 333 4.55372 335.132 4.63312 337.443C4.70941 339.664 4.61032 342.54 3.8978 344.886C3.18314 347.238 1.97433 348.729 0 348.92V351.08C1.97433 351.271 3.18314 352.762 3.8978 355.114C4.61032 357.46 4.70941 360.336 4.63312 362.557C4.55372 364.868 6.32707 367 8.72386 367H33.2796C35.6762 367 37.4491 364.868 37.3697 362.557C37.2935 360.336 37.3925 357.46 38.105 355.114C38.8201 352.762 40.0257 351.271 42 351.08V348.92C40.0257 348.729 38.8201 347.238 38.1052 344.886C37.3925 342.541 37.2935 339.664 37.3697 337.443C37.4491 335.132 35.6762 333 33.2796 333H8.7232H8.72353ZM28.4747 353.929C28.4747 357.112 26.1384 359.043 22.2613 359.043H15.6611C15.4723 359.042 15.2913 358.966 15.1578 358.831C15.0244 358.695 14.9494 358.511 14.9494 358.319V341.681C14.9494 341.586 14.9678 341.492 15.0035 341.404C15.0393 341.316 15.0917 341.236 15.1578 341.169C15.2239 341.102 15.3024 341.049 15.3888 341.012C15.4752 340.976 15.5677 340.957 15.6612 340.957H22.2236C25.4564 340.957 27.5781 342.737 27.5781 345.469C27.5781 347.387 26.1507 349.104 24.3324 349.405V349.505C26.808 349.781 28.4747 351.523 28.4747 353.929ZM21.5414 343.251H17.7783V348.652H20.948C23.3981 348.652 24.7493 347.65 24.7493 345.857C24.7493 344.178 23.5873 343.251 21.5414 343.251ZM17.7783 350.796V356.749H21.68C24.2309 356.749 25.5824 355.708 25.5824 353.753C25.5824 351.798 24.1933 350.795 21.516 350.795H17.7783V350.796Z" fill="#7E13F8"/>
</svg>
