<svg width="64" height="70" viewBox="0 0 64 70" fill="none" xmlns="http://www.w3.org/2000/svg">
<path d="M57.7532 36.5375C56.5853 35.8917 55.35 35.3761 54.0696 35C55.35 34.6239 56.5853 34.1083 57.7532 33.4625C60.4037 31.9334 62.3382 29.4139 63.1311 26.4585C63.924 23.503 63.5104 20.3536 61.9813 17.7031C60.4522 15.0526 57.9327 13.1181 54.9773 12.3252C52.0218 11.5323 48.8724 11.9459 46.2219 13.475C45.0829 14.1614 44.0199 14.9667 43.0508 15.8773C43.3498 14.5847 43.5108 13.2641 43.5313 11.9375C43.5313 8.87922 42.3164 5.9462 40.1539 3.78367C37.9913 1.62115 35.0583 0.40625 32 0.40625C28.9418 0.40625 26.0087 1.62115 23.8462 3.78367C21.6837 5.9462 20.4688 8.87922 20.4688 11.9375C20.4893 13.2641 20.6503 14.5847 20.9493 15.8773C19.9802 14.9667 18.9172 14.1614 17.7782 13.475C15.1277 11.9459 11.9783 11.5323 9.0228 12.3252C6.06734 13.1181 3.54793 15.0526 2.01879 17.7031C0.489649 20.3536 0.0760489 23.503 0.868976 26.4585C1.6619 29.4139 3.5964 31.9334 6.24691 33.4625C7.41478 34.1083 8.65005 34.6239 9.9305 35C8.65005 35.3761 7.41478 35.8917 6.24691 36.5375C3.5964 38.0666 1.6619 40.5861 0.868976 43.5415C0.0760489 46.497 0.489649 49.6464 2.01879 52.2969C3.54793 54.9474 6.06734 56.8819 9.0228 57.6748C11.9783 58.4677 15.1277 58.0541 17.7782 56.525C18.9172 55.8386 19.9802 55.0333 20.9493 54.1227C20.6503 55.4153 20.4893 56.7359 20.4688 58.0625C20.4688 61.1208 21.6837 64.0538 23.8462 66.2163C26.0087 68.3789 28.9418 69.5938 32 69.5938C35.0583 69.5938 37.9913 68.3789 40.1539 66.2163C42.3164 64.0538 43.5313 61.1208 43.5313 58.0625C43.5108 56.7359 43.3498 55.4153 43.0508 54.1227C44.0199 55.0333 45.0829 55.8386 46.2219 56.525C48.8724 58.0541 52.0218 58.4677 54.9773 57.6748C57.9327 56.8819 60.4522 54.9474 61.9813 52.2969C63.5104 49.6464 63.924 46.497 63.1311 43.5415C62.3382 40.5861 60.4037 38.0666 57.7532 36.5375ZM25.5938 35C25.5938 33.733 25.9695 32.4944 26.6734 31.4409C27.3774 30.3874 28.3779 29.5663 29.5485 29.0814C30.7191 28.5965 32.0071 28.4697 33.2498 28.7168C34.4925 28.964 35.634 29.5742 36.5299 30.4701C37.4259 31.366 38.036 32.5075 38.2832 33.7502C38.5304 34.9929 38.4035 36.281 37.9186 37.4516C37.4338 38.6222 36.6127 39.6227 35.5592 40.3266C34.5057 41.0305 33.2671 41.4062 32 41.4062C30.3036 41.3978 28.679 40.7202 27.4794 39.5206C26.2799 38.321 25.6022 36.6964 25.5938 35ZM48.7844 17.9273C50.2485 17.1615 51.9519 16.9909 53.5388 17.4513C55.1257 17.9116 56.4733 18.9673 57.3002 20.3978C58.1271 21.8284 58.3693 23.5231 57.9762 25.1279C57.5831 26.7328 56.5851 28.1237 55.1907 29.0102C53.0125 30.2594 48.7524 31.2523 43.0829 31.8609C42.562 30.0198 41.5936 28.3362 40.2641 26.9602C43.6274 22.3477 46.6063 19.1766 48.7844 17.9273ZM32 5.53125C33.6965 5.53967 35.3211 6.21731 36.5206 7.4169C37.7202 8.61648 38.3979 10.2411 38.4063 11.9375C38.4063 14.4359 37.1571 18.632 34.8188 23.8211C32.9689 23.352 31.0312 23.352 29.1813 23.8211C26.843 18.632 25.5938 14.4359 25.5938 11.9375C25.6022 10.2411 26.2799 8.61648 27.4794 7.4169C28.679 6.21731 30.3036 5.53967 32 5.53125ZM6.47113 20.2656C7.32172 18.7971 8.72026 17.7261 10.3597 17.2877C11.9992 16.8493 13.7456 17.0794 15.2157 17.9273C17.3938 19.1766 20.3727 22.3477 23.736 26.9602C22.4064 28.3362 21.4381 30.0198 20.9172 31.8609C15.2477 31.2523 10.9875 30.2594 8.80941 29.0102C7.34089 28.1596 6.26989 26.761 5.83149 25.1216C5.3931 23.4821 5.62314 21.7357 6.47113 20.2656ZM15.2157 52.0727C13.7516 52.8385 12.0482 53.0091 10.4613 52.5488C8.87441 52.0884 7.52677 51.0327 6.69988 49.6022C5.87299 48.1716 5.6308 46.4769 6.0239 44.8721C6.417 43.2672 7.415 41.8763 8.80941 40.9898C10.9875 39.7406 15.2477 38.7477 20.9172 38.1391C21.4381 39.9802 22.4064 41.6638 23.736 43.0398C20.3727 47.6523 17.3938 50.8234 15.2157 52.0727ZM32 64.4688C30.3036 64.4603 28.679 63.7827 27.4794 62.5831C26.2799 61.3835 25.6022 59.7589 25.5938 58.0625C25.5938 55.5641 26.843 51.368 29.1813 46.1789C31.0312 46.648 32.9689 46.648 34.8188 46.1789C37.1571 51.368 38.4063 55.5641 38.4063 58.0625C38.3979 59.7589 37.7202 61.3835 36.5206 62.5831C35.3211 63.7827 33.6965 64.4603 32 64.4688ZM57.5289 49.7344C56.6783 51.2029 55.2798 52.2739 53.6403 52.7123C52.0009 53.1507 50.2544 52.9206 48.7844 52.0727C46.6063 50.8234 43.6274 47.6523 40.2641 43.0398C41.5936 41.6638 42.562 39.9802 43.0829 38.1391C48.7524 38.7477 53.0125 39.7406 55.1907 40.9898C56.6592 41.8404 57.7302 43.239 58.1686 44.8784C58.607 46.5179 58.3769 48.2643 57.5289 49.7344Z" fill="white"/>
</svg>
