<svg width="40" height="40" viewBox="0 0 40 40" fill="none" xmlns="http://www.w3.org/2000/svg">
<path d="M10.1363 5.32501L20 4.29126L29.8638 5.32626L37.5 15.5L20 35.7088L2.5 15.5L10.1363 5.32501Z" fill="#FDB300"/>
<path d="M9.58875 15.4938L20 35.7088L2.5 15.4938H9.58875ZM30.4113 15.4938L20 35.7088L37.5 15.4938H30.4113Z" fill="#EA6C00"/>
<path d="M9.58887 15.4938H30.4114L20.0001 35.7088L9.58887 15.4938Z" fill="#FDAD00"/>
<path d="M20.0001 4.29126L10.1364 5.32501L9.58887 15.4938L20.0001 4.29126ZM20.0001 4.29126L29.8639 5.32501L30.4114 15.4938L20.0001 4.29126Z" fill="#FDD231"/>
<path d="M37.5 15.4938L29.8638 5.32501L30.4113 15.4938H37.5ZM2.5 15.4938L10.1363 5.32501L9.58875 15.4938H2.5Z" fill="#FDAD00"/>
<path d="M20.0001 4.29126L9.58887 15.4938H30.4114L20.0001 4.29126Z" fill="#FEEEB7"/>
</svg>
