<svg width="20" height="19" viewBox="0 0 20 19" fill="none" xmlns="http://www.w3.org/2000/svg">
<path d="M16.6518 0.255753H3.80965C2.04689 0.255753 0.617889 1.63775 0.617889 3.34254V15.2975C0.617889 17.0023 2.04689 18.3843 3.80965 18.3843H16.6518C18.4145 18.3843 19.8435 17.0023 19.8435 15.2975V3.34254C19.8435 1.63775 18.4145 0.255753 16.6518 0.255753Z" fill="#470137"/>
<path d="M10.7247 5.0232L8.32579 8.85248L10.8923 12.9187C10.9089 12.9472 10.9134 12.9806 10.9053 13.0122C10.9013 13.0257 10.8927 13.0291 10.8796 13.0296L10.865 13.0294L10.8473 13.0289C10.8377 13.0289 10.8269 13.0294 10.815 13.0313H8.96452L8.92817 13.0307C8.82843 13.0281 8.75656 13.0143 8.71278 12.9436C8.54156 12.621 8.36958 12.2988 8.19684 11.977C8.04233 11.6899 7.8836 11.405 7.72071 11.1223L7.64876 10.9978C7.45393 10.663 7.26262 10.3262 7.07485 9.98754H7.06193C6.88852 10.3226 6.71009 10.6553 6.52669 10.9853C6.34172 11.318 6.159 11.6486 5.97853 11.977C5.79796 12.3056 5.6131 12.632 5.42399 12.9561C5.39358 13.0222 5.34304 13.036 5.27267 13.0382L5.24338 13.0387H3.4765L3.46884 13.0389L3.4436 13.0411C3.42956 13.0419 3.42115 13.039 3.41844 13.0185C3.4136 12.9881 3.42049 12.957 3.43782 12.9312L5.92694 8.97718L3.50226 5.01085C3.4765 4.97773 3.47221 4.95071 3.48934 4.92979C3.49886 4.91914 3.51081 4.91077 3.52424 4.90535C3.53768 4.89993 3.55224 4.8976 3.56677 4.89856H5.38524C5.4249 4.89646 5.46454 4.90286 5.50135 4.9173C5.53214 4.93422 5.55865 4.95768 5.5787 4.98594C5.73348 5.31858 5.90546 5.65123 6.09464 5.98373C6.28235 6.31413 6.47366 6.64261 6.66855 6.9691C6.86046 7.29054 7.03901 7.61926 7.20379 7.95448H7.21671C7.38558 7.61934 7.55971 7.2867 7.73903 6.95668C7.91514 6.63239 8.09576 6.30592 8.28065 5.97748C8.4632 5.65326 8.64163 5.32689 8.81589 4.99843C8.82581 4.96763 8.84353 4.93974 8.86749 4.9173C8.89934 4.9017 8.93514 4.8952 8.97067 4.89856H10.6602C10.6757 4.89482 10.6921 4.89605 10.7069 4.90208C10.7216 4.90811 10.7339 4.9186 10.742 4.93199C10.75 4.94537 10.7533 4.96092 10.7515 4.97629C10.7496 4.99167 10.7426 5.00604 10.7315 5.01724L10.7248 5.02334L10.7247 5.0232ZM14.515 13.1921L14.4261 13.1931C13.8325 13.2018 13.2443 13.0825 12.7043 12.8439C12.2012 12.6187 11.7807 12.2512 11.4984 11.7899C11.2137 11.3326 11.0675 10.7627 11.0602 10.0805L11.0599 10.0249C11.0551 9.45248 11.2063 8.8889 11.4985 8.39099C11.7908 7.89817 12.2171 7.49213 12.731 7.21685L12.7752 7.1936C13.334 6.89422 14.009 6.74453 14.8001 6.74453L14.8346 6.74489L14.8741 6.74613L14.9185 6.74802L14.9677 6.75078L15.0505 6.75644L15.1442 6.76371L15.2128 6.76952V4.31229C15.2128 4.25419 15.2386 4.22499 15.2901 4.22499H16.9152C16.9257 4.22353 16.9364 4.22446 16.9465 4.22771C16.9566 4.23095 16.9657 4.23642 16.9732 4.24368C16.9808 4.25094 16.9864 4.25979 16.9898 4.26953C16.9931 4.27927 16.9941 4.28964 16.9926 4.2998V11.6714C16.9926 11.7952 16.9975 11.9285 17.0074 12.0712L17.0315 12.3947L17.0442 12.5819C17.0458 12.6078 17.0393 12.6336 17.0255 12.6559C17.0117 12.6781 16.9912 12.6958 16.9668 12.7067C16.5476 12.8757 16.1109 13.0012 15.6642 13.0808C15.285 13.1485 14.9006 13.1857 14.515 13.1921ZM15.2128 11.6464V8.24129C15.1431 8.22304 15.0719 8.21053 15 8.20389C14.9122 8.19534 14.8239 8.19117 14.7356 8.1914C14.4226 8.1884 14.1133 8.25678 13.8328 8.39099C13.5596 8.52234 13.3263 8.72005 13.1557 8.96476C12.9855 9.20561 12.8974 9.52009 12.8916 9.90823L12.8913 9.95014C12.885 10.222 12.9309 10.4927 13.0267 10.7483C13.1046 10.9544 13.2279 11.1417 13.3879 11.2972C13.5411 11.4403 13.7265 11.547 13.9295 11.609C14.144 11.6762 14.3683 11.7099 14.5937 11.7089C14.714 11.7089 14.8258 11.7047 14.929 11.6963C15.0114 11.6903 15.093 11.6772 15.173 11.6571L15.2128 11.6464Z" fill="#FF61F6"/>
</svg>
